<mxfile host="app.diagrams.net" modified="2024-03-31T16:28:33.727Z" agent="Mozilla/5.0 (Macintosh; Intel Mac OS X 10_15_7) AppleWebKit/605.1.15 (KHTML, like Gecko) Version/17.2.1 Safari/605.1.15" etag="7UobR_NET_LJKtgeh0wV" version="24.0.1" type="device" pages="4">
  <diagram name="Страница — 1" id="PRng2xLBeJzW-xNjr6Uf">
    <mxGraphModel dx="1580" dy="1027" grid="1" gridSize="10" guides="1" tooltips="1" connect="1" arrows="1" fold="1" page="1" pageScale="1" pageWidth="827" pageHeight="1169" math="0" shadow="0">
      <root>
        <mxCell id="0" />
        <mxCell id="1" parent="0" />
        <mxCell id="Z72Pltmd8owFOF5ols5Y-1" value="&lt;span style=&quot;font-family: &amp;#34;arial&amp;#34; ; font-size: 13px ; text-align: left ; background-color: rgb(255 , 255 , 255)&quot;&gt;Проектирование интернет-кабинета клиента банка&lt;/span&gt;" style="text;html=1;strokeColor=none;fillColor=none;align=center;verticalAlign=middle;whiteSpace=wrap;rounded=0;" parent="1" vertex="1">
          <mxGeometry x="184" y="40" width="510" height="30" as="geometry" />
        </mxCell>
        <mxCell id="Z72Pltmd8owFOF5ols5Y-2" value="" style="endArrow=none;dashed=1;html=1;rounded=0;entryX=0.5;entryY=0;entryDx=0;entryDy=0;exitX=0.5;exitY=1;exitDx=0;exitDy=0;" parent="1" source="Z72Pltmd8owFOF5ols5Y-11" target="Z72Pltmd8owFOF5ols5Y-11" edge="1">
          <mxGeometry width="50" height="50" relative="1" as="geometry">
            <mxPoint x="770" y="590" as="sourcePoint" />
            <mxPoint x="820" y="540" as="targetPoint" />
          </mxGeometry>
        </mxCell>
        <mxCell id="Z72Pltmd8owFOF5ols5Y-3" value="&lt;font style=&quot;font-size: 24px&quot;&gt;&lt;b&gt;Клиент&lt;/b&gt;&lt;/font&gt;" style="text;html=1;align=center;verticalAlign=middle;resizable=0;points=[];autosize=1;strokeColor=none;fillColor=none;" parent="1" vertex="1">
          <mxGeometry x="410" y="109.99999999999977" width="100" height="20" as="geometry" />
        </mxCell>
        <mxCell id="Z72Pltmd8owFOF5ols5Y-4" style="edgeStyle=orthogonalEdgeStyle;rounded=0;orthogonalLoop=1;jettySize=auto;html=1;exitX=0;exitY=0.5;exitDx=0;exitDy=0;exitPerimeter=0;entryX=0.5;entryY=0;entryDx=0;entryDy=0;" parent="1" source="Z72Pltmd8owFOF5ols5Y-6" target="Z72Pltmd8owFOF5ols5Y-8" edge="1">
          <mxGeometry relative="1" as="geometry" />
        </mxCell>
        <mxCell id="Z72Pltmd8owFOF5ols5Y-5" style="edgeStyle=orthogonalEdgeStyle;rounded=0;orthogonalLoop=1;jettySize=auto;html=1;exitX=1;exitY=0.5;exitDx=0;exitDy=0;exitPerimeter=0;entryX=0.5;entryY=0;entryDx=0;entryDy=0;" parent="1" source="Z72Pltmd8owFOF5ols5Y-6" target="Z72Pltmd8owFOF5ols5Y-12" edge="1">
          <mxGeometry relative="1" as="geometry" />
        </mxCell>
        <mxCell id="Z72Pltmd8owFOF5ols5Y-6" value="" style="points=[[0.25,0.25,0],[0.5,0,0],[0.75,0.25,0],[1,0.5,0],[0.75,0.75,0],[0.5,1,0],[0.25,0.75,0],[0,0.5,0]];shape=mxgraph.bpmn.gateway2;html=1;verticalLabelPosition=bottom;labelBackgroundColor=#ffffff;verticalAlign=top;align=center;perimeter=rhombusPerimeter;outlineConnect=0;outline=none;symbol=none;" parent="1" vertex="1">
          <mxGeometry x="455" y="329.9999999999998" width="50" height="50" as="geometry" />
        </mxCell>
        <mxCell id="Z72Pltmd8owFOF5ols5Y-7" style="edgeStyle=orthogonalEdgeStyle;rounded=0;orthogonalLoop=1;jettySize=auto;html=1;exitX=0;exitY=0.5;exitDx=0;exitDy=0;" parent="1" source="Z72Pltmd8owFOF5ols5Y-8" target="Z72Pltmd8owFOF5ols5Y-50" edge="1">
          <mxGeometry relative="1" as="geometry" />
        </mxCell>
        <mxCell id="Z72Pltmd8owFOF5ols5Y-8" value="Зарегистрироваться в системе" style="rounded=1;whiteSpace=wrap;html=1;" parent="1" vertex="1">
          <mxGeometry x="265" y="379.9999999999998" width="120" height="60" as="geometry" />
        </mxCell>
        <mxCell id="Z72Pltmd8owFOF5ols5Y-9" value="У пользователя нет аккаунта" style="text;html=1;align=center;verticalAlign=middle;resizable=0;points=[];autosize=1;strokeColor=none;fillColor=none;" parent="1" vertex="1">
          <mxGeometry x="275" y="339.9999999999998" width="180" height="20" as="geometry" />
        </mxCell>
        <mxCell id="Z72Pltmd8owFOF5ols5Y-10" value="У пользователя уже есть аккаунт" style="text;html=1;align=center;verticalAlign=middle;resizable=0;points=[];autosize=1;strokeColor=none;fillColor=none;" parent="1" vertex="1">
          <mxGeometry x="505" y="339.9999999999998" width="200" height="20" as="geometry" />
        </mxCell>
        <mxCell id="Z72Pltmd8owFOF5ols5Y-11" value="" style="swimlane;startSize=0;" parent="1" vertex="1">
          <mxGeometry x="20" y="80" width="1610" height="2050" as="geometry" />
        </mxCell>
        <mxCell id="Z72Pltmd8owFOF5ols5Y-12" value="Войти в аккаунт" style="rounded=1;whiteSpace=wrap;html=1;" parent="Z72Pltmd8owFOF5ols5Y-11" vertex="1">
          <mxGeometry x="560" y="299.9999999999998" width="120" height="60" as="geometry" />
        </mxCell>
        <mxCell id="Z72Pltmd8owFOF5ols5Y-13" style="edgeStyle=orthogonalEdgeStyle;rounded=0;orthogonalLoop=1;jettySize=auto;html=1;exitX=0.5;exitY=1;exitDx=0;exitDy=0;entryX=0;entryY=0.5;entryDx=0;entryDy=0;entryPerimeter=0;" parent="Z72Pltmd8owFOF5ols5Y-11" source="Z72Pltmd8owFOF5ols5Y-14" target="Z72Pltmd8owFOF5ols5Y-41" edge="1">
          <mxGeometry relative="1" as="geometry" />
        </mxCell>
        <mxCell id="Z72Pltmd8owFOF5ols5Y-14" value="Восстановить аккаунт" style="rounded=1;whiteSpace=wrap;html=1;" parent="Z72Pltmd8owFOF5ols5Y-11" vertex="1">
          <mxGeometry x="430" y="419.9999999999998" width="120" height="60" as="geometry" />
        </mxCell>
        <mxCell id="Z72Pltmd8owFOF5ols5Y-15" style="edgeStyle=orthogonalEdgeStyle;rounded=0;orthogonalLoop=1;jettySize=auto;html=1;exitX=0.5;exitY=1;exitDx=0;exitDy=0;entryX=0;entryY=0.5;entryDx=0;entryDy=0;" parent="Z72Pltmd8owFOF5ols5Y-11" source="Z72Pltmd8owFOF5ols5Y-16" target="Z72Pltmd8owFOF5ols5Y-81" edge="1">
          <mxGeometry relative="1" as="geometry" />
        </mxCell>
        <mxCell id="Z72Pltmd8owFOF5ols5Y-16" value="Отправить заявку" style="rounded=1;whiteSpace=wrap;html=1;" parent="Z72Pltmd8owFOF5ols5Y-11" vertex="1">
          <mxGeometry x="402" y="1760" width="120" height="60" as="geometry" />
        </mxCell>
        <mxCell id="Z72Pltmd8owFOF5ols5Y-17" value="&lt;span&gt;Оформить заявку на кредитование&lt;/span&gt;" style="rounded=1;whiteSpace=wrap;html=1;" parent="Z72Pltmd8owFOF5ols5Y-11" vertex="1">
          <mxGeometry x="402" y="1309.9999999999998" width="120" height="60" as="geometry" />
        </mxCell>
        <mxCell id="Z72Pltmd8owFOF5ols5Y-18" style="edgeStyle=orthogonalEdgeStyle;rounded=0;orthogonalLoop=1;jettySize=auto;html=1;exitX=0.5;exitY=1;exitDx=0;exitDy=0;entryX=0.5;entryY=0;entryDx=0;entryDy=0;" parent="Z72Pltmd8owFOF5ols5Y-11" source="Z72Pltmd8owFOF5ols5Y-19" target="Z72Pltmd8owFOF5ols5Y-21" edge="1">
          <mxGeometry relative="1" as="geometry" />
        </mxCell>
        <mxCell id="Z72Pltmd8owFOF5ols5Y-19" value="Выбрать тип лица, которому будут оказана услуга" style="rounded=1;whiteSpace=wrap;html=1;" parent="Z72Pltmd8owFOF5ols5Y-11" vertex="1">
          <mxGeometry x="402" y="1522.5" width="120" height="60" as="geometry" />
        </mxCell>
        <mxCell id="Z72Pltmd8owFOF5ols5Y-20" value="" style="edgeStyle=orthogonalEdgeStyle;rounded=0;orthogonalLoop=1;jettySize=auto;html=1;" parent="Z72Pltmd8owFOF5ols5Y-11" source="Z72Pltmd8owFOF5ols5Y-21" target="Z72Pltmd8owFOF5ols5Y-23" edge="1">
          <mxGeometry relative="1" as="geometry" />
        </mxCell>
        <mxCell id="Z72Pltmd8owFOF5ols5Y-21" value="Предоставить документы соответствующие выбранному виду займа" style="rounded=1;whiteSpace=wrap;html=1;" parent="Z72Pltmd8owFOF5ols5Y-11" vertex="1">
          <mxGeometry x="389.5" y="1600" width="145" height="60" as="geometry" />
        </mxCell>
        <mxCell id="Z72Pltmd8owFOF5ols5Y-22" value="" style="edgeStyle=orthogonalEdgeStyle;rounded=0;orthogonalLoop=1;jettySize=auto;html=1;" parent="Z72Pltmd8owFOF5ols5Y-11" source="Z72Pltmd8owFOF5ols5Y-23" target="Z72Pltmd8owFOF5ols5Y-16" edge="1">
          <mxGeometry relative="1" as="geometry" />
        </mxCell>
        <mxCell id="Z72Pltmd8owFOF5ols5Y-23" value="Отправить запрос на подтверждение&amp;nbsp;" style="rounded=1;whiteSpace=wrap;html=1;" parent="Z72Pltmd8owFOF5ols5Y-11" vertex="1">
          <mxGeometry x="402" y="1679.9999999999998" width="120" height="60" as="geometry" />
        </mxCell>
        <mxCell id="Z72Pltmd8owFOF5ols5Y-24" value="" style="edgeStyle=orthogonalEdgeStyle;rounded=0;orthogonalLoop=1;jettySize=auto;html=1;" parent="Z72Pltmd8owFOF5ols5Y-11" source="Z72Pltmd8owFOF5ols5Y-25" target="Z72Pltmd8owFOF5ols5Y-28" edge="1">
          <mxGeometry relative="1" as="geometry" />
        </mxCell>
        <mxCell id="Z72Pltmd8owFOF5ols5Y-25" value="Выбрать вид займа" style="rounded=1;whiteSpace=wrap;html=1;" parent="Z72Pltmd8owFOF5ols5Y-11" vertex="1">
          <mxGeometry x="402" y="1410" width="120" height="36.91" as="geometry" />
        </mxCell>
        <mxCell id="Z72Pltmd8owFOF5ols5Y-26" style="edgeStyle=orthogonalEdgeStyle;rounded=0;orthogonalLoop=1;jettySize=auto;html=1;exitX=0.5;exitY=1;exitDx=0;exitDy=0;entryX=0.5;entryY=0;entryDx=0;entryDy=0;" parent="Z72Pltmd8owFOF5ols5Y-11" source="Z72Pltmd8owFOF5ols5Y-17" target="Z72Pltmd8owFOF5ols5Y-25" edge="1">
          <mxGeometry relative="1" as="geometry">
            <mxPoint x="462.5" y="1397.5" as="targetPoint" />
          </mxGeometry>
        </mxCell>
        <mxCell id="Z72Pltmd8owFOF5ols5Y-27" style="edgeStyle=orthogonalEdgeStyle;rounded=0;orthogonalLoop=1;jettySize=auto;html=1;exitX=0.5;exitY=1;exitDx=0;exitDy=0;entryX=0.5;entryY=0;entryDx=0;entryDy=0;" parent="Z72Pltmd8owFOF5ols5Y-11" source="Z72Pltmd8owFOF5ols5Y-28" target="Z72Pltmd8owFOF5ols5Y-19" edge="1">
          <mxGeometry relative="1" as="geometry" />
        </mxCell>
        <mxCell id="Z72Pltmd8owFOF5ols5Y-28" value="&lt;span&gt;Выбрать сумму&lt;/span&gt;" style="rounded=1;whiteSpace=wrap;html=1;" parent="Z72Pltmd8owFOF5ols5Y-11" vertex="1">
          <mxGeometry x="402" y="1469.6799999999998" width="120" height="28.91" as="geometry" />
        </mxCell>
        <mxCell id="Z72Pltmd8owFOF5ols5Y-29" style="edgeStyle=orthogonalEdgeStyle;rounded=0;orthogonalLoop=1;jettySize=auto;html=1;exitX=0.5;exitY=1;exitDx=0;exitDy=0;exitPerimeter=0;entryX=0.5;entryY=0;entryDx=0;entryDy=0;" parent="Z72Pltmd8owFOF5ols5Y-11" source="Z72Pltmd8owFOF5ols5Y-30" target="Z72Pltmd8owFOF5ols5Y-55" edge="1">
          <mxGeometry relative="1" as="geometry" />
        </mxCell>
        <mxCell id="Z72Pltmd8owFOF5ols5Y-30" value="" style="points=[[0.25,0.25,0],[0.5,0,0],[0.75,0.25,0],[1,0.5,0],[0.75,0.75,0],[0.5,1,0],[0.25,0.75,0],[0,0.5,0]];shape=mxgraph.bpmn.gateway2;html=1;verticalLabelPosition=bottom;labelBackgroundColor=#ffffff;verticalAlign=top;align=center;perimeter=rhombusPerimeter;outlineConnect=0;outline=none;symbol=none;" parent="Z72Pltmd8owFOF5ols5Y-11" vertex="1">
          <mxGeometry x="365" y="629.9999999999998" width="50" height="50" as="geometry" />
        </mxCell>
        <mxCell id="Z72Pltmd8owFOF5ols5Y-31" value="Ввести контактную информацию" style="rounded=1;whiteSpace=wrap;html=1;" parent="Z72Pltmd8owFOF5ols5Y-11" vertex="1">
          <mxGeometry x="30" y="481.0399999999999" width="120" height="37.91" as="geometry" />
        </mxCell>
        <mxCell id="Z72Pltmd8owFOF5ols5Y-32" value="Добавить документы идентификации личности" style="rounded=1;whiteSpace=wrap;html=1;" parent="Z72Pltmd8owFOF5ols5Y-11" vertex="1">
          <mxGeometry x="160" y="481.0399999999999" width="150" height="37.91" as="geometry" />
        </mxCell>
        <mxCell id="Z72Pltmd8owFOF5ols5Y-33" value="" style="edgeStyle=orthogonalEdgeStyle;rounded=0;orthogonalLoop=1;jettySize=auto;html=1;" parent="Z72Pltmd8owFOF5ols5Y-11" source="Z72Pltmd8owFOF5ols5Y-34" target="Z72Pltmd8owFOF5ols5Y-36" edge="1">
          <mxGeometry relative="1" as="geometry" />
        </mxCell>
        <mxCell id="Z72Pltmd8owFOF5ols5Y-34" value="Ввести логин" style="rounded=1;whiteSpace=wrap;html=1;" parent="Z72Pltmd8owFOF5ols5Y-11" vertex="1">
          <mxGeometry x="660" y="419.9999999999998" width="120" height="60" as="geometry" />
        </mxCell>
        <mxCell id="Z72Pltmd8owFOF5ols5Y-35" style="edgeStyle=orthogonalEdgeStyle;rounded=0;orthogonalLoop=1;jettySize=auto;html=1;exitX=0.5;exitY=1;exitDx=0;exitDy=0;entryX=1;entryY=0.5;entryDx=0;entryDy=0;entryPerimeter=0;" parent="Z72Pltmd8owFOF5ols5Y-11" source="Z72Pltmd8owFOF5ols5Y-36" target="Z72Pltmd8owFOF5ols5Y-41" edge="1">
          <mxGeometry relative="1" as="geometry" />
        </mxCell>
        <mxCell id="Z72Pltmd8owFOF5ols5Y-36" value="Ввести пароль" style="rounded=1;whiteSpace=wrap;html=1;" parent="Z72Pltmd8owFOF5ols5Y-11" vertex="1">
          <mxGeometry x="660" y="499.9999999999998" width="120" height="60" as="geometry" />
        </mxCell>
        <mxCell id="Z72Pltmd8owFOF5ols5Y-37" style="edgeStyle=orthogonalEdgeStyle;rounded=0;orthogonalLoop=1;jettySize=auto;html=1;exitX=1;exitY=0.5;exitDx=0;exitDy=0;exitPerimeter=0;entryX=0.5;entryY=0;entryDx=0;entryDy=0;" parent="Z72Pltmd8owFOF5ols5Y-11" source="Z72Pltmd8owFOF5ols5Y-39" target="Z72Pltmd8owFOF5ols5Y-34" edge="1">
          <mxGeometry relative="1" as="geometry" />
        </mxCell>
        <mxCell id="Z72Pltmd8owFOF5ols5Y-38" style="edgeStyle=orthogonalEdgeStyle;rounded=0;orthogonalLoop=1;jettySize=auto;html=1;exitX=0;exitY=0.5;exitDx=0;exitDy=0;exitPerimeter=0;entryX=0.5;entryY=0;entryDx=0;entryDy=0;" parent="Z72Pltmd8owFOF5ols5Y-11" source="Z72Pltmd8owFOF5ols5Y-39" target="Z72Pltmd8owFOF5ols5Y-14" edge="1">
          <mxGeometry relative="1" as="geometry" />
        </mxCell>
        <mxCell id="Z72Pltmd8owFOF5ols5Y-39" value="" style="points=[[0.25,0.25,0],[0.5,0,0],[0.75,0.25,0],[1,0.5,0],[0.75,0.75,0],[0.5,1,0],[0.25,0.75,0],[0,0.5,0]];shape=mxgraph.bpmn.gateway2;html=1;verticalLabelPosition=bottom;labelBackgroundColor=#ffffff;verticalAlign=top;align=center;perimeter=rhombusPerimeter;outlineConnect=0;outline=none;symbol=none;" parent="Z72Pltmd8owFOF5ols5Y-11" vertex="1">
          <mxGeometry x="590" y="369.9999999999998" width="50" height="50" as="geometry" />
        </mxCell>
        <mxCell id="Z72Pltmd8owFOF5ols5Y-40" style="edgeStyle=orthogonalEdgeStyle;rounded=0;orthogonalLoop=1;jettySize=auto;html=1;exitX=0.5;exitY=1;exitDx=0;exitDy=0;exitPerimeter=0;entryX=1;entryY=0.5;entryDx=0;entryDy=0;entryPerimeter=0;" parent="Z72Pltmd8owFOF5ols5Y-11" source="Z72Pltmd8owFOF5ols5Y-41" target="Z72Pltmd8owFOF5ols5Y-30" edge="1">
          <mxGeometry relative="1" as="geometry" />
        </mxCell>
        <mxCell id="Z72Pltmd8owFOF5ols5Y-41" value="" style="points=[[0.25,0.25,0],[0.5,0,0],[0.75,0.25,0],[1,0.5,0],[0.75,0.75,0],[0.5,1,0],[0.25,0.75,0],[0,0.5,0]];shape=mxgraph.bpmn.gateway2;html=1;verticalLabelPosition=bottom;labelBackgroundColor=#ffffff;verticalAlign=top;align=center;perimeter=rhombusPerimeter;outlineConnect=0;outline=none;symbol=none;" parent="Z72Pltmd8owFOF5ols5Y-11" vertex="1">
          <mxGeometry x="590" y="559.9999999999998" width="50" height="50" as="geometry" />
        </mxCell>
        <mxCell id="Z72Pltmd8owFOF5ols5Y-42" style="edgeStyle=orthogonalEdgeStyle;rounded=0;orthogonalLoop=1;jettySize=auto;html=1;exitX=0.5;exitY=1;exitDx=0;exitDy=0;entryX=0;entryY=0.5;entryDx=0;entryDy=0;entryPerimeter=0;" parent="Z72Pltmd8owFOF5ols5Y-11" source="Z72Pltmd8owFOF5ols5Y-43" target="Z72Pltmd8owFOF5ols5Y-30" edge="1">
          <mxGeometry relative="1" as="geometry" />
        </mxCell>
        <mxCell id="Z72Pltmd8owFOF5ols5Y-43" value="" style="rounded=0;whiteSpace=wrap;html=1;fillColor=#000000;" parent="Z72Pltmd8owFOF5ols5Y-11" vertex="1">
          <mxGeometry x="100" y="549.9999999999998" width="120" height="10" as="geometry" />
        </mxCell>
        <mxCell id="Z72Pltmd8owFOF5ols5Y-44" style="rounded=0;orthogonalLoop=1;jettySize=auto;html=1;exitX=0.5;exitY=1;exitDx=0;exitDy=0;entryX=0.25;entryY=0;entryDx=0;entryDy=0;" parent="Z72Pltmd8owFOF5ols5Y-11" source="Z72Pltmd8owFOF5ols5Y-31" target="Z72Pltmd8owFOF5ols5Y-43" edge="1">
          <mxGeometry relative="1" as="geometry">
            <mxPoint x="97.5" y="598.0899999999997" as="targetPoint" />
          </mxGeometry>
        </mxCell>
        <mxCell id="Z72Pltmd8owFOF5ols5Y-45" style="edgeStyle=none;rounded=0;orthogonalLoop=1;jettySize=auto;html=1;exitX=0.5;exitY=1;exitDx=0;exitDy=0;entryX=0.75;entryY=0;entryDx=0;entryDy=0;" parent="Z72Pltmd8owFOF5ols5Y-11" source="Z72Pltmd8owFOF5ols5Y-32" target="Z72Pltmd8owFOF5ols5Y-43" edge="1">
          <mxGeometry relative="1" as="geometry" />
        </mxCell>
        <mxCell id="Z72Pltmd8owFOF5ols5Y-46" value="" style="rounded=0;whiteSpace=wrap;html=1;fillColor=#000000;" parent="Z72Pltmd8owFOF5ols5Y-11" vertex="1">
          <mxGeometry x="85" y="460" width="150" height="10" as="geometry" />
        </mxCell>
        <mxCell id="Z72Pltmd8owFOF5ols5Y-47" style="rounded=0;orthogonalLoop=1;jettySize=auto;html=1;entryX=0.5;entryY=0;entryDx=0;entryDy=0;" parent="Z72Pltmd8owFOF5ols5Y-11" source="Z72Pltmd8owFOF5ols5Y-46" target="Z72Pltmd8owFOF5ols5Y-32" edge="1">
          <mxGeometry relative="1" as="geometry" />
        </mxCell>
        <mxCell id="Z72Pltmd8owFOF5ols5Y-48" style="rounded=0;orthogonalLoop=1;jettySize=auto;html=1;exitX=0.25;exitY=1;exitDx=0;exitDy=0;entryX=0.5;entryY=0;entryDx=0;entryDy=0;" parent="Z72Pltmd8owFOF5ols5Y-11" source="Z72Pltmd8owFOF5ols5Y-46" target="Z72Pltmd8owFOF5ols5Y-31" edge="1">
          <mxGeometry relative="1" as="geometry" />
        </mxCell>
        <mxCell id="Z72Pltmd8owFOF5ols5Y-49" style="edgeStyle=orthogonalEdgeStyle;rounded=0;orthogonalLoop=1;jettySize=auto;html=1;exitX=0.5;exitY=1;exitDx=0;exitDy=0;entryX=0.5;entryY=0;entryDx=0;entryDy=0;" parent="Z72Pltmd8owFOF5ols5Y-11" source="Z72Pltmd8owFOF5ols5Y-50" target="Z72Pltmd8owFOF5ols5Y-46" edge="1">
          <mxGeometry relative="1" as="geometry" />
        </mxCell>
        <mxCell id="Z72Pltmd8owFOF5ols5Y-50" value="Ввести личную информацию" style="rounded=1;whiteSpace=wrap;html=1;" parent="Z72Pltmd8owFOF5ols5Y-11" vertex="1">
          <mxGeometry x="100" y="369.9999999999998" width="120" height="60" as="geometry" />
        </mxCell>
        <mxCell id="Z72Pltmd8owFOF5ols5Y-51" value="Войти в аккаунт" style="rounded=1;whiteSpace=wrap;html=1;" parent="Z72Pltmd8owFOF5ols5Y-11" vertex="1">
          <mxGeometry x="400" y="170" width="120" height="40" as="geometry" />
        </mxCell>
        <mxCell id="Z72Pltmd8owFOF5ols5Y-52" value="" style="points=[[0.145,0.145,0],[0.5,0,0],[0.855,0.145,0],[1,0.5,0],[0.855,0.855,0],[0.5,1,0],[0.145,0.855,0],[0,0.5,0]];shape=mxgraph.bpmn.event;html=1;verticalLabelPosition=bottom;labelBackgroundColor=#ffffff;verticalAlign=top;align=center;perimeter=ellipsePerimeter;outlineConnect=0;aspect=fixed;outline=standard;symbol=general;" parent="Z72Pltmd8owFOF5ols5Y-11" vertex="1">
          <mxGeometry x="435" y="89.99999999999977" width="50" height="50" as="geometry" />
        </mxCell>
        <mxCell id="Z72Pltmd8owFOF5ols5Y-53" value="" style="endArrow=classic;html=1;rounded=0;exitX=0.5;exitY=1;exitDx=0;exitDy=0;exitPerimeter=0;entryX=0.5;entryY=0;entryDx=0;entryDy=0;" parent="Z72Pltmd8owFOF5ols5Y-11" source="Z72Pltmd8owFOF5ols5Y-52" target="Z72Pltmd8owFOF5ols5Y-51" edge="1">
          <mxGeometry width="50" height="50" relative="1" as="geometry">
            <mxPoint x="470" y="361.90999999999985" as="sourcePoint" />
            <mxPoint x="520" y="311.90999999999985" as="targetPoint" />
          </mxGeometry>
        </mxCell>
        <mxCell id="Z72Pltmd8owFOF5ols5Y-54" style="edgeStyle=orthogonalEdgeStyle;rounded=0;orthogonalLoop=1;jettySize=auto;html=1;exitX=0.5;exitY=1;exitDx=0;exitDy=0;entryX=0;entryY=0.5;entryDx=0;entryDy=0;" parent="Z72Pltmd8owFOF5ols5Y-11" source="Z72Pltmd8owFOF5ols5Y-55" target="Z72Pltmd8owFOF5ols5Y-57" edge="1">
          <mxGeometry relative="1" as="geometry" />
        </mxCell>
        <mxCell id="Z72Pltmd8owFOF5ols5Y-55" value="Обратиться в поддержку" style="rounded=1;whiteSpace=wrap;html=1;" parent="Z72Pltmd8owFOF5ols5Y-11" vertex="1">
          <mxGeometry x="330" y="699.9999999999998" width="120" height="60" as="geometry" />
        </mxCell>
        <mxCell id="Z72Pltmd8owFOF5ols5Y-56" style="edgeStyle=orthogonalEdgeStyle;rounded=0;orthogonalLoop=1;jettySize=auto;html=1;exitX=0.5;exitY=1;exitDx=0;exitDy=0;entryX=0.5;entryY=0;entryDx=0;entryDy=0;" parent="Z72Pltmd8owFOF5ols5Y-11" source="Z72Pltmd8owFOF5ols5Y-57" target="Z72Pltmd8owFOF5ols5Y-59" edge="1">
          <mxGeometry relative="1" as="geometry" />
        </mxCell>
        <mxCell id="Z72Pltmd8owFOF5ols5Y-57" value="Ответить на сообщение" style="rounded=1;whiteSpace=wrap;html=1;" parent="Z72Pltmd8owFOF5ols5Y-11" vertex="1">
          <mxGeometry x="1300" y="749.9999999999998" width="120" height="60" as="geometry" />
        </mxCell>
        <mxCell id="Z72Pltmd8owFOF5ols5Y-58" value="" style="edgeStyle=orthogonalEdgeStyle;rounded=0;orthogonalLoop=1;jettySize=auto;html=1;" parent="Z72Pltmd8owFOF5ols5Y-11" source="Z72Pltmd8owFOF5ols5Y-59" target="Z72Pltmd8owFOF5ols5Y-62" edge="1">
          <mxGeometry relative="1" as="geometry" />
        </mxCell>
        <mxCell id="Z72Pltmd8owFOF5ols5Y-59" value="Проверить состояние счета клиента" style="rounded=1;whiteSpace=wrap;html=1;" parent="Z72Pltmd8owFOF5ols5Y-11" vertex="1">
          <mxGeometry x="1300" y="839.9999999999998" width="120" height="60" as="geometry" />
        </mxCell>
        <mxCell id="Z72Pltmd8owFOF5ols5Y-60" style="edgeStyle=orthogonalEdgeStyle;rounded=0;orthogonalLoop=1;jettySize=auto;html=1;exitX=0;exitY=0.5;exitDx=0;exitDy=0;entryX=0.5;entryY=0;entryDx=0;entryDy=0;" parent="Z72Pltmd8owFOF5ols5Y-11" source="Z72Pltmd8owFOF5ols5Y-62" target="Z72Pltmd8owFOF5ols5Y-64" edge="1">
          <mxGeometry relative="1" as="geometry" />
        </mxCell>
        <mxCell id="Z72Pltmd8owFOF5ols5Y-61" style="edgeStyle=orthogonalEdgeStyle;rounded=0;orthogonalLoop=1;jettySize=auto;html=1;exitX=1;exitY=0.5;exitDx=0;exitDy=0;entryX=0.5;entryY=0;entryDx=0;entryDy=0;" parent="Z72Pltmd8owFOF5ols5Y-11" source="Z72Pltmd8owFOF5ols5Y-62" target="Z72Pltmd8owFOF5ols5Y-73" edge="1">
          <mxGeometry relative="1" as="geometry" />
        </mxCell>
        <mxCell id="Z72Pltmd8owFOF5ols5Y-62" value="" style="rhombus;whiteSpace=wrap;html=1;" parent="Z72Pltmd8owFOF5ols5Y-11" vertex="1">
          <mxGeometry x="1320" y="920" width="80" height="80" as="geometry" />
        </mxCell>
        <mxCell id="Z72Pltmd8owFOF5ols5Y-63" style="edgeStyle=orthogonalEdgeStyle;rounded=0;orthogonalLoop=1;jettySize=auto;html=1;exitX=0.5;exitY=1;exitDx=0;exitDy=0;entryX=0;entryY=0.5;entryDx=0;entryDy=0;" parent="Z72Pltmd8owFOF5ols5Y-11" source="Z72Pltmd8owFOF5ols5Y-64" target="Z72Pltmd8owFOF5ols5Y-79" edge="1">
          <mxGeometry relative="1" as="geometry" />
        </mxCell>
        <mxCell id="Z72Pltmd8owFOF5ols5Y-64" value="Рассказать о состоянии кредита" style="rounded=1;whiteSpace=wrap;html=1;" parent="Z72Pltmd8owFOF5ols5Y-11" vertex="1">
          <mxGeometry x="1195" y="1028.9999999999998" width="120" height="60" as="geometry" />
        </mxCell>
        <mxCell id="Z72Pltmd8owFOF5ols5Y-65" style="edgeStyle=orthogonalEdgeStyle;rounded=0;orthogonalLoop=1;jettySize=auto;html=1;exitX=0.5;exitY=1;exitDx=0;exitDy=0;entryX=0;entryY=0.5;entryDx=0;entryDy=0;" parent="Z72Pltmd8owFOF5ols5Y-11" source="Z72Pltmd8owFOF5ols5Y-66" target="Z72Pltmd8owFOF5ols5Y-76" edge="1">
          <mxGeometry relative="1" as="geometry" />
        </mxCell>
        <mxCell id="Z72Pltmd8owFOF5ols5Y-66" value="Узнать баланс карт" style="rounded=1;whiteSpace=wrap;html=1;" parent="Z72Pltmd8owFOF5ols5Y-11" vertex="1">
          <mxGeometry x="1335" y="1069.9999999999998" width="120" height="60" as="geometry" />
        </mxCell>
        <mxCell id="Z72Pltmd8owFOF5ols5Y-67" style="edgeStyle=orthogonalEdgeStyle;rounded=0;orthogonalLoop=1;jettySize=auto;html=1;exitX=0.5;exitY=1;exitDx=0;exitDy=0;entryX=1;entryY=0.5;entryDx=0;entryDy=0;" parent="Z72Pltmd8owFOF5ols5Y-11" source="Z72Pltmd8owFOF5ols5Y-68" target="Z72Pltmd8owFOF5ols5Y-76" edge="1">
          <mxGeometry relative="1" as="geometry" />
        </mxCell>
        <mxCell id="Z72Pltmd8owFOF5ols5Y-68" value="Узнать историю операций" style="rounded=1;whiteSpace=wrap;html=1;" parent="Z72Pltmd8owFOF5ols5Y-11" vertex="1">
          <mxGeometry x="1475" y="1069.9999999999998" width="120" height="60" as="geometry" />
        </mxCell>
        <mxCell id="Z72Pltmd8owFOF5ols5Y-69" value="Клиент хочет узнать&lt;br&gt;инфо. о кредите" style="text;html=1;align=center;verticalAlign=middle;resizable=0;points=[];autosize=1;strokeColor=none;fillColor=none;" parent="Z72Pltmd8owFOF5ols5Y-11" vertex="1">
          <mxGeometry x="1195" y="930" width="130" height="30" as="geometry" />
        </mxCell>
        <mxCell id="Z72Pltmd8owFOF5ols5Y-70" value="Клиент хочет узнать&lt;br&gt;инфо. о счете" style="text;html=1;align=center;verticalAlign=middle;resizable=0;points=[];autosize=1;strokeColor=none;fillColor=none;" parent="Z72Pltmd8owFOF5ols5Y-11" vertex="1">
          <mxGeometry x="1400" y="920" width="130" height="30" as="geometry" />
        </mxCell>
        <mxCell id="Z72Pltmd8owFOF5ols5Y-71" style="edgeStyle=orthogonalEdgeStyle;rounded=0;orthogonalLoop=1;jettySize=auto;html=1;exitX=0;exitY=0.5;exitDx=0;exitDy=0;entryX=0.5;entryY=0;entryDx=0;entryDy=0;" parent="Z72Pltmd8owFOF5ols5Y-11" source="Z72Pltmd8owFOF5ols5Y-73" target="Z72Pltmd8owFOF5ols5Y-66" edge="1">
          <mxGeometry relative="1" as="geometry" />
        </mxCell>
        <mxCell id="Z72Pltmd8owFOF5ols5Y-72" style="edgeStyle=orthogonalEdgeStyle;rounded=0;orthogonalLoop=1;jettySize=auto;html=1;exitX=1;exitY=0.5;exitDx=0;exitDy=0;" parent="Z72Pltmd8owFOF5ols5Y-11" source="Z72Pltmd8owFOF5ols5Y-73" target="Z72Pltmd8owFOF5ols5Y-68" edge="1">
          <mxGeometry relative="1" as="geometry" />
        </mxCell>
        <mxCell id="Z72Pltmd8owFOF5ols5Y-73" value="" style="rhombus;whiteSpace=wrap;html=1;" parent="Z72Pltmd8owFOF5ols5Y-11" vertex="1">
          <mxGeometry x="1432.5" y="1009" width="65" height="61" as="geometry" />
        </mxCell>
        <mxCell id="Z72Pltmd8owFOF5ols5Y-74" value="История" style="text;html=1;align=center;verticalAlign=middle;resizable=0;points=[];autosize=1;strokeColor=none;fillColor=none;" parent="Z72Pltmd8owFOF5ols5Y-11" vertex="1">
          <mxGeometry x="1495" y="1020" width="60" height="20" as="geometry" />
        </mxCell>
        <mxCell id="Z72Pltmd8owFOF5ols5Y-75" style="edgeStyle=orthogonalEdgeStyle;rounded=0;orthogonalLoop=1;jettySize=auto;html=1;exitX=0.5;exitY=1;exitDx=0;exitDy=0;entryX=1;entryY=0.5;entryDx=0;entryDy=0;" parent="Z72Pltmd8owFOF5ols5Y-11" source="Z72Pltmd8owFOF5ols5Y-76" target="Z72Pltmd8owFOF5ols5Y-79" edge="1">
          <mxGeometry relative="1" as="geometry" />
        </mxCell>
        <mxCell id="Z72Pltmd8owFOF5ols5Y-76" value="" style="rhombus;whiteSpace=wrap;html=1;" parent="Z72Pltmd8owFOF5ols5Y-11" vertex="1">
          <mxGeometry x="1432.5" y="1140" width="65" height="61.09" as="geometry" />
        </mxCell>
        <mxCell id="Z72Pltmd8owFOF5ols5Y-77" value="Баланс" style="text;html=1;align=center;verticalAlign=middle;resizable=0;points=[];autosize=1;strokeColor=none;fillColor=none;" parent="Z72Pltmd8owFOF5ols5Y-11" vertex="1">
          <mxGeometry x="1375" y="1020" width="60" height="20" as="geometry" />
        </mxCell>
        <mxCell id="Z72Pltmd8owFOF5ols5Y-78" style="edgeStyle=orthogonalEdgeStyle;rounded=0;orthogonalLoop=1;jettySize=auto;html=1;exitX=0.5;exitY=1;exitDx=0;exitDy=0;entryX=0.5;entryY=0;entryDx=0;entryDy=0;" parent="Z72Pltmd8owFOF5ols5Y-11" source="Z72Pltmd8owFOF5ols5Y-79" target="Z72Pltmd8owFOF5ols5Y-17" edge="1">
          <mxGeometry relative="1" as="geometry" />
        </mxCell>
        <mxCell id="Z72Pltmd8owFOF5ols5Y-79" value="" style="rhombus;whiteSpace=wrap;html=1;" parent="Z72Pltmd8owFOF5ols5Y-11" vertex="1">
          <mxGeometry x="1324" y="1186.63" width="80" height="80" as="geometry" />
        </mxCell>
        <mxCell id="Z72Pltmd8owFOF5ols5Y-80" style="edgeStyle=orthogonalEdgeStyle;rounded=0;orthogonalLoop=1;jettySize=auto;html=1;exitX=0.5;exitY=1;exitDx=0;exitDy=0;entryX=1;entryY=0.5;entryDx=0;entryDy=0;" parent="Z72Pltmd8owFOF5ols5Y-11" source="Z72Pltmd8owFOF5ols5Y-81" target="Z72Pltmd8owFOF5ols5Y-83" edge="1">
          <mxGeometry relative="1" as="geometry" />
        </mxCell>
        <mxCell id="Z72Pltmd8owFOF5ols5Y-81" value="Оформить договор займа" style="rounded=1;whiteSpace=wrap;html=1;" parent="Z72Pltmd8owFOF5ols5Y-11" vertex="1">
          <mxGeometry x="920" y="1810" width="120" height="60" as="geometry" />
        </mxCell>
        <mxCell id="Z72Pltmd8owFOF5ols5Y-82" value="" style="edgeStyle=orthogonalEdgeStyle;rounded=0;orthogonalLoop=1;jettySize=auto;html=1;" parent="Z72Pltmd8owFOF5ols5Y-11" source="Z72Pltmd8owFOF5ols5Y-83" target="Z72Pltmd8owFOF5ols5Y-84" edge="1">
          <mxGeometry relative="1" as="geometry" />
        </mxCell>
        <mxCell id="Z72Pltmd8owFOF5ols5Y-83" value="Подписать договор" style="rounded=1;whiteSpace=wrap;html=1;" parent="Z72Pltmd8owFOF5ols5Y-11" vertex="1">
          <mxGeometry x="402" y="1900" width="120" height="60" as="geometry" />
        </mxCell>
        <mxCell id="Z72Pltmd8owFOF5ols5Y-84" value="" style="points=[[0.145,0.145,0],[0.5,0,0],[0.855,0.145,0],[1,0.5,0],[0.855,0.855,0],[0.5,1,0],[0.145,0.855,0],[0,0.5,0]];shape=mxgraph.bpmn.event;html=1;verticalLabelPosition=bottom;labelBackgroundColor=#ffffff;verticalAlign=top;align=center;perimeter=ellipsePerimeter;outlineConnect=0;aspect=fixed;outline=end;symbol=terminate2;" parent="Z72Pltmd8owFOF5ols5Y-11" vertex="1">
          <mxGeometry x="437" y="1990" width="50" height="50" as="geometry" />
        </mxCell>
        <mxCell id="Z72Pltmd8owFOF5ols5Y-85" value="" style="endArrow=none;dashed=1;html=1;rounded=0;entryX=0.732;entryY=0;entryDx=0;entryDy=0;exitX=0.733;exitY=1;exitDx=0;exitDy=0;entryPerimeter=0;exitPerimeter=0;" parent="1" source="Z72Pltmd8owFOF5ols5Y-11" target="Z72Pltmd8owFOF5ols5Y-11" edge="1">
          <mxGeometry width="50" height="50" relative="1" as="geometry">
            <mxPoint x="835" y="1860.0000000000005" as="sourcePoint" />
            <mxPoint x="835" y="90" as="targetPoint" />
          </mxGeometry>
        </mxCell>
        <mxCell id="Z72Pltmd8owFOF5ols5Y-86" value="&lt;span style=&quot;font-size: 24px&quot;&gt;&lt;b&gt;Менеджер&lt;/b&gt;&lt;/span&gt;" style="text;html=1;align=center;verticalAlign=middle;resizable=0;points=[];autosize=1;strokeColor=none;fillColor=none;" parent="1" vertex="1">
          <mxGeometry x="950" y="102.99999999999977" width="140" height="20" as="geometry" />
        </mxCell>
        <mxCell id="Z72Pltmd8owFOF5ols5Y-87" value="&lt;span style=&quot;font-size: 24px&quot;&gt;&lt;b&gt;Служба поддержки&lt;/b&gt;&lt;/span&gt;" style="text;html=1;align=center;verticalAlign=middle;resizable=0;points=[];autosize=1;strokeColor=none;fillColor=none;" parent="1" vertex="1">
          <mxGeometry x="1285" y="102.99999999999977" width="240" height="20" as="geometry" />
        </mxCell>
        <mxCell id="Z72Pltmd8owFOF5ols5Y-88" style="edgeStyle=orthogonalEdgeStyle;rounded=0;orthogonalLoop=1;jettySize=auto;html=1;exitX=0.5;exitY=1;exitDx=0;exitDy=0;entryX=0.5;entryY=0;entryDx=0;entryDy=0;entryPerimeter=0;" parent="1" source="Z72Pltmd8owFOF5ols5Y-51" target="Z72Pltmd8owFOF5ols5Y-6" edge="1">
          <mxGeometry relative="1" as="geometry" />
        </mxCell>
      </root>
    </mxGraphModel>
  </diagram>
  <diagram id="G_Rpf35-Yo--BsGjeERG" name="Страница — 2">
    <mxGraphModel dx="1691" dy="338" grid="1" gridSize="10" guides="1" tooltips="1" connect="1" arrows="1" fold="1" page="1" pageScale="1" pageWidth="827" pageHeight="1169" math="0" shadow="0">
      <root>
        <mxCell id="0" />
        <mxCell id="1" parent="0" />
        <mxCell id="_2fCDNMk0_y_gUuGht7o-1" value="Manager" style="swimlane;fontStyle=1;align=center;verticalAlign=top;childLayout=stackLayout;horizontal=1;startSize=26;horizontalStack=0;resizeParent=1;resizeParentMax=0;resizeLast=0;collapsible=1;marginBottom=0;" parent="1" vertex="1">
          <mxGeometry x="200" y="310" width="300" height="140" as="geometry" />
        </mxCell>
        <mxCell id="_2fCDNMk0_y_gUuGht7o-2" value="+ manager ID:Int&#xa;+ Name:String" style="text;strokeColor=none;fillColor=none;align=left;verticalAlign=top;spacingLeft=4;spacingRight=4;overflow=hidden;rotatable=0;points=[[0,0.5],[1,0.5]];portConstraint=eastwest;" parent="_2fCDNMk0_y_gUuGht7o-1" vertex="1">
          <mxGeometry y="26" width="300" height="34" as="geometry" />
        </mxCell>
        <mxCell id="_2fCDNMk0_y_gUuGht7o-3" value="" style="line;strokeWidth=1;fillColor=none;align=left;verticalAlign=middle;spacingTop=-1;spacingLeft=3;spacingRight=3;rotatable=0;labelPosition=right;points=[];portConstraint=eastwest;" parent="_2fCDNMk0_y_gUuGht7o-1" vertex="1">
          <mxGeometry y="60" width="300" height="8" as="geometry" />
        </mxCell>
        <mxCell id="_2fCDNMk0_y_gUuGht7o-4" value="+Assisting clients in completing applications &#xa;for lending:String&#xa;+Execution of a loan agreement;:String&#xa;+Notice of loan refusal.:String" style="text;strokeColor=none;fillColor=none;align=left;verticalAlign=top;spacingLeft=4;spacingRight=4;overflow=hidden;rotatable=0;points=[[0,0.5],[1,0.5]];portConstraint=eastwest;" parent="_2fCDNMk0_y_gUuGht7o-1" vertex="1">
          <mxGeometry y="68" width="300" height="72" as="geometry" />
        </mxCell>
        <mxCell id="_2fCDNMk0_y_gUuGht7o-5" value="Database" style="swimlane;fontStyle=1;align=center;verticalAlign=top;childLayout=stackLayout;horizontal=1;startSize=26;horizontalStack=0;resizeParent=1;resizeParentMax=0;resizeLast=0;collapsible=1;marginBottom=0;" parent="1" vertex="1">
          <mxGeometry x="210" y="90" width="280" height="140" as="geometry" />
        </mxCell>
        <mxCell id="_2fCDNMk0_y_gUuGht7o-6" value="- database ID:Intenger" style="text;strokeColor=none;fillColor=none;align=left;verticalAlign=top;spacingLeft=4;spacingRight=4;overflow=hidden;rotatable=0;points=[[0,0.5],[1,0.5]];portConstraint=eastwest;" parent="_2fCDNMk0_y_gUuGht7o-5" vertex="1">
          <mxGeometry y="26" width="280" height="24" as="geometry" />
        </mxCell>
        <mxCell id="_2fCDNMk0_y_gUuGht7o-7" value="" style="line;strokeWidth=1;fillColor=none;align=left;verticalAlign=middle;spacingTop=-1;spacingLeft=3;spacingRight=3;rotatable=0;labelPosition=right;points=[];portConstraint=eastwest;" parent="_2fCDNMk0_y_gUuGht7o-5" vertex="1">
          <mxGeometry y="50" width="280" height="8" as="geometry" />
        </mxCell>
        <mxCell id="_2fCDNMk0_y_gUuGht7o-8" value="- Storing client information():String&#xa;- Storing client documents():String&#xa;- Loan history storage():String&#xa;- Storing account information():String&#xa;- Storing information about cards():String" style="text;strokeColor=none;fillColor=none;align=left;verticalAlign=top;spacingLeft=4;spacingRight=4;overflow=hidden;rotatable=0;points=[[0,0.5],[1,0.5]];portConstraint=eastwest;" parent="_2fCDNMk0_y_gUuGht7o-5" vertex="1">
          <mxGeometry y="58" width="280" height="82" as="geometry" />
        </mxCell>
        <mxCell id="_2fCDNMk0_y_gUuGht7o-9" value="Support service" style="swimlane;fontStyle=1;align=center;verticalAlign=top;childLayout=stackLayout;horizontal=1;startSize=26;horizontalStack=0;resizeParent=1;resizeParentMax=0;resizeLast=0;collapsible=1;marginBottom=0;" parent="1" vertex="1">
          <mxGeometry x="200" y="490" width="280" height="150" as="geometry" />
        </mxCell>
        <mxCell id="_2fCDNMk0_y_gUuGht7o-10" value="+ Name:String&#xa;+ DoB:Int&#xa;+ Docs:String" style="text;strokeColor=none;fillColor=none;align=left;verticalAlign=top;spacingLeft=4;spacingRight=4;overflow=hidden;rotatable=0;points=[[0,0.5],[1,0.5]];portConstraint=eastwest;" parent="_2fCDNMk0_y_gUuGht7o-9" vertex="1">
          <mxGeometry y="26" width="280" height="54" as="geometry" />
        </mxCell>
        <mxCell id="_2fCDNMk0_y_gUuGht7o-11" value="" style="line;strokeWidth=1;fillColor=none;align=left;verticalAlign=middle;spacingTop=-1;spacingLeft=3;spacingRight=3;rotatable=0;labelPosition=right;points=[];portConstraint=eastwest;" parent="_2fCDNMk0_y_gUuGht7o-9" vertex="1">
          <mxGeometry y="80" width="280" height="8" as="geometry" />
        </mxCell>
        <mxCell id="_2fCDNMk0_y_gUuGht7o-12" value="+Approve loans;:String&#xa;+Refuse loan;:String&#xa;+Check borrower applications:String" style="text;strokeColor=none;fillColor=none;align=left;verticalAlign=top;spacingLeft=4;spacingRight=4;overflow=hidden;rotatable=0;points=[[0,0.5],[1,0.5]];portConstraint=eastwest;" parent="_2fCDNMk0_y_gUuGht7o-9" vertex="1">
          <mxGeometry y="88" width="280" height="62" as="geometry" />
        </mxCell>
        <mxCell id="_2fCDNMk0_y_gUuGht7o-13" value="&quot;interface&quot;&#xa;Register in the system" style="swimlane;fontStyle=1;align=center;verticalAlign=top;childLayout=stackLayout;horizontal=1;startSize=40;horizontalStack=0;resizeParent=1;resizeParentMax=0;resizeLast=0;collapsible=1;marginBottom=0;" parent="1" vertex="1">
          <mxGeometry x="-152" y="750" width="230" height="100" as="geometry" />
        </mxCell>
        <mxCell id="_2fCDNMk0_y_gUuGht7o-14" value="+ Enter login and password:String&#xa;+ Add required documents:String&#xa;+ Add contact information:String" style="text;strokeColor=none;fillColor=none;align=left;verticalAlign=top;spacingLeft=4;spacingRight=4;overflow=hidden;rotatable=0;points=[[0,0.5],[1,0.5]];portConstraint=eastwest;" parent="_2fCDNMk0_y_gUuGht7o-13" vertex="1">
          <mxGeometry y="40" width="230" height="60" as="geometry" />
        </mxCell>
        <mxCell id="_2fCDNMk0_y_gUuGht7o-15" value="&quot;interface&quot;&#xa;Check client account status" style="swimlane;fontStyle=1;align=center;verticalAlign=top;childLayout=stackLayout;horizontal=1;startSize=33;horizontalStack=0;resizeParent=1;resizeParentMax=0;resizeLast=0;collapsible=1;marginBottom=0;" parent="1" vertex="1">
          <mxGeometry x="-162" y="440" width="250" height="90" as="geometry" />
        </mxCell>
        <mxCell id="_2fCDNMk0_y_gUuGht7o-16" value="+Credit status:String&#xa;+Check history:String&#xa;+Check balance:Int" style="text;strokeColor=none;fillColor=none;align=left;verticalAlign=top;spacingLeft=4;spacingRight=4;overflow=hidden;rotatable=0;points=[[0,0.5],[1,0.5]];portConstraint=eastwest;" parent="_2fCDNMk0_y_gUuGht7o-15" vertex="1">
          <mxGeometry y="33" width="250" height="57" as="geometry" />
        </mxCell>
        <mxCell id="_2fCDNMk0_y_gUuGht7o-17" value="&quot;interface&quot;&#xa;Apply for a loan" style="swimlane;fontStyle=1;align=center;verticalAlign=top;childLayout=stackLayout;horizontal=1;startSize=40;horizontalStack=0;resizeParent=1;resizeParentMax=0;resizeLast=0;collapsible=1;marginBottom=0;" parent="1" vertex="1">
          <mxGeometry x="560" y="620" width="210" height="110" as="geometry" />
        </mxCell>
        <mxCell id="_2fCDNMk0_y_gUuGht7o-18" value="+ Add name:String&#xa;+ Leave contact information:String&#xa;+ Select the amount and type of loan:Int&#xa;+ Provide documents:String" style="text;strokeColor=none;fillColor=none;align=left;verticalAlign=top;spacingLeft=4;spacingRight=4;overflow=hidden;rotatable=0;points=[[0,0.5],[1,0.5]];portConstraint=eastwest;" parent="_2fCDNMk0_y_gUuGht7o-17" vertex="1">
          <mxGeometry y="40" width="210" height="70" as="geometry" />
        </mxCell>
        <mxCell id="_2fCDNMk0_y_gUuGht7o-19" value="Application" style="swimlane;fontStyle=1;align=center;verticalAlign=top;childLayout=stackLayout;horizontal=1;startSize=26;horizontalStack=0;resizeParent=1;resizeParentMax=0;resizeLast=0;collapsible=1;marginBottom=0;" parent="1" vertex="1">
          <mxGeometry x="600" y="281.5" width="160" height="110" as="geometry" />
        </mxCell>
        <mxCell id="_2fCDNMk0_y_gUuGht7o-20" value="+ Client&#39;s full name:String&#xa;+ Documents:String&#xa;+ Date of birth:Int&#xa;+ Reason:String&#xa;+ Payout amount:Int" style="text;strokeColor=none;fillColor=none;align=left;verticalAlign=top;spacingLeft=4;spacingRight=4;overflow=hidden;rotatable=0;points=[[0,0.5],[1,0.5]];portConstraint=eastwest;" parent="_2fCDNMk0_y_gUuGht7o-19" vertex="1">
          <mxGeometry y="26" width="160" height="84" as="geometry" />
        </mxCell>
        <mxCell id="_2fCDNMk0_y_gUuGht7o-21" value="Аккаунт" style="swimlane;fontStyle=1;align=center;verticalAlign=top;childLayout=stackLayout;horizontal=1;startSize=26;horizontalStack=0;resizeParent=1;resizeParentMax=0;resizeLast=0;collapsible=1;marginBottom=0;" parent="1" vertex="1">
          <mxGeometry x="-100" y="970" width="180" height="110" as="geometry" />
        </mxCell>
        <mxCell id="_2fCDNMk0_y_gUuGht7o-22" value="+ Name:String&#xa;+ Account ID:Int&#xa;+ Passport number and series:Int&#xa;+ Insurance:Int&#xa;+ Date of birth:Int" style="text;strokeColor=none;fillColor=none;align=left;verticalAlign=top;spacingLeft=4;spacingRight=4;overflow=hidden;rotatable=0;points=[[0,0.5],[1,0.5]];portConstraint=eastwest;" parent="_2fCDNMk0_y_gUuGht7o-21" vertex="1">
          <mxGeometry y="26" width="180" height="84" as="geometry" />
        </mxCell>
        <mxCell id="_2fCDNMk0_y_gUuGht7o-23" value="Docs" style="swimlane;fontStyle=1;align=center;verticalAlign=top;childLayout=stackLayout;horizontal=1;startSize=26;horizontalStack=0;resizeParent=1;resizeParentMax=0;resizeLast=0;collapsible=1;marginBottom=0;" parent="1" vertex="1">
          <mxGeometry x="590" y="456.5" width="160" height="80" as="geometry" />
        </mxCell>
        <mxCell id="_2fCDNMk0_y_gUuGht7o-24" value="+Passport:String&#xa;+Income certificate:String&#xa;+Insurance:String" style="text;strokeColor=none;fillColor=none;align=left;verticalAlign=top;spacingLeft=4;spacingRight=4;overflow=hidden;rotatable=0;points=[[0,0.5],[1,0.5]];portConstraint=eastwest;" parent="_2fCDNMk0_y_gUuGht7o-23" vertex="1">
          <mxGeometry y="26" width="160" height="54" as="geometry" />
        </mxCell>
        <mxCell id="_2fCDNMk0_y_gUuGht7o-25" value="Клиент" style="swimlane;fontStyle=1;align=center;verticalAlign=top;childLayout=stackLayout;horizontal=1;startSize=26;horizontalStack=0;resizeParent=1;resizeParentMax=0;resizeLast=0;collapsible=1;marginBottom=0;" parent="1" vertex="1">
          <mxGeometry x="227" y="750" width="280" height="240" as="geometry" />
        </mxCell>
        <mxCell id="_2fCDNMk0_y_gUuGht7o-26" value="+ Name:String&#xa;+ DoB:Int&#xa;+ Docs:String" style="text;strokeColor=none;fillColor=none;align=left;verticalAlign=top;spacingLeft=4;spacingRight=4;overflow=hidden;rotatable=0;points=[[0,0.5],[1,0.5]];portConstraint=eastwest;" parent="_2fCDNMk0_y_gUuGht7o-25" vertex="1">
          <mxGeometry y="26" width="280" height="54" as="geometry" />
        </mxCell>
        <mxCell id="_2fCDNMk0_y_gUuGht7o-27" value="" style="line;strokeWidth=1;fillColor=none;align=left;verticalAlign=middle;spacingTop=-1;spacingLeft=3;spacingRight=3;rotatable=0;labelPosition=right;points=[];portConstraint=eastwest;" parent="_2fCDNMk0_y_gUuGht7o-25" vertex="1">
          <mxGeometry y="80" width="280" height="8" as="geometry" />
        </mxCell>
        <mxCell id="_2fCDNMk0_y_gUuGht7o-28" value="+Register in the system :String&#xa;+Log in to your account ;:String&#xa;+Submit a loan application:String&#xa;+Sign the loan agreement.:String&#xa;+Find out account information:String&#xa;+Log out of account:String&#xa;+Leave a request to close an account:String&#xa;+Leave a request for a card:String&#xa;+Leave a request for card reissue:String&#xa;+Contact support:String" style="text;strokeColor=none;fillColor=none;align=left;verticalAlign=top;spacingLeft=4;spacingRight=4;overflow=hidden;rotatable=0;points=[[0,0.5],[1,0.5]];portConstraint=eastwest;" parent="_2fCDNMk0_y_gUuGht7o-25" vertex="1">
          <mxGeometry y="88" width="280" height="152" as="geometry" />
        </mxCell>
        <mxCell id="_2fCDNMk0_y_gUuGht7o-29" value="Bank account" style="swimlane;fontStyle=1;align=center;verticalAlign=top;childLayout=stackLayout;horizontal=1;startSize=26;horizontalStack=0;resizeParent=1;resizeParentMax=0;resizeLast=0;collapsible=1;marginBottom=0;" parent="1" vertex="1">
          <mxGeometry x="190" y="1060" width="210" height="90" as="geometry" />
        </mxCell>
        <mxCell id="_2fCDNMk0_y_gUuGht7o-30" value="+full name:String&#xa;+Account ID:Int&#xa;+Passport number and series:Int&#xa;+Cash on account:Int" style="text;strokeColor=none;fillColor=none;align=left;verticalAlign=top;spacingLeft=4;spacingRight=4;overflow=hidden;rotatable=0;points=[[0,0.5],[1,0.5]];portConstraint=eastwest;" parent="_2fCDNMk0_y_gUuGht7o-29" vertex="1">
          <mxGeometry y="26" width="210" height="64" as="geometry" />
        </mxCell>
        <mxCell id="_2fCDNMk0_y_gUuGht7o-31" value="Loan agreement" style="swimlane;fontStyle=1;align=center;verticalAlign=top;childLayout=stackLayout;horizontal=1;startSize=26;horizontalStack=0;resizeParent=1;resizeParentMax=0;resizeLast=0;collapsible=1;marginBottom=0;" parent="1" vertex="1">
          <mxGeometry x="540" y="1020" width="160" height="80" as="geometry" />
        </mxCell>
        <mxCell id="_2fCDNMk0_y_gUuGht7o-32" value="+Name:String&#xa;+ID account:Int&#xa;+ Application number" style="text;strokeColor=none;fillColor=none;align=left;verticalAlign=top;spacingLeft=4;spacingRight=4;overflow=hidden;rotatable=0;points=[[0,0.5],[1,0.5]];portConstraint=eastwest;" parent="_2fCDNMk0_y_gUuGht7o-31" vertex="1">
          <mxGeometry y="26" width="160" height="54" as="geometry" />
        </mxCell>
        <mxCell id="_2fCDNMk0_y_gUuGht7o-33" value="&quot;interface&quot;&#xa;Find out account information" style="swimlane;fontStyle=1;align=center;verticalAlign=top;childLayout=stackLayout;horizontal=1;startSize=40;horizontalStack=0;resizeParent=1;resizeParentMax=0;resizeLast=0;collapsible=1;marginBottom=0;" parent="1" vertex="1">
          <mxGeometry x="-142" y="605" width="230" height="100" as="geometry" />
        </mxCell>
        <mxCell id="_2fCDNMk0_y_gUuGht7o-34" value="+Find out details:String&#xa;+Find out transaction history:String&#xa;+Find out card balance:Int" style="text;strokeColor=none;fillColor=none;align=left;verticalAlign=top;spacingLeft=4;spacingRight=4;overflow=hidden;rotatable=0;points=[[0,0.5],[1,0.5]];portConstraint=eastwest;" parent="1" vertex="1">
          <mxGeometry x="-142" y="645" width="230" height="60" as="geometry" />
        </mxCell>
        <mxCell id="_2fCDNMk0_y_gUuGht7o-35" value="" style="endArrow=diamondThin;endFill=1;endSize=24;html=1;rounded=0;exitX=0;exitY=0.5;exitDx=0;exitDy=0;edgeStyle=orthogonalEdgeStyle;entryX=1;entryY=0.5;entryDx=0;entryDy=0;" parent="1" source="_2fCDNMk0_y_gUuGht7o-30" target="_2fCDNMk0_y_gUuGht7o-22" edge="1">
          <mxGeometry width="160" relative="1" as="geometry">
            <mxPoint x="420" y="660.9999999999995" as="sourcePoint" />
            <mxPoint x="370" y="520" as="targetPoint" />
            <Array as="points">
              <mxPoint x="140" y="1118" />
              <mxPoint x="140" y="1038" />
            </Array>
          </mxGeometry>
        </mxCell>
        <mxCell id="_2fCDNMk0_y_gUuGht7o-36" value="" style="endArrow=diamondThin;endFill=1;endSize=24;html=1;rounded=0;exitX=0.782;exitY=1.016;exitDx=0;exitDy=0;edgeStyle=orthogonalEdgeStyle;entryX=1;entryY=0.5;entryDx=0;entryDy=0;exitPerimeter=0;" parent="1" source="_2fCDNMk0_y_gUuGht7o-18" target="_2fCDNMk0_y_gUuGht7o-32" edge="1">
          <mxGeometry width="160" relative="1" as="geometry">
            <mxPoint x="90" y="1048" as="sourcePoint" />
            <mxPoint x="200" y="1128" as="targetPoint" />
            <Array as="points">
              <mxPoint x="724" y="770" />
              <mxPoint x="810" y="770" />
              <mxPoint x="810" y="1073" />
            </Array>
          </mxGeometry>
        </mxCell>
        <mxCell id="_2fCDNMk0_y_gUuGht7o-37" value="" style="endArrow=diamondThin;endFill=1;endSize=24;html=1;rounded=0;exitX=1;exitY=0.5;exitDx=0;exitDy=0;edgeStyle=orthogonalEdgeStyle;entryX=0.75;entryY=0;entryDx=0;entryDy=0;" parent="1" source="_2fCDNMk0_y_gUuGht7o-20" target="_2fCDNMk0_y_gUuGht7o-17" edge="1">
          <mxGeometry width="160" relative="1" as="geometry">
            <mxPoint x="780" y="704.9999999999998" as="sourcePoint" />
            <mxPoint x="710" y="1083" as="targetPoint" />
            <Array as="points">
              <mxPoint x="800" y="350" />
              <mxPoint x="800" y="580" />
              <mxPoint x="718" y="580" />
            </Array>
          </mxGeometry>
        </mxCell>
        <mxCell id="_2fCDNMk0_y_gUuGht7o-38" value="" style="endArrow=diamondThin;endFill=1;endSize=24;html=1;rounded=0;exitX=1;exitY=0.5;exitDx=0;exitDy=0;edgeStyle=orthogonalEdgeStyle;entryX=0.5;entryY=0;entryDx=0;entryDy=0;" parent="1" source="_2fCDNMk0_y_gUuGht7o-24" target="_2fCDNMk0_y_gUuGht7o-17" edge="1">
          <mxGeometry width="160" relative="1" as="geometry">
            <mxPoint x="770" y="359.5" as="sourcePoint" />
            <mxPoint x="727.5" y="629.9999999999998" as="targetPoint" />
            <Array as="points">
              <mxPoint x="780" y="510" />
              <mxPoint x="780" y="560" />
              <mxPoint x="665" y="560" />
            </Array>
          </mxGeometry>
        </mxCell>
        <mxCell id="_2fCDNMk0_y_gUuGht7o-39" value="" style="endArrow=block;endSize=16;endFill=0;html=1;rounded=0;exitX=1;exitY=0.5;exitDx=0;exitDy=0;edgeStyle=orthogonalEdgeStyle;entryX=1;entryY=0;entryDx=0;entryDy=0;" parent="1" source="_2fCDNMk0_y_gUuGht7o-4" target="_2fCDNMk0_y_gUuGht7o-25" edge="1">
          <mxGeometry width="160" relative="1" as="geometry">
            <mxPoint x="-190" y="310" as="sourcePoint" />
            <mxPoint x="510" y="810" as="targetPoint" />
            <Array as="points">
              <mxPoint x="507" y="409" />
            </Array>
          </mxGeometry>
        </mxCell>
        <mxCell id="_2fCDNMk0_y_gUuGht7o-40" value="" style="endArrow=block;endSize=16;endFill=0;html=1;rounded=0;exitX=1;exitY=0.5;exitDx=0;exitDy=0;entryX=0.75;entryY=0;entryDx=0;entryDy=0;edgeStyle=orthogonalEdgeStyle;" parent="1" source="_2fCDNMk0_y_gUuGht7o-10" target="_2fCDNMk0_y_gUuGht7o-25" edge="1">
          <mxGeometry width="160" relative="1" as="geometry">
            <mxPoint x="510" y="419" as="sourcePoint" />
            <mxPoint x="517" y="924.0000000000002" as="targetPoint" />
            <Array as="points">
              <mxPoint x="490" y="543" />
              <mxPoint x="490" y="690" />
              <mxPoint x="437" y="690" />
            </Array>
          </mxGeometry>
        </mxCell>
        <mxCell id="_2fCDNMk0_y_gUuGht7o-41" value="Use" style="endArrow=open;endSize=12;dashed=1;html=1;rounded=0;exitX=0;exitY=0.5;exitDx=0;exitDy=0;edgeStyle=orthogonalEdgeStyle;entryX=0;entryY=0.5;entryDx=0;entryDy=0;" parent="1" source="_2fCDNMk0_y_gUuGht7o-8" target="_2fCDNMk0_y_gUuGht7o-16" edge="1">
          <mxGeometry width="160" relative="1" as="geometry">
            <mxPoint x="340" y="330" as="sourcePoint" />
            <mxPoint x="760" y="964.9999999999998" as="targetPoint" />
            <Array as="points">
              <mxPoint x="-200" y="189" />
              <mxPoint x="-200" y="501" />
            </Array>
          </mxGeometry>
        </mxCell>
        <mxCell id="_2fCDNMk0_y_gUuGht7o-42" value="Use" style="endArrow=open;endSize=12;dashed=1;html=1;rounded=0;exitX=-0.001;exitY=0.115;exitDx=0;exitDy=0;edgeStyle=orthogonalEdgeStyle;exitPerimeter=0;" parent="1" source="_2fCDNMk0_y_gUuGht7o-8" edge="1">
          <mxGeometry width="160" relative="1" as="geometry">
            <mxPoint x="220" y="199" as="sourcePoint" />
            <mxPoint x="-152" y="660" as="targetPoint" />
            <Array as="points">
              <mxPoint x="210" y="150" />
              <mxPoint x="-260" y="150" />
              <mxPoint x="-260" y="660" />
            </Array>
          </mxGeometry>
        </mxCell>
        <mxCell id="_2fCDNMk0_y_gUuGht7o-43" value="Use" style="endArrow=open;endSize=12;dashed=1;html=1;rounded=0;exitX=0;exitY=0.5;exitDx=0;exitDy=0;edgeStyle=orthogonalEdgeStyle;entryX=0;entryY=0.5;entryDx=0;entryDy=0;" parent="1" source="_2fCDNMk0_y_gUuGht7o-6" target="_2fCDNMk0_y_gUuGht7o-14" edge="1">
          <mxGeometry width="160" relative="1" as="geometry">
            <mxPoint x="230" y="209" as="sourcePoint" />
            <mxPoint x="-142" y="521.5" as="targetPoint" />
            <Array as="points">
              <mxPoint x="-320" y="128" />
              <mxPoint x="-320" y="820" />
            </Array>
          </mxGeometry>
        </mxCell>
        <mxCell id="_2fCDNMk0_y_gUuGht7o-44" value="Use" style="endArrow=open;endSize=12;dashed=1;html=1;rounded=0;exitX=1;exitY=0.5;exitDx=0;exitDy=0;edgeStyle=orthogonalEdgeStyle;entryX=1;entryY=0.5;entryDx=0;entryDy=0;" parent="1" source="_2fCDNMk0_y_gUuGht7o-8" target="_2fCDNMk0_y_gUuGht7o-18" edge="1">
          <mxGeometry width="160" relative="1" as="geometry">
            <mxPoint x="220" y="199" as="sourcePoint" />
            <mxPoint x="-152" y="511.5" as="targetPoint" />
            <Array as="points">
              <mxPoint x="860" y="189" />
              <mxPoint x="860" y="695" />
            </Array>
          </mxGeometry>
        </mxCell>
        <mxCell id="_2fCDNMk0_y_gUuGht7o-45" value="" style="endArrow=block;dashed=1;endFill=0;endSize=12;html=1;rounded=0;exitX=0;exitY=0.5;exitDx=0;exitDy=0;entryX=1;entryY=0.5;entryDx=0;entryDy=0;edgeStyle=orthogonalEdgeStyle;" parent="1" source="_2fCDNMk0_y_gUuGht7o-4" target="_2fCDNMk0_y_gUuGht7o-16" edge="1">
          <mxGeometry width="160" relative="1" as="geometry">
            <mxPoint x="340" y="560" as="sourcePoint" />
            <mxPoint x="520" y="783.9999999999998" as="targetPoint" />
            <Array as="points">
              <mxPoint x="150" y="409" />
              <mxPoint x="150" y="501" />
            </Array>
          </mxGeometry>
        </mxCell>
        <mxCell id="_2fCDNMk0_y_gUuGht7o-46" value="" style="endArrow=block;dashed=1;endFill=0;endSize=12;html=1;rounded=0;exitX=0;exitY=0.5;exitDx=0;exitDy=0;entryX=1;entryY=0.5;entryDx=0;entryDy=0;edgeStyle=orthogonalEdgeStyle;" parent="1" source="_2fCDNMk0_y_gUuGht7o-12" target="_2fCDNMk0_y_gUuGht7o-34" edge="1">
          <mxGeometry width="160" relative="1" as="geometry">
            <mxPoint x="210" y="419" as="sourcePoint" />
            <mxPoint x="98" y="511.5" as="targetPoint" />
            <Array as="points">
              <mxPoint x="170" y="609" />
              <mxPoint x="170" y="675" />
            </Array>
          </mxGeometry>
        </mxCell>
        <mxCell id="_2fCDNMk0_y_gUuGht7o-47" value="" style="endArrow=classic;html=1;rounded=0;entryX=0;entryY=0.5;entryDx=0;entryDy=0;edgeStyle=orthogonalEdgeStyle;exitX=1;exitY=0.5;exitDx=0;exitDy=0;" parent="1" source="_2fCDNMk0_y_gUuGht7o-26" target="_2fCDNMk0_y_gUuGht7o-20" edge="1">
          <mxGeometry width="50" height="50" relative="1" as="geometry">
            <mxPoint x="400" y="841.52" as="sourcePoint" />
            <mxPoint x="472.02" y="560" as="targetPoint" />
            <Array as="points">
              <mxPoint x="507" y="800" />
              <mxPoint x="530" y="800" />
              <mxPoint x="530" y="350" />
            </Array>
          </mxGeometry>
        </mxCell>
        <mxCell id="_2fCDNMk0_y_gUuGht7o-48" value="" style="endArrow=classic;html=1;rounded=0;entryX=0;entryY=0.5;entryDx=0;entryDy=0;edgeStyle=orthogonalEdgeStyle;" parent="1" source="_2fCDNMk0_y_gUuGht7o-28" target="_2fCDNMk0_y_gUuGht7o-32" edge="1">
          <mxGeometry width="50" height="50" relative="1" as="geometry">
            <mxPoint x="370" y="1101.52" as="sourcePoint" />
            <mxPoint x="442.02" y="820" as="targetPoint" />
            <Array as="points">
              <mxPoint x="440" y="1073" />
            </Array>
          </mxGeometry>
        </mxCell>
        <mxCell id="_2fCDNMk0_y_gUuGht7o-49" value="" style="endArrow=classic;html=1;rounded=0;entryX=0.75;entryY=0;entryDx=0;entryDy=0;edgeStyle=orthogonalEdgeStyle;exitX=0.398;exitY=0.999;exitDx=0;exitDy=0;exitPerimeter=0;" parent="1" source="_2fCDNMk0_y_gUuGht7o-28" target="_2fCDNMk0_y_gUuGht7o-29" edge="1">
          <mxGeometry width="50" height="50" relative="1" as="geometry">
            <mxPoint x="450" y="1000" as="sourcePoint" />
            <mxPoint x="550" y="1083" as="targetPoint" />
            <Array as="points">
              <mxPoint x="348" y="990" />
            </Array>
          </mxGeometry>
        </mxCell>
        <mxCell id="_2fCDNMk0_y_gUuGht7o-50" value="" style="endArrow=classic;html=1;rounded=0;edgeStyle=orthogonalEdgeStyle;exitX=0;exitY=0.5;exitDx=0;exitDy=0;" parent="1" source="_2fCDNMk0_y_gUuGht7o-28" edge="1">
          <mxGeometry width="50" height="50" relative="1" as="geometry">
            <mxPoint x="460" y="1010" as="sourcePoint" />
            <mxPoint x="80" y="985" as="targetPoint" />
            <Array as="points">
              <mxPoint x="200" y="914" />
              <mxPoint x="200" y="985" />
            </Array>
          </mxGeometry>
        </mxCell>
        <mxCell id="_2fCDNMk0_y_gUuGht7o-51" value="" style="endArrow=block;dashed=1;endFill=0;endSize=12;html=1;rounded=0;exitX=0;exitY=0.5;exitDx=0;exitDy=0;entryX=1;entryY=0.25;entryDx=0;entryDy=0;edgeStyle=orthogonalEdgeStyle;" parent="1" source="_2fCDNMk0_y_gUuGht7o-26" target="_2fCDNMk0_y_gUuGht7o-13" edge="1">
          <mxGeometry width="160" relative="1" as="geometry">
            <mxPoint x="210" y="619" as="sourcePoint" />
            <mxPoint x="98" y="685" as="targetPoint" />
            <Array as="points">
              <mxPoint x="210" y="803" />
              <mxPoint x="210" y="770" />
              <mxPoint x="78" y="770" />
            </Array>
          </mxGeometry>
        </mxCell>
        <mxCell id="_2fCDNMk0_y_gUuGht7o-52" value="" style="endArrow=classic;html=1;rounded=0;edgeStyle=orthogonalEdgeStyle;entryX=0;entryY=0.5;entryDx=0;entryDy=0;" parent="1" source="_2fCDNMk0_y_gUuGht7o-28" target="_2fCDNMk0_y_gUuGht7o-24" edge="1">
          <mxGeometry width="50" height="50" relative="1" as="geometry">
            <mxPoint x="237" y="924" as="sourcePoint" />
            <mxPoint x="90" y="995" as="targetPoint" />
            <Array as="points">
              <mxPoint x="550" y="924" />
              <mxPoint x="550" y="510" />
            </Array>
          </mxGeometry>
        </mxCell>
      </root>
    </mxGraphModel>
  </diagram>
  <diagram id="5AqWr_RwLrVZkNjkhD3g" name="Страница — 3">
    <mxGraphModel dx="2587" dy="637" grid="1" gridSize="10" guides="1" tooltips="1" connect="1" arrows="1" fold="1" page="1" pageScale="1" pageWidth="827" pageHeight="1169" math="0" shadow="0">
      <root>
        <mxCell id="0" />
        <mxCell id="1" parent="0" />
        <mxCell id="7fuNwRUUf65aUAYO2YvY-1" value="&lt;span style=&quot;font-family: &amp;#34;arial&amp;#34; ; font-size: 13px ; text-align: left ; background-color: rgb(255 , 255 , 255)&quot;&gt;Проектирование интернет-кабинета клиента банка&lt;/span&gt;" style="text;html=1;strokeColor=none;fillColor=none;align=center;verticalAlign=middle;whiteSpace=wrap;rounded=0;" parent="1" vertex="1">
          <mxGeometry x="184" y="40" width="510" height="30" as="geometry" />
        </mxCell>
        <mxCell id="7fuNwRUUf65aUAYO2YvY-2" style="edgeStyle=orthogonalEdgeStyle;rounded=0;orthogonalLoop=1;jettySize=auto;html=1;exitX=0.75;exitY=1;exitDx=0;exitDy=0;entryX=0;entryY=0.885;entryDx=0;entryDy=0;entryPerimeter=0;" parent="1" source="7fuNwRUUf65aUAYO2YvY-4" target="7fuNwRUUf65aUAYO2YvY-8" edge="1">
          <mxGeometry relative="1" as="geometry">
            <mxPoint x="-152.42000000000007" y="759.9999999999998" as="targetPoint" />
          </mxGeometry>
        </mxCell>
        <mxCell id="7fuNwRUUf65aUAYO2YvY-3" style="edgeStyle=orthogonalEdgeStyle;rounded=0;orthogonalLoop=1;jettySize=auto;html=1;exitX=1.001;exitY=0.873;exitDx=0;exitDy=0;entryX=0.5;entryY=1;entryDx=0;entryDy=0;exitPerimeter=0;" parent="1" source="7fuNwRUUf65aUAYO2YvY-4" target="7fuNwRUUf65aUAYO2YvY-13" edge="1">
          <mxGeometry relative="1" as="geometry">
            <Array as="points">
              <mxPoint x="510" y="870" />
              <mxPoint x="510" y="780" />
            </Array>
          </mxGeometry>
        </mxCell>
        <mxCell id="7fuNwRUUf65aUAYO2YvY-4" value="" style="rounded=1;whiteSpace=wrap;html=1;fillColor=none;" parent="1" vertex="1">
          <mxGeometry x="-1220" y="424.99" width="1425" height="510" as="geometry" />
        </mxCell>
        <mxCell id="7fuNwRUUf65aUAYO2YvY-5" style="edgeStyle=orthogonalEdgeStyle;rounded=0;orthogonalLoop=1;jettySize=auto;html=1;exitX=0;exitY=0.25;exitDx=0;exitDy=0;entryX=0.873;entryY=-0.001;entryDx=0;entryDy=0;entryPerimeter=0;" parent="1" source="7fuNwRUUf65aUAYO2YvY-6" target="7fuNwRUUf65aUAYO2YvY-13" edge="1">
          <mxGeometry relative="1" as="geometry" />
        </mxCell>
        <mxCell id="7fuNwRUUf65aUAYO2YvY-6" value="" style="rounded=1;whiteSpace=wrap;html=1;fillColor=none;strokeColor=#000000;" parent="1" vertex="1">
          <mxGeometry x="750" y="314.39" width="1320" height="645.61" as="geometry" />
        </mxCell>
        <mxCell id="7fuNwRUUf65aUAYO2YvY-7" style="edgeStyle=orthogonalEdgeStyle;rounded=0;orthogonalLoop=1;jettySize=auto;html=1;exitX=0;exitY=0.5;exitDx=0;exitDy=0;entryX=0.75;entryY=1;entryDx=0;entryDy=0;" parent="1" source="7fuNwRUUf65aUAYO2YvY-117" target="7fuNwRUUf65aUAYO2YvY-13" edge="1">
          <mxGeometry relative="1" as="geometry">
            <Array as="points">
              <mxPoint x="566" y="1341" />
            </Array>
          </mxGeometry>
        </mxCell>
        <mxCell id="7fuNwRUUf65aUAYO2YvY-8" value="" style="rounded=1;whiteSpace=wrap;html=1;fillColor=none;" parent="1" vertex="1">
          <mxGeometry x="750.0799999999999" y="1015" width="1207.58" height="446" as="geometry" />
        </mxCell>
        <mxCell id="7fuNwRUUf65aUAYO2YvY-9" style="edgeStyle=orthogonalEdgeStyle;rounded=0;orthogonalLoop=1;jettySize=auto;html=1;exitX=0.25;exitY=0;exitDx=0;exitDy=0;entryX=0.5;entryY=1;entryDx=0;entryDy=0;entryPerimeter=0;fontSize=12;" parent="1" source="7fuNwRUUf65aUAYO2YvY-13" target="7fuNwRUUf65aUAYO2YvY-110" edge="1">
          <mxGeometry relative="1" as="geometry">
            <mxPoint x="483.0799999999999" y="330" as="targetPoint" />
          </mxGeometry>
        </mxCell>
        <mxCell id="7fuNwRUUf65aUAYO2YvY-10" style="edgeStyle=orthogonalEdgeStyle;rounded=0;orthogonalLoop=1;jettySize=auto;html=1;exitX=0.25;exitY=1;exitDx=0;exitDy=0;entryX=1;entryY=0.5;entryDx=0;entryDy=0;" parent="1" source="7fuNwRUUf65aUAYO2YvY-13" target="7fuNwRUUf65aUAYO2YvY-4" edge="1">
          <mxGeometry relative="1" as="geometry" />
        </mxCell>
        <mxCell id="7fuNwRUUf65aUAYO2YvY-11" style="edgeStyle=orthogonalEdgeStyle;rounded=0;orthogonalLoop=1;jettySize=auto;html=1;exitX=1;exitY=0.75;exitDx=0;exitDy=0;entryX=0;entryY=0.699;entryDx=0;entryDy=0;entryPerimeter=0;" parent="1" source="7fuNwRUUf65aUAYO2YvY-13" target="7fuNwRUUf65aUAYO2YvY-6" edge="1">
          <mxGeometry relative="1" as="geometry">
            <mxPoint x="710" y="764" as="targetPoint" />
          </mxGeometry>
        </mxCell>
        <mxCell id="7fuNwRUUf65aUAYO2YvY-12" style="edgeStyle=orthogonalEdgeStyle;rounded=0;orthogonalLoop=1;jettySize=auto;html=1;exitX=1;exitY=1;exitDx=0;exitDy=0;entryX=0;entryY=0.25;entryDx=0;entryDy=0;" parent="1" source="7fuNwRUUf65aUAYO2YvY-13" target="7fuNwRUUf65aUAYO2YvY-8" edge="1">
          <mxGeometry relative="1" as="geometry" />
        </mxCell>
        <mxCell id="7fuNwRUUf65aUAYO2YvY-13" value="Приложение по кредитованию банка &lt;i&gt;X&lt;/i&gt;" style="rounded=1;whiteSpace=wrap;html=1;" parent="1" vertex="1">
          <mxGeometry x="405.0799999999999" y="720" width="215" height="60" as="geometry" />
        </mxCell>
        <mxCell id="7fuNwRUUf65aUAYO2YvY-14" value="" style="endArrow=classic;html=1;rounded=0;exitX=0.5;exitY=1;exitDx=0;exitDy=0;exitPerimeter=0;entryX=0.5;entryY=0;entryDx=0;entryDy=0;" parent="1" source="7fuNwRUUf65aUAYO2YvY-15" target="7fuNwRUUf65aUAYO2YvY-13" edge="1">
          <mxGeometry width="50" height="50" relative="1" as="geometry">
            <mxPoint x="97.57999999999993" y="640" as="sourcePoint" />
            <mxPoint x="137.57999999999993" y="590" as="targetPoint" />
          </mxGeometry>
        </mxCell>
        <mxCell id="7fuNwRUUf65aUAYO2YvY-15" value="" style="points=[[0.145,0.145,0],[0.5,0,0],[0.855,0.145,0],[1,0.5,0],[0.855,0.855,0],[0.5,1,0],[0.145,0.855,0],[0,0.5,0]];shape=mxgraph.bpmn.event;html=1;verticalLabelPosition=bottom;labelBackgroundColor=#ffffff;verticalAlign=top;align=center;perimeter=ellipsePerimeter;outlineConnect=0;aspect=fixed;outline=standard;symbol=general;fillColor=#000000;" parent="1" vertex="1">
          <mxGeometry x="487.5799999999999" y="565" width="50" height="50" as="geometry" />
        </mxCell>
        <mxCell id="7fuNwRUUf65aUAYO2YvY-16" value="Зайти в &lt;br&gt;приложение" style="text;html=1;align=center;verticalAlign=middle;resizable=0;points=[];autosize=1;strokeColor=none;fillColor=none;" parent="1" vertex="1">
          <mxGeometry x="472.5799999999999" y="530" width="80" height="30" as="geometry" />
        </mxCell>
        <mxCell id="7fuNwRUUf65aUAYO2YvY-17" value="Форма для регистрации&lt;br&gt;&lt;br&gt;do/заполнить форму" style="rounded=1;whiteSpace=wrap;html=1;" parent="1" vertex="1">
          <mxGeometry x="-210.00000000000006" y="564.99" width="150" height="60" as="geometry" />
        </mxCell>
        <mxCell id="7fuNwRUUf65aUAYO2YvY-18" style="edgeStyle=orthogonalEdgeStyle;curved=1;rounded=0;orthogonalLoop=1;jettySize=auto;html=1;exitX=0;exitY=0.5;exitDx=0;exitDy=0;entryX=1;entryY=0.5;entryDx=0;entryDy=0;" parent="1" target="7fuNwRUUf65aUAYO2YvY-20" edge="1">
          <mxGeometry relative="1" as="geometry">
            <mxPoint x="-295.00000000000006" y="594.9900000000005" as="sourcePoint" />
          </mxGeometry>
        </mxCell>
        <mxCell id="7fuNwRUUf65aUAYO2YvY-19" style="edgeStyle=orthogonalEdgeStyle;rounded=0;orthogonalLoop=1;jettySize=auto;html=1;exitX=0;exitY=0.5;exitDx=0;exitDy=0;entryX=1;entryY=0.5;entryDx=0;entryDy=0;" parent="1" source="7fuNwRUUf65aUAYO2YvY-20" target="7fuNwRUUf65aUAYO2YvY-22" edge="1">
          <mxGeometry relative="1" as="geometry" />
        </mxCell>
        <mxCell id="7fuNwRUUf65aUAYO2YvY-20" value="Ввести личную инфо.&lt;br&gt;entry/ открыть поле ввода&lt;br&gt;do/ ввести информ.&lt;br&gt;exit/ введено успешно" style="rounded=1;whiteSpace=wrap;html=1;" parent="1" vertex="1">
          <mxGeometry x="-550.0000000000001" y="564.99" width="170" height="60" as="geometry" />
        </mxCell>
        <mxCell id="7fuNwRUUf65aUAYO2YvY-21" style="edgeStyle=orthogonalEdgeStyle;rounded=0;orthogonalLoop=1;jettySize=auto;html=1;exitX=0;exitY=0.5;exitDx=0;exitDy=0;entryX=1;entryY=0.5;entryDx=0;entryDy=0;" parent="1" source="7fuNwRUUf65aUAYO2YvY-22" target="7fuNwRUUf65aUAYO2YvY-95" edge="1">
          <mxGeometry relative="1" as="geometry" />
        </mxCell>
        <mxCell id="7fuNwRUUf65aUAYO2YvY-22" value="Добавить документы идентификации личности&lt;br&gt;do/ открыть вкладки&lt;br&gt;exit/документы прикреплены" style="rounded=1;whiteSpace=wrap;html=1;" parent="1" vertex="1">
          <mxGeometry x="-835" y="564.99" width="195" height="60" as="geometry" />
        </mxCell>
        <mxCell id="7fuNwRUUf65aUAYO2YvY-23" style="edgeStyle=orthogonalEdgeStyle;rounded=0;orthogonalLoop=1;jettySize=auto;html=1;exitX=0;exitY=0.5;exitDx=0;exitDy=0;entryX=1.009;entryY=0.44;entryDx=0;entryDy=0;entryPerimeter=0;" parent="1" source="7fuNwRUUf65aUAYO2YvY-24" target="7fuNwRUUf65aUAYO2YvY-26" edge="1">
          <mxGeometry relative="1" as="geometry">
            <mxPoint x="-830" y="744.99" as="targetPoint" />
            <Array as="points">
              <mxPoint x="-834" y="741.99" />
            </Array>
          </mxGeometry>
        </mxCell>
        <mxCell id="7fuNwRUUf65aUAYO2YvY-24" value="&lt;span&gt;Проверка пароля и логина&lt;br&gt;&lt;/span&gt;do/ проверяем форму&lt;span&gt;&lt;br&gt;&lt;/span&gt;" style="rounded=1;whiteSpace=wrap;html=1;" parent="1" vertex="1">
          <mxGeometry x="-720" y="711.99" width="120" height="60" as="geometry" />
        </mxCell>
        <mxCell id="7fuNwRUUf65aUAYO2YvY-25" style="edgeStyle=orthogonalEdgeStyle;rounded=0;orthogonalLoop=1;jettySize=auto;html=1;exitX=0.5;exitY=1;exitDx=0;exitDy=0;entryX=0.5;entryY=1;entryDx=0;entryDy=0;" parent="1" source="7fuNwRUUf65aUAYO2YvY-26" target="7fuNwRUUf65aUAYO2YvY-30" edge="1">
          <mxGeometry relative="1" as="geometry">
            <Array as="points">
              <mxPoint x="-892" y="864.99" />
              <mxPoint x="-169.00000000000006" y="864.99" />
            </Array>
          </mxGeometry>
        </mxCell>
        <mxCell id="7fuNwRUUf65aUAYO2YvY-26" value="&lt;span&gt;Восстановить аккаунт&lt;br&gt;&lt;/span&gt;do/ вывести ошибку&lt;span&gt;&lt;br&gt;&lt;/span&gt;" style="rounded=1;whiteSpace=wrap;html=1;" parent="1" vertex="1">
          <mxGeometry x="-965" y="714.99" width="130" height="60" as="geometry" />
        </mxCell>
        <mxCell id="7fuNwRUUf65aUAYO2YvY-27" style="edgeStyle=orthogonalEdgeStyle;rounded=0;orthogonalLoop=1;jettySize=auto;html=1;exitX=0;exitY=0.5;exitDx=0;exitDy=0;" parent="1" source="7fuNwRUUf65aUAYO2YvY-28" edge="1">
          <mxGeometry relative="1" as="geometry">
            <mxPoint x="-600" y="744.9900000000005" as="targetPoint" />
            <Array as="points">
              <mxPoint x="-460.00000000000006" y="744.99" />
            </Array>
          </mxGeometry>
        </mxCell>
        <mxCell id="7fuNwRUUf65aUAYO2YvY-28" value="&lt;span&gt;Ввести логин&lt;br&gt;do/ввести логин&lt;br&gt;&lt;/span&gt;" style="rounded=1;whiteSpace=wrap;html=1;" parent="1" vertex="1">
          <mxGeometry x="-459.50000000000006" y="711.99" width="120" height="60" as="geometry" />
        </mxCell>
        <mxCell id="7fuNwRUUf65aUAYO2YvY-29" style="edgeStyle=orthogonalEdgeStyle;rounded=0;orthogonalLoop=1;jettySize=auto;html=1;exitX=0;exitY=0.5;exitDx=0;exitDy=0;entryX=1;entryY=0.5;entryDx=0;entryDy=0;" parent="1" source="7fuNwRUUf65aUAYO2YvY-30" target="7fuNwRUUf65aUAYO2YvY-28" edge="1">
          <mxGeometry relative="1" as="geometry" />
        </mxCell>
        <mxCell id="7fuNwRUUf65aUAYO2YvY-30" value="&lt;span&gt;Ввести пароль&lt;br&gt;&lt;/span&gt;do/ ввести пароль&lt;span&gt;&lt;br&gt;&lt;/span&gt;" style="rounded=1;whiteSpace=wrap;html=1;" parent="1" vertex="1">
          <mxGeometry x="-229.50000000000006" y="711.99" width="120" height="60" as="geometry" />
        </mxCell>
        <mxCell id="7fuNwRUUf65aUAYO2YvY-31" style="edgeStyle=orthogonalEdgeStyle;rounded=0;orthogonalLoop=1;jettySize=auto;html=1;exitX=0;exitY=0.5;exitDx=0;exitDy=0;" parent="1" source="7fuNwRUUf65aUAYO2YvY-32" edge="1">
          <mxGeometry relative="1" as="geometry">
            <mxPoint x="1267.6599999999999" y="1341.095238095238" as="targetPoint" />
          </mxGeometry>
        </mxCell>
        <mxCell id="7fuNwRUUf65aUAYO2YvY-32" value="&lt;span&gt;Выбрать сумма&lt;br&gt;&lt;br&gt;do/ показать поле ввода&lt;br&gt;&lt;/span&gt;" style="rounded=1;whiteSpace=wrap;html=1;" parent="1" vertex="1">
          <mxGeometry x="1348.87" y="1311" width="120" height="60" as="geometry" />
        </mxCell>
        <mxCell id="7fuNwRUUf65aUAYO2YvY-33" style="edgeStyle=orthogonalEdgeStyle;rounded=0;orthogonalLoop=1;jettySize=auto;html=1;exitX=0;exitY=0.5;exitDx=0;exitDy=0;" parent="1" source="7fuNwRUUf65aUAYO2YvY-34" edge="1">
          <mxGeometry relative="1" as="geometry">
            <mxPoint x="1467.6599999999999" y="1341.1428571428569" as="targetPoint" />
          </mxGeometry>
        </mxCell>
        <mxCell id="7fuNwRUUf65aUAYO2YvY-34" value="&lt;span&gt;Выбрать тип займа&lt;br&gt;do/ отметить выбранный в списке&lt;br&gt;exit/ тип выбран&lt;br&gt;&lt;/span&gt;" style="rounded=1;whiteSpace=wrap;html=1;" parent="1" vertex="1">
          <mxGeometry x="1586.6399999999999" y="1311" width="191.02" height="60" as="geometry" />
        </mxCell>
        <mxCell id="7fuNwRUUf65aUAYO2YvY-35" style="edgeStyle=orthogonalEdgeStyle;rounded=0;orthogonalLoop=1;jettySize=auto;html=1;exitX=0.5;exitY=1;exitDx=0;exitDy=0;entryX=1;entryY=0.75;entryDx=0;entryDy=0;" parent="1" source="7fuNwRUUf65aUAYO2YvY-36" target="7fuNwRUUf65aUAYO2YvY-34" edge="1">
          <mxGeometry relative="1" as="geometry" />
        </mxCell>
        <mxCell id="7fuNwRUUf65aUAYO2YvY-36" value="Предоставить документы соответствующие выбранному виду займа&lt;span&gt;&lt;br&gt;do/показать поле прикрепления документов&lt;br&gt;exit/ документы прикреплены&lt;br&gt;&lt;/span&gt;" style="rounded=1;whiteSpace=wrap;html=1;" parent="1" vertex="1">
          <mxGeometry x="1677.6599999999999" y="1151" width="260" height="61.89" as="geometry" />
        </mxCell>
        <mxCell id="7fuNwRUUf65aUAYO2YvY-37" style="edgeStyle=orthogonalEdgeStyle;rounded=0;orthogonalLoop=1;jettySize=auto;html=1;exitX=1;exitY=0.5;exitDx=0;exitDy=0;entryX=0;entryY=0.5;entryDx=0;entryDy=0;" parent="1" source="7fuNwRUUf65aUAYO2YvY-38" target="7fuNwRUUf65aUAYO2YvY-36" edge="1">
          <mxGeometry relative="1" as="geometry">
            <mxPoint x="1667.6599999999999" y="1191" as="targetPoint" />
          </mxGeometry>
        </mxCell>
        <mxCell id="7fuNwRUUf65aUAYO2YvY-38" value="Выбрать тип лица, которому будут оказана услуга&lt;br&gt;do/ выбираем день из списка&lt;span&gt;&lt;br&gt;&lt;/span&gt;" style="rounded=1;whiteSpace=wrap;html=1;" parent="1" vertex="1">
          <mxGeometry x="1310.08" y="1152.8899999999999" width="197.58" height="60" as="geometry" />
        </mxCell>
        <mxCell id="7fuNwRUUf65aUAYO2YvY-39" style="edgeStyle=orthogonalEdgeStyle;curved=1;rounded=0;orthogonalLoop=1;jettySize=auto;html=1;exitX=1;exitY=0.5;exitDx=0;exitDy=0;entryX=0;entryY=0.5;entryDx=0;entryDy=0;" parent="1" source="7fuNwRUUf65aUAYO2YvY-40" target="7fuNwRUUf65aUAYO2YvY-38" edge="1">
          <mxGeometry relative="1" as="geometry" />
        </mxCell>
        <mxCell id="7fuNwRUUf65aUAYO2YvY-40" value="Оформить заявку на кредитование&lt;br&gt;&lt;span&gt;&lt;br&gt;do/ Показать поле ввода информации клиента&lt;br&gt;exit/ информация введена&lt;br&gt;&lt;/span&gt;" style="rounded=1;whiteSpace=wrap;html=1;" parent="1" vertex="1">
          <mxGeometry x="916.0799999999999" y="1140.3300000000002" width="270" height="85.11" as="geometry" />
        </mxCell>
        <mxCell id="7fuNwRUUf65aUAYO2YvY-41" style="edgeStyle=orthogonalEdgeStyle;rounded=0;orthogonalLoop=1;jettySize=auto;html=1;exitX=1;exitY=0.5;exitDx=0;exitDy=0;entryX=0;entryY=0.5;entryDx=0;entryDy=0;" parent="1" source="7fuNwRUUf65aUAYO2YvY-42" target="7fuNwRUUf65aUAYO2YvY-61" edge="1">
          <mxGeometry relative="1" as="geometry">
            <mxPoint x="1356.08" y="689.39" as="targetPoint" />
            <Array as="points" />
          </mxGeometry>
        </mxCell>
        <mxCell id="7fuNwRUUf65aUAYO2YvY-42" value="Проверить состояние счета клиента&lt;span&gt;&lt;br&gt;&lt;/span&gt;" style="rounded=1;whiteSpace=wrap;html=1;" parent="1" vertex="1">
          <mxGeometry x="1273.08" y="514.39" width="174" height="40" as="geometry" />
        </mxCell>
        <mxCell id="7fuNwRUUf65aUAYO2YvY-43" style="edgeStyle=orthogonalEdgeStyle;rounded=0;orthogonalLoop=1;jettySize=auto;html=1;exitX=1;exitY=0.5;exitDx=0;exitDy=0;entryX=0;entryY=0.5;entryDx=0;entryDy=0;" parent="1" source="7fuNwRUUf65aUAYO2YvY-44" target="7fuNwRUUf65aUAYO2YvY-42" edge="1">
          <mxGeometry relative="1" as="geometry">
            <mxPoint x="1265.08" y="539.39" as="sourcePoint" />
            <Array as="points">
              <mxPoint x="1154.08" y="534.39" />
            </Array>
          </mxGeometry>
        </mxCell>
        <mxCell id="7fuNwRUUf65aUAYO2YvY-44" value="Ответить на сообщение&lt;span&gt;&lt;br&gt;do/отвечаем на сообщение в чате поддержки&lt;br&gt;&lt;/span&gt;" style="rounded=1;whiteSpace=wrap;html=1;" parent="1" vertex="1">
          <mxGeometry x="1001.0799999999999" y="509.39" width="153" height="60" as="geometry" />
        </mxCell>
        <mxCell id="7fuNwRUUf65aUAYO2YvY-45" style="edgeStyle=orthogonalEdgeStyle;rounded=0;orthogonalLoop=1;jettySize=auto;html=1;exitX=0;exitY=0.5;exitDx=0;exitDy=0;exitPerimeter=0;entryX=1;entryY=0.5;entryDx=0;entryDy=0;" parent="1" source="7fuNwRUUf65aUAYO2YvY-46" target="7fuNwRUUf65aUAYO2YvY-17" edge="1">
          <mxGeometry relative="1" as="geometry">
            <Array as="points">
              <mxPoint x="-25.000000000000057" y="594.99" />
            </Array>
          </mxGeometry>
        </mxCell>
        <mxCell id="7fuNwRUUf65aUAYO2YvY-46" value="" style="points=[[0.145,0.145,0],[0.5,0,0],[0.855,0.145,0],[1,0.5,0],[0.855,0.855,0],[0.5,1,0],[0.145,0.855,0],[0,0.5,0]];shape=mxgraph.bpmn.event;html=1;verticalLabelPosition=bottom;labelBackgroundColor=#ffffff;verticalAlign=top;align=center;perimeter=ellipsePerimeter;outlineConnect=0;aspect=fixed;outline=standard;symbol=general;fillColor=#000000;" parent="1" vertex="1">
          <mxGeometry x="-25.500000000000057" y="574.99" width="50" height="50" as="geometry" />
        </mxCell>
        <mxCell id="7fuNwRUUf65aUAYO2YvY-47" style="edgeStyle=orthogonalEdgeStyle;rounded=0;orthogonalLoop=1;jettySize=auto;html=1;entryX=0;entryY=0.25;entryDx=0;entryDy=0;exitX=0.5;exitY=0;exitDx=0;exitDy=0;" parent="1" source="7fuNwRUUf65aUAYO2YvY-22" target="7fuNwRUUf65aUAYO2YvY-22" edge="1">
          <mxGeometry relative="1" as="geometry">
            <mxPoint x="-700" y="564.99" as="sourcePoint" />
            <Array as="points">
              <mxPoint x="-760" y="534.99" />
              <mxPoint x="-855" y="534.99" />
              <mxPoint x="-855" y="579.99" />
            </Array>
          </mxGeometry>
        </mxCell>
        <mxCell id="7fuNwRUUf65aUAYO2YvY-48" value="Ошибка при входе" style="text;whiteSpace=wrap;html=1;" parent="1" vertex="1">
          <mxGeometry x="-830" y="681.99" width="110" height="30" as="geometry" />
        </mxCell>
        <mxCell id="7fuNwRUUf65aUAYO2YvY-49" value="Регистрация прошла успешно" style="text;whiteSpace=wrap;html=1;" parent="1" vertex="1">
          <mxGeometry x="-1200" y="619.99" width="170" height="30" as="geometry" />
        </mxCell>
        <mxCell id="7fuNwRUUf65aUAYO2YvY-50" value="Прикрепите документы [Неверный формат документов]" style="text;whiteSpace=wrap;html=1;" parent="1" vertex="1">
          <mxGeometry x="-870" y="494.99" width="210" height="30" as="geometry" />
        </mxCell>
        <mxCell id="7fuNwRUUf65aUAYO2YvY-51" style="edgeStyle=orthogonalEdgeStyle;curved=1;rounded=0;orthogonalLoop=1;jettySize=auto;html=1;exitX=0;exitY=0.5;exitDx=0;exitDy=0;entryX=1;entryY=0.5;entryDx=0;entryDy=0;" parent="1" source="7fuNwRUUf65aUAYO2YvY-52" target="7fuNwRUUf65aUAYO2YvY-30" edge="1">
          <mxGeometry relative="1" as="geometry" />
        </mxCell>
        <mxCell id="7fuNwRUUf65aUAYO2YvY-52" value="Форма для входа в аккаунт&lt;br&gt;do/ заполнить форму" style="rounded=1;whiteSpace=wrap;html=1;" parent="1" vertex="1">
          <mxGeometry x="-34.50000000000006" y="711.99" width="150" height="60" as="geometry" />
        </mxCell>
        <mxCell id="7fuNwRUUf65aUAYO2YvY-53" style="edgeStyle=orthogonalEdgeStyle;rounded=0;orthogonalLoop=1;jettySize=auto;html=1;entryX=0.25;entryY=1;entryDx=0;entryDy=0;exitX=0.75;exitY=1;exitDx=0;exitDy=0;" parent="1" source="7fuNwRUUf65aUAYO2YvY-24" target="7fuNwRUUf65aUAYO2YvY-24" edge="1">
          <mxGeometry relative="1" as="geometry">
            <Array as="points">
              <mxPoint x="-630" y="794.99" />
              <mxPoint x="-690" y="794.99" />
            </Array>
            <mxPoint x="-660" y="794.99" as="sourcePoint" />
          </mxGeometry>
        </mxCell>
        <mxCell id="7fuNwRUUf65aUAYO2YvY-54" value="" style="edgeStyle=orthogonalEdgeStyle;curved=1;rounded=0;orthogonalLoop=1;jettySize=auto;html=1;" parent="1" source="7fuNwRUUf65aUAYO2YvY-55" target="7fuNwRUUf65aUAYO2YvY-52" edge="1">
          <mxGeometry relative="1" as="geometry" />
        </mxCell>
        <mxCell id="7fuNwRUUf65aUAYO2YvY-55" value="" style="points=[[0.145,0.145,0],[0.5,0,0],[0.855,0.145,0],[1,0.5,0],[0.855,0.855,0],[0.5,1,0],[0.145,0.855,0],[0,0.5,0]];shape=mxgraph.bpmn.event;html=1;verticalLabelPosition=bottom;labelBackgroundColor=#ffffff;verticalAlign=top;align=center;perimeter=ellipsePerimeter;outlineConnect=0;aspect=fixed;outline=standard;symbol=general;fillColor=#000000;" parent="1" vertex="1">
          <mxGeometry x="15.499999999999943" y="836.99" width="50" height="50" as="geometry" />
        </mxCell>
        <mxCell id="7fuNwRUUf65aUAYO2YvY-56" style="edgeStyle=orthogonalEdgeStyle;curved=1;rounded=0;orthogonalLoop=1;jettySize=auto;html=1;exitX=1;exitY=0.5;exitDx=0;exitDy=0;exitPerimeter=0;entryX=0;entryY=0.5;entryDx=0;entryDy=0;" parent="1" source="7fuNwRUUf65aUAYO2YvY-57" target="7fuNwRUUf65aUAYO2YvY-40" edge="1">
          <mxGeometry relative="1" as="geometry">
            <mxPoint x="979.5799999999999" y="1182.7947619047618" as="targetPoint" />
          </mxGeometry>
        </mxCell>
        <mxCell id="7fuNwRUUf65aUAYO2YvY-57" value="" style="points=[[0.145,0.145,0],[0.5,0,0],[0.855,0.145,0],[1,0.5,0],[0.855,0.855,0],[0.5,1,0],[0.145,0.855,0],[0,0.5,0]];shape=mxgraph.bpmn.event;html=1;verticalLabelPosition=bottom;labelBackgroundColor=#ffffff;verticalAlign=top;align=center;perimeter=ellipsePerimeter;outlineConnect=0;aspect=fixed;outline=standard;symbol=general;fillColor=#000000;" parent="1" vertex="1">
          <mxGeometry x="770.0799999999999" y="1156.9499999999998" width="50" height="50" as="geometry" />
        </mxCell>
        <mxCell id="7fuNwRUUf65aUAYO2YvY-58" value="Предоставляем сканы &lt;br&gt;документов" style="text;html=1;align=center;verticalAlign=middle;resizable=0;points=[];autosize=1;strokeColor=none;fillColor=none;" parent="1" vertex="1">
          <mxGeometry x="1514.58" y="1146" width="140" height="30" as="geometry" />
        </mxCell>
        <mxCell id="7fuNwRUUf65aUAYO2YvY-59" style="edgeStyle=orthogonalEdgeStyle;rounded=0;orthogonalLoop=1;jettySize=auto;html=1;exitX=1;exitY=0.5;exitDx=0;exitDy=0;exitPerimeter=0;entryX=0;entryY=0.5;entryDx=0;entryDy=0;" parent="1" source="7fuNwRUUf65aUAYO2YvY-60" target="7fuNwRUUf65aUAYO2YvY-44" edge="1">
          <mxGeometry relative="1" as="geometry" />
        </mxCell>
        <mxCell id="7fuNwRUUf65aUAYO2YvY-60" value="" style="points=[[0.145,0.145,0],[0.5,0,0],[0.855,0.145,0],[1,0.5,0],[0.855,0.855,0],[0.5,1,0],[0.145,0.855,0],[0,0.5,0]];shape=mxgraph.bpmn.event;html=1;verticalLabelPosition=bottom;labelBackgroundColor=#ffffff;verticalAlign=top;align=center;perimeter=ellipsePerimeter;outlineConnect=0;aspect=fixed;outline=standard;symbol=general;fillColor=#000000;" parent="1" vertex="1">
          <mxGeometry x="760.0799999999999" y="514.39" width="50" height="50" as="geometry" />
        </mxCell>
        <mxCell id="7fuNwRUUf65aUAYO2YvY-61" value="Узнать историю операций&lt;span&gt;&lt;br&gt;&lt;/span&gt;do/открываем поле истории счета клиента&lt;span&gt;&lt;br&gt;&lt;/span&gt;" style="rounded=1;whiteSpace=wrap;html=1;" parent="1" vertex="1">
          <mxGeometry x="1577.08" y="511.58" width="212" height="45.61" as="geometry" />
        </mxCell>
        <mxCell id="7fuNwRUUf65aUAYO2YvY-62" value="Вводим личную информацию" style="text;html=1;align=center;verticalAlign=middle;resizable=0;points=[];autosize=1;strokeColor=none;fillColor=none;" parent="1" vertex="1">
          <mxGeometry x="-385.00000000000006" y="574.99" width="180" height="20" as="geometry" />
        </mxCell>
        <mxCell id="7fuNwRUUf65aUAYO2YvY-63" value="Прикрепляем&amp;nbsp;&lt;br&gt;документы" style="text;html=1;align=center;verticalAlign=middle;resizable=0;points=[];autosize=1;strokeColor=none;fillColor=none;" parent="1" vertex="1">
          <mxGeometry x="-637.4200000000001" y="564.99" width="90" height="30" as="geometry" />
        </mxCell>
        <mxCell id="7fuNwRUUf65aUAYO2YvY-64" value="Вводим логин(n)" style="text;html=1;align=center;verticalAlign=middle;resizable=0;points=[];autosize=1;strokeColor=none;fillColor=none;" parent="1" vertex="1">
          <mxGeometry x="-339.50000000000006" y="711.99" width="110" height="20" as="geometry" />
        </mxCell>
        <mxCell id="7fuNwRUUf65aUAYO2YvY-65" value="Отправляем форму на проверку(n)" style="text;html=1;align=center;verticalAlign=middle;resizable=0;points=[];autosize=1;strokeColor=none;fillColor=none;" parent="1" vertex="1">
          <mxGeometry x="-630" y="711.99" width="210" height="20" as="geometry" />
        </mxCell>
        <mxCell id="7fuNwRUUf65aUAYO2YvY-66" value="Ввод пароля (n) &lt;br&gt;[неверный логин или пароль]" style="text;html=1;align=center;verticalAlign=middle;resizable=0;points=[];autosize=1;strokeColor=none;fillColor=none;" parent="1" vertex="1">
          <mxGeometry x="-750" y="804.99" width="180" height="30" as="geometry" />
        </mxCell>
        <mxCell id="7fuNwRUUf65aUAYO2YvY-67" value="Восстанавливаем аккаунт&lt;br&gt;Повторный ввод пароля" style="text;html=1;align=center;verticalAlign=middle;resizable=0;points=[];autosize=1;strokeColor=none;fillColor=none;" parent="1" vertex="1">
          <mxGeometry x="-490.00000000000006" y="869.99" width="160" height="30" as="geometry" />
        </mxCell>
        <mxCell id="7fuNwRUUf65aUAYO2YvY-68" value="Оставляем&lt;br&gt;заявку на кредит" style="text;html=1;align=center;verticalAlign=middle;resizable=0;points=[];autosize=1;strokeColor=none;fillColor=none;" parent="1" vertex="1">
          <mxGeometry x="810.0799999999999" y="1151" width="110" height="30" as="geometry" />
        </mxCell>
        <mxCell id="7fuNwRUUf65aUAYO2YvY-69" value="Выбираем тип лица" style="text;html=1;align=center;verticalAlign=middle;resizable=0;points=[];autosize=1;strokeColor=none;fillColor=none;" parent="1" vertex="1">
          <mxGeometry x="1186.08" y="1166" width="130" height="20" as="geometry" />
        </mxCell>
        <mxCell id="7fuNwRUUf65aUAYO2YvY-70" value="Оформить заявку(n)&lt;br&gt;[Основные данные не введены]" style="text;html=1;align=center;verticalAlign=middle;resizable=0;points=[];autosize=1;strokeColor=none;fillColor=none;" parent="1" vertex="1">
          <mxGeometry x="1080.58" y="1087.89" width="190" height="30" as="geometry" />
        </mxCell>
        <mxCell id="7fuNwRUUf65aUAYO2YvY-71" value="&lt;span&gt;Отвечаем на сообщение&lt;/span&gt;" style="text;html=1;align=center;verticalAlign=middle;resizable=0;points=[];autosize=1;strokeColor=none;fillColor=none;" parent="1" vertex="1">
          <mxGeometry x="833.0799999999999" y="514.39" width="150" height="20" as="geometry" />
        </mxCell>
        <mxCell id="7fuNwRUUf65aUAYO2YvY-72" value="Узнаем историю&lt;br&gt;операций" style="text;html=1;align=center;verticalAlign=middle;resizable=0;points=[];autosize=1;strokeColor=none;fillColor=none;" parent="1" vertex="1">
          <mxGeometry x="1452.08" y="500" width="110" height="30" as="geometry" />
        </mxCell>
        <mxCell id="7fuNwRUUf65aUAYO2YvY-73" value="&lt;b&gt;&lt;font style=&quot;font-size: 24px&quot;&gt;Оформить заявку на кредитование&lt;/font&gt;&lt;/b&gt;" style="text;html=1;strokeColor=none;fillColor=none;align=center;verticalAlign=middle;whiteSpace=wrap;rounded=0;" parent="1" vertex="1">
          <mxGeometry x="905.0799999999999" y="1015" width="820" height="30" as="geometry" />
        </mxCell>
        <mxCell id="7fuNwRUUf65aUAYO2YvY-74" value="" style="endArrow=none;html=1;rounded=0;curved=1;entryX=0.988;entryY=0.059;entryDx=0;entryDy=0;entryPerimeter=0;exitX=0.013;exitY=0.055;exitDx=0;exitDy=0;exitPerimeter=0;" parent="1" source="7fuNwRUUf65aUAYO2YvY-8" target="7fuNwRUUf65aUAYO2YvY-8" edge="1">
          <mxGeometry width="50" height="50" relative="1" as="geometry">
            <mxPoint x="760.0799999999999" y="1041" as="sourcePoint" />
            <mxPoint x="1450.08" y="1218" as="targetPoint" />
          </mxGeometry>
        </mxCell>
        <mxCell id="7fuNwRUUf65aUAYO2YvY-75" value="Покинуть &lt;br&gt;приложение" style="text;html=1;align=center;verticalAlign=middle;resizable=0;points=[];autosize=1;strokeColor=none;fillColor=none;fontSize=12;" parent="1" vertex="1">
          <mxGeometry x="419.5799999999999" y="284.39" width="80" height="30" as="geometry" />
        </mxCell>
        <mxCell id="7fuNwRUUf65aUAYO2YvY-76" style="edgeStyle=orthogonalEdgeStyle;rounded=0;orthogonalLoop=1;jettySize=auto;html=1;exitX=1;exitY=0.25;exitDx=0;exitDy=0;entryX=0.75;entryY=0;entryDx=0;entryDy=0;fontSize=12;" parent="1" source="7fuNwRUUf65aUAYO2YvY-40" target="7fuNwRUUf65aUAYO2YvY-40" edge="1">
          <mxGeometry relative="1" as="geometry">
            <Array as="points">
              <mxPoint x="1205.8899999999999" y="1162" />
              <mxPoint x="1205.8899999999999" y="1128" />
              <mxPoint x="1118.8899999999999" y="1128" />
            </Array>
          </mxGeometry>
        </mxCell>
        <mxCell id="7fuNwRUUf65aUAYO2YvY-77" value="&lt;span style=&quot;color: rgb(0 , 0 , 0) ; font-family: &amp;#34;helvetica&amp;#34; ; font-size: 12px ; font-style: normal ; font-weight: 400 ; letter-spacing: normal ; text-align: center ; text-indent: 0px ; text-transform: none ; word-spacing: 0px ; background-color: rgb(248 , 249 , 250) ; display: inline ; float: none&quot;&gt;Выбрать тип займа/&lt;br&gt;[займ не предоставляется выбранному лицу]/[тип займа не был выбран]&lt;br&gt;&lt;/span&gt;" style="text;whiteSpace=wrap;html=1;fontSize=12;" parent="1" vertex="1">
          <mxGeometry x="1517.6599999999999" y="1371" width="470" height="47.11" as="geometry" />
        </mxCell>
        <mxCell id="7fuNwRUUf65aUAYO2YvY-78" value="" style="endArrow=none;html=1;rounded=0;fontSize=12;curved=1;entryX=1;entryY=0.5;entryDx=0;entryDy=0;exitX=0;exitY=0.5;exitDx=0;exitDy=0;" parent="1" source="7fuNwRUUf65aUAYO2YvY-17" target="7fuNwRUUf65aUAYO2YvY-17" edge="1">
          <mxGeometry width="50" height="50" relative="1" as="geometry">
            <mxPoint x="14.999999999999943" y="593.9399999999998" as="sourcePoint" />
            <mxPoint x="114.99999999999989" y="593.94" as="targetPoint" />
          </mxGeometry>
        </mxCell>
        <mxCell id="7fuNwRUUf65aUAYO2YvY-79" value="" style="endArrow=none;html=1;rounded=0;fontSize=12;curved=1;entryX=0;entryY=0.5;entryDx=0;entryDy=0;" parent="1" target="7fuNwRUUf65aUAYO2YvY-17" edge="1">
          <mxGeometry width="50" height="50" relative="1" as="geometry">
            <mxPoint x="-295.00000000000006" y="594.9900000000005" as="sourcePoint" />
            <mxPoint x="-115.00000000000006" y="594.99" as="targetPoint" />
          </mxGeometry>
        </mxCell>
        <mxCell id="7fuNwRUUf65aUAYO2YvY-80" value="" style="endArrow=none;html=1;rounded=0;fontSize=12;curved=1;entryX=1;entryY=0.25;entryDx=0;entryDy=0;exitX=0;exitY=0.25;exitDx=0;exitDy=0;" parent="1" source="7fuNwRUUf65aUAYO2YvY-20" target="7fuNwRUUf65aUAYO2YvY-20" edge="1">
          <mxGeometry width="50" height="50" relative="1" as="geometry">
            <mxPoint x="-550.0000000000001" y="594.99" as="sourcePoint" />
            <mxPoint x="-370.0000000000005" y="594.99" as="targetPoint" />
          </mxGeometry>
        </mxCell>
        <mxCell id="7fuNwRUUf65aUAYO2YvY-81" value="" style="endArrow=none;html=1;rounded=0;fontSize=12;curved=1;entryX=1.004;entryY=0.337;entryDx=0;entryDy=0;entryPerimeter=0;" parent="1" target="7fuNwRUUf65aUAYO2YvY-22" edge="1">
          <mxGeometry width="50" height="50" relative="1" as="geometry">
            <mxPoint x="-835" y="583.9400000000003" as="sourcePoint" />
            <mxPoint x="-690" y="583.99" as="targetPoint" />
          </mxGeometry>
        </mxCell>
        <mxCell id="7fuNwRUUf65aUAYO2YvY-82" value="" style="endArrow=none;html=1;rounded=0;fontSize=12;curved=1;entryX=0.999;entryY=0.66;entryDx=0;entryDy=0;entryPerimeter=0;" parent="1" target="7fuNwRUUf65aUAYO2YvY-52" edge="1">
          <mxGeometry width="50" height="50" relative="1" as="geometry">
            <mxPoint x="-35.00000000000006" y="751.1200000000001" as="sourcePoint" />
            <mxPoint x="110.49999999999989" y="750.99" as="targetPoint" />
          </mxGeometry>
        </mxCell>
        <mxCell id="7fuNwRUUf65aUAYO2YvY-83" value="" style="endArrow=none;html=1;rounded=0;fontSize=12;curved=1;" parent="1" edge="1">
          <mxGeometry width="50" height="50" relative="1" as="geometry">
            <mxPoint x="-229.49999999999915" y="741.99" as="sourcePoint" />
            <mxPoint x="-109.49999999999915" y="741.99" as="targetPoint" />
          </mxGeometry>
        </mxCell>
        <mxCell id="7fuNwRUUf65aUAYO2YvY-84" value="" style="endArrow=none;html=1;rounded=0;fontSize=12;curved=1;" parent="1" edge="1">
          <mxGeometry width="50" height="50" relative="1" as="geometry">
            <mxPoint x="-459.49999999999915" y="741.99" as="sourcePoint" />
            <mxPoint x="-339.49999999999915" y="741.99" as="targetPoint" />
          </mxGeometry>
        </mxCell>
        <mxCell id="7fuNwRUUf65aUAYO2YvY-85" value="" style="endArrow=none;html=1;rounded=0;fontSize=12;curved=1;entryX=1;entryY=0.5;entryDx=0;entryDy=0;exitX=0;exitY=0.5;exitDx=0;exitDy=0;" parent="1" source="7fuNwRUUf65aUAYO2YvY-26" target="7fuNwRUUf65aUAYO2YvY-26" edge="1">
          <mxGeometry width="50" height="50" relative="1" as="geometry">
            <mxPoint x="-279.50000000000006" y="871.74" as="sourcePoint" />
            <mxPoint x="-159.50000000000006" y="871.74" as="targetPoint" />
          </mxGeometry>
        </mxCell>
        <mxCell id="7fuNwRUUf65aUAYO2YvY-86" value="" style="endArrow=none;html=1;rounded=0;fontSize=12;curved=1;exitX=-0.003;exitY=0.656;exitDx=0;exitDy=0;exitPerimeter=0;entryX=1;entryY=0.656;entryDx=0;entryDy=0;entryPerimeter=0;" parent="1" source="7fuNwRUUf65aUAYO2YvY-38" target="7fuNwRUUf65aUAYO2YvY-38" edge="1">
          <mxGeometry width="50" height="50" relative="1" as="geometry">
            <mxPoint x="1310.0800000000004" y="1175.8899999999994" as="sourcePoint" />
            <mxPoint x="1430.0800000000004" y="1175.8899999999994" as="targetPoint" />
          </mxGeometry>
        </mxCell>
        <mxCell id="7fuNwRUUf65aUAYO2YvY-87" value="" style="endArrow=none;html=1;rounded=0;fontSize=12;edgeStyle=orthogonalEdgeStyle;exitX=0;exitY=0.5;exitDx=0;exitDy=0;entryX=1.006;entryY=0.407;entryDx=0;entryDy=0;entryPerimeter=0;" parent="1" source="7fuNwRUUf65aUAYO2YvY-34" target="7fuNwRUUf65aUAYO2YvY-34" edge="1">
          <mxGeometry width="50" height="50" relative="1" as="geometry">
            <mxPoint x="1624.83" y="1334.9999999999995" as="sourcePoint" />
            <mxPoint x="1736.6399999999999" y="1331.1100000000001" as="targetPoint" />
            <Array as="points">
              <mxPoint x="1586.6399999999999" y="1335.1100000000001" />
            </Array>
          </mxGeometry>
        </mxCell>
        <mxCell id="7fuNwRUUf65aUAYO2YvY-88" value="" style="endArrow=none;html=1;rounded=0;fontSize=12;edgeStyle=orthogonalEdgeStyle;entryX=1;entryY=0.5;entryDx=0;entryDy=0;" parent="1" target="7fuNwRUUf65aUAYO2YvY-32" edge="1">
          <mxGeometry width="50" height="50" relative="1" as="geometry">
            <mxPoint x="1347.6599999999999" y="1340.9999999999995" as="sourcePoint" />
            <mxPoint x="1427.6600000000003" y="1340.6399999999994" as="targetPoint" />
            <Array as="points">
              <mxPoint x="1417.6599999999999" y="1341" />
              <mxPoint x="1417.6599999999999" y="1341" />
            </Array>
          </mxGeometry>
        </mxCell>
        <mxCell id="7fuNwRUUf65aUAYO2YvY-89" value="" style="endArrow=none;html=1;rounded=0;fontSize=12;curved=1;entryX=1.001;entryY=0.398;entryDx=0;entryDy=0;entryPerimeter=0;" parent="1" target="7fuNwRUUf65aUAYO2YvY-40" edge="1">
          <mxGeometry width="50" height="50" relative="1" as="geometry">
            <mxPoint x="915.079999999999" y="1172.8899999999994" as="sourcePoint" />
            <mxPoint x="1035.08" y="1172.8899999999999" as="targetPoint" />
          </mxGeometry>
        </mxCell>
        <mxCell id="7fuNwRUUf65aUAYO2YvY-90" value="" style="endArrow=none;html=1;rounded=0;fontSize=12;entryX=1;entryY=0.5;entryDx=0;entryDy=0;edgeStyle=orthogonalEdgeStyle;" parent="1" target="7fuNwRUUf65aUAYO2YvY-36" edge="1">
          <mxGeometry width="50" height="50" relative="1" as="geometry">
            <mxPoint x="1677.6600000000008" y="1176.1100000000001" as="sourcePoint" />
            <mxPoint x="1797.6599999999999" y="1176.1100000000001" as="targetPoint" />
            <Array as="points">
              <mxPoint x="1677.6599999999999" y="1182" />
            </Array>
          </mxGeometry>
        </mxCell>
        <mxCell id="7fuNwRUUf65aUAYO2YvY-91" value="" style="endArrow=none;html=1;rounded=0;fontSize=12;curved=1;entryX=1;entryY=0.25;entryDx=0;entryDy=0;exitX=0;exitY=0.25;exitDx=0;exitDy=0;" parent="1" source="7fuNwRUUf65aUAYO2YvY-44" target="7fuNwRUUf65aUAYO2YvY-44" edge="1">
          <mxGeometry width="50" height="50" relative="1" as="geometry">
            <mxPoint x="1003.5799999999999" y="549.39" as="sourcePoint" />
            <mxPoint x="1123.58" y="549.39" as="targetPoint" />
          </mxGeometry>
        </mxCell>
        <mxCell id="7fuNwRUUf65aUAYO2YvY-92" value="" style="endArrow=none;html=1;rounded=0;fontSize=12;curved=1;exitX=-0.001;exitY=0.332;exitDx=0;exitDy=0;exitPerimeter=0;" parent="1" source="7fuNwRUUf65aUAYO2YvY-61" edge="1">
          <mxGeometry width="50" height="50" relative="1" as="geometry">
            <mxPoint x="1623.0800000000008" y="518.9699999999998" as="sourcePoint" />
            <mxPoint x="1790" y="527" as="targetPoint" />
          </mxGeometry>
        </mxCell>
        <mxCell id="7fuNwRUUf65aUAYO2YvY-93" value="Взаимодействия с аккаунтом" style="text;html=1;align=center;verticalAlign=middle;resizable=0;points=[];autosize=1;strokeColor=none;fillColor=none;fontSize=12;" parent="1" vertex="1">
          <mxGeometry x="-75.00000000000006" y="504.99" width="180" height="20" as="geometry" />
        </mxCell>
        <mxCell id="7fuNwRUUf65aUAYO2YvY-94" style="edgeStyle=orthogonalEdgeStyle;rounded=0;orthogonalLoop=1;jettySize=auto;html=1;exitX=0;exitY=0.5;exitDx=0;exitDy=0;entryX=1;entryY=0.5;entryDx=0;entryDy=0;entryPerimeter=0;" parent="1" source="7fuNwRUUf65aUAYO2YvY-95" target="7fuNwRUUf65aUAYO2YvY-99" edge="1">
          <mxGeometry relative="1" as="geometry" />
        </mxCell>
        <mxCell id="7fuNwRUUf65aUAYO2YvY-95" value="Ввести контактную информацию&lt;br&gt;entry/ открыть поле ввода&lt;br&gt;do/ ввести эл.почту&lt;br&gt;exit/проверить почту" style="rounded=1;whiteSpace=wrap;html=1;" parent="1" vertex="1">
          <mxGeometry x="-1090" y="564.99" width="200" height="60" as="geometry" />
        </mxCell>
        <mxCell id="7fuNwRUUf65aUAYO2YvY-96" value="" style="endArrow=none;html=1;rounded=0;fontSize=12;curved=1;entryX=1;entryY=0.25;entryDx=0;entryDy=0;exitX=0;exitY=0.25;exitDx=0;exitDy=0;" parent="1" source="7fuNwRUUf65aUAYO2YvY-95" target="7fuNwRUUf65aUAYO2YvY-95" edge="1">
          <mxGeometry width="50" height="50" relative="1" as="geometry">
            <mxPoint x="-825" y="598.9399999999998" as="sourcePoint" />
            <mxPoint x="-674.4000000000001" y="600.21" as="targetPoint" />
          </mxGeometry>
        </mxCell>
        <mxCell id="7fuNwRUUf65aUAYO2YvY-97" style="edgeStyle=orthogonalEdgeStyle;rounded=0;orthogonalLoop=1;jettySize=auto;html=1;exitX=0.75;exitY=0;exitDx=0;exitDy=0;entryX=0;entryY=0.25;entryDx=0;entryDy=0;" parent="1" source="7fuNwRUUf65aUAYO2YvY-95" target="7fuNwRUUf65aUAYO2YvY-95" edge="1">
          <mxGeometry relative="1" as="geometry">
            <Array as="points">
              <mxPoint x="-940" y="544.99" />
              <mxPoint x="-1110" y="544.99" />
              <mxPoint x="-1110" y="579.99" />
            </Array>
          </mxGeometry>
        </mxCell>
        <mxCell id="7fuNwRUUf65aUAYO2YvY-98" value="Введите почту [почта не верная]" style="text;whiteSpace=wrap;html=1;" parent="1" vertex="1">
          <mxGeometry x="-1110" y="524.99" width="190" height="30" as="geometry" />
        </mxCell>
        <mxCell id="7fuNwRUUf65aUAYO2YvY-99" value="" style="points=[[0.145,0.145,0],[0.5,0,0],[0.855,0.145,0],[1,0.5,0],[0.855,0.855,0],[0.5,1,0],[0.145,0.855,0],[0,0.5,0]];shape=mxgraph.bpmn.event;html=1;verticalLabelPosition=bottom;labelBackgroundColor=#ffffff;verticalAlign=top;align=center;perimeter=ellipsePerimeter;outlineConnect=0;aspect=fixed;outline=end;symbol=terminate2;" parent="1" vertex="1">
          <mxGeometry x="-1200" y="569.99" width="50" height="50" as="geometry" />
        </mxCell>
        <mxCell id="7fuNwRUUf65aUAYO2YvY-100" value="Вводим контактную информацию" style="text;html=1;align=center;verticalAlign=middle;resizable=0;points=[];autosize=1;strokeColor=none;fillColor=none;" parent="1" vertex="1">
          <mxGeometry x="-960" y="624.99" width="200" height="20" as="geometry" />
        </mxCell>
        <mxCell id="7fuNwRUUf65aUAYO2YvY-101" value="" style="endArrow=none;html=1;rounded=0;fontSize=12;curved=1;" parent="1" edge="1">
          <mxGeometry width="50" height="50" relative="1" as="geometry">
            <mxPoint x="-720" y="741.6500000000003" as="sourcePoint" />
            <mxPoint x="-600" y="741.6500000000003" as="targetPoint" />
          </mxGeometry>
        </mxCell>
        <mxCell id="7fuNwRUUf65aUAYO2YvY-102" style="edgeStyle=orthogonalEdgeStyle;rounded=0;orthogonalLoop=1;jettySize=auto;html=1;exitX=0;exitY=0.5;exitDx=0;exitDy=0;entryX=1;entryY=0.5;entryDx=0;entryDy=0;entryPerimeter=0;" parent="1" source="7fuNwRUUf65aUAYO2YvY-26" target="7fuNwRUUf65aUAYO2YvY-103" edge="1">
          <mxGeometry relative="1" as="geometry">
            <mxPoint x="-957" y="754.99" as="sourcePoint" />
          </mxGeometry>
        </mxCell>
        <mxCell id="7fuNwRUUf65aUAYO2YvY-103" value="" style="points=[[0.145,0.145,0],[0.5,0,0],[0.855,0.145,0],[1,0.5,0],[0.855,0.855,0],[0.5,1,0],[0.145,0.855,0],[0,0.5,0]];shape=mxgraph.bpmn.event;html=1;verticalLabelPosition=bottom;labelBackgroundColor=#ffffff;verticalAlign=top;align=center;perimeter=ellipsePerimeter;outlineConnect=0;aspect=fixed;outline=end;symbol=terminate2;" parent="1" vertex="1">
          <mxGeometry x="-1160" y="719.99" width="50" height="50" as="geometry" />
        </mxCell>
        <mxCell id="7fuNwRUUf65aUAYO2YvY-104" value="Входим в аккаунт" style="text;whiteSpace=wrap;html=1;" parent="1" vertex="1">
          <mxGeometry x="-1080" y="719.99" width="100" height="30" as="geometry" />
        </mxCell>
        <mxCell id="7fuNwRUUf65aUAYO2YvY-105" value="" style="endArrow=none;dashed=1;html=1;rounded=0;curved=1;exitX=0;exitY=0.424;exitDx=0;exitDy=0;entryX=1;entryY=0.417;entryDx=0;entryDy=0;entryPerimeter=0;exitPerimeter=0;" parent="1" source="7fuNwRUUf65aUAYO2YvY-4" target="7fuNwRUUf65aUAYO2YvY-4" edge="1">
          <mxGeometry width="50" height="50" relative="1" as="geometry">
            <mxPoint x="-1050" y="674.9900000000002" as="sourcePoint" />
            <mxPoint x="168.47000000000014" y="676.81" as="targetPoint" />
          </mxGeometry>
        </mxCell>
        <mxCell id="7fuNwRUUf65aUAYO2YvY-106" value="&lt;b&gt;&lt;font style=&quot;font-size: 24px&quot;&gt;Действия гостя/постоянного пользователя с аккаунтом&lt;/font&gt;&lt;/b&gt;" style="text;html=1;strokeColor=none;fillColor=none;align=center;verticalAlign=middle;whiteSpace=wrap;rounded=0;" parent="1" vertex="1">
          <mxGeometry x="-952.51" y="433.8800000000001" width="820" height="30" as="geometry" />
        </mxCell>
        <mxCell id="7fuNwRUUf65aUAYO2YvY-107" value="" style="endArrow=none;html=1;rounded=0;curved=1;exitX=0.005;exitY=0.08;exitDx=0;exitDy=0;exitPerimeter=0;entryX=0.994;entryY=0.075;entryDx=0;entryDy=0;entryPerimeter=0;" parent="1" source="7fuNwRUUf65aUAYO2YvY-4" target="7fuNwRUUf65aUAYO2YvY-4" edge="1">
          <mxGeometry width="50" height="50" relative="1" as="geometry">
            <mxPoint x="-1123.3100000000004" y="469.3900000000003" as="sourcePoint" />
            <mxPoint x="39.5000000000004" y="466.66000000000076" as="targetPoint" />
          </mxGeometry>
        </mxCell>
        <mxCell id="7fuNwRUUf65aUAYO2YvY-108" value="&lt;b&gt;&lt;font style=&quot;font-size: 24px&quot;&gt;Проверить состояние счета клиента&lt;/font&gt;&lt;/b&gt;" style="text;html=1;strokeColor=none;fillColor=none;align=center;verticalAlign=middle;whiteSpace=wrap;rounded=0;" parent="1" vertex="1">
          <mxGeometry x="903.0799999999999" y="328.28" width="820" height="30" as="geometry" />
        </mxCell>
        <mxCell id="7fuNwRUUf65aUAYO2YvY-109" value="" style="endArrow=none;html=1;rounded=0;curved=1;exitX=0.001;exitY=0.124;exitDx=0;exitDy=0;exitPerimeter=0;entryX=1;entryY=0.119;entryDx=0;entryDy=0;entryPerimeter=0;" parent="1" source="7fuNwRUUf65aUAYO2YvY-6" target="7fuNwRUUf65aUAYO2YvY-6" edge="1">
          <mxGeometry width="50" height="50" relative="1" as="geometry">
            <mxPoint x="733.079999999999" y="372.0899999999998" as="sourcePoint" />
            <mxPoint x="1895.8899999999999" y="369.99000000000035" as="targetPoint" />
          </mxGeometry>
        </mxCell>
        <mxCell id="7fuNwRUUf65aUAYO2YvY-110" value="" style="points=[[0.145,0.145,0],[0.5,0,0],[0.855,0.145,0],[1,0.5,0],[0.855,0.855,0],[0.5,1,0],[0.145,0.855,0],[0,0.5,0]];shape=mxgraph.bpmn.event;html=1;verticalLabelPosition=bottom;labelBackgroundColor=#ffffff;verticalAlign=top;align=center;perimeter=ellipsePerimeter;outlineConnect=0;aspect=fixed;outline=end;symbol=terminate2;" parent="1" vertex="1">
          <mxGeometry x="434.5799999999999" y="320" width="50" height="50" as="geometry" />
        </mxCell>
        <mxCell id="7fuNwRUUf65aUAYO2YvY-111" style="edgeStyle=orthogonalEdgeStyle;rounded=0;orthogonalLoop=1;jettySize=auto;html=1;exitX=0.75;exitY=0;exitDx=0;exitDy=0;entryX=0.25;entryY=0;entryDx=0;entryDy=0;" parent="1" source="7fuNwRUUf65aUAYO2YvY-36" target="7fuNwRUUf65aUAYO2YvY-36" edge="1">
          <mxGeometry relative="1" as="geometry">
            <Array as="points">
              <mxPoint x="1872.6599999999999" y="1131" />
              <mxPoint x="1742.6599999999999" y="1131" />
            </Array>
          </mxGeometry>
        </mxCell>
        <mxCell id="7fuNwRUUf65aUAYO2YvY-112" value="Прикрепить документы/&lt;br&gt;[не все документы прикреплены]/&lt;br&gt;[неверный формат документов]" style="text;html=1;align=center;verticalAlign=middle;resizable=0;points=[];autosize=1;strokeColor=none;fillColor=none;" parent="1" vertex="1">
          <mxGeometry x="1707.6599999999999" y="1077.8899999999999" width="200" height="50" as="geometry" />
        </mxCell>
        <mxCell id="7fuNwRUUf65aUAYO2YvY-113" style="edgeStyle=orthogonalEdgeStyle;rounded=0;orthogonalLoop=1;jettySize=auto;html=1;exitX=0.25;exitY=1;exitDx=0;exitDy=0;entryX=0.75;entryY=1;entryDx=0;entryDy=0;" parent="1" source="7fuNwRUUf65aUAYO2YvY-34" target="7fuNwRUUf65aUAYO2YvY-34" edge="1">
          <mxGeometry relative="1" as="geometry" />
        </mxCell>
        <mxCell id="7fuNwRUUf65aUAYO2YvY-114" value="Выбрать тип займа" style="text;html=1;align=center;verticalAlign=middle;resizable=0;points=[];autosize=1;strokeColor=none;fillColor=none;" parent="1" vertex="1">
          <mxGeometry x="1757.6599999999999" y="1281" width="120" height="20" as="geometry" />
        </mxCell>
        <mxCell id="7fuNwRUUf65aUAYO2YvY-115" value="Вводим сумму займа" style="text;html=1;align=center;verticalAlign=middle;resizable=0;points=[];autosize=1;strokeColor=none;fillColor=none;" parent="1" vertex="1">
          <mxGeometry x="1462.87" y="1319" width="130" height="20" as="geometry" />
        </mxCell>
        <mxCell id="7fuNwRUUf65aUAYO2YvY-116" value="" style="endArrow=none;html=1;rounded=0;fontSize=12;edgeStyle=orthogonalEdgeStyle;entryX=1;entryY=0.5;entryDx=0;entryDy=0;startArrow=none;" parent="1" source="7fuNwRUUf65aUAYO2YvY-117" edge="1">
          <mxGeometry width="50" height="50" relative="1" as="geometry">
            <mxPoint x="1136.4499999999996" y="1335.7599999999998" as="sourcePoint" />
            <mxPoint x="1257.6599999999999" y="1335.7599999999998" as="targetPoint" />
            <Array as="points">
              <mxPoint x="1226.4499999999998" y="1335.76" />
            </Array>
          </mxGeometry>
        </mxCell>
        <mxCell id="7fuNwRUUf65aUAYO2YvY-117" value="&lt;span&gt;Отправляем запрос на подтверждение&lt;br&gt;exit/уведомление об отправке&lt;br&gt;&lt;/span&gt;" style="rounded=1;whiteSpace=wrap;html=1;" parent="1" vertex="1">
          <mxGeometry x="1150.58" y="1311" width="120" height="60" as="geometry" />
        </mxCell>
        <mxCell id="7fuNwRUUf65aUAYO2YvY-118" value="" style="endArrow=none;html=1;rounded=0;fontSize=12;edgeStyle=orthogonalEdgeStyle;entryX=1;entryY=0.5;entryDx=0;entryDy=0;exitX=0;exitY=0.5;exitDx=0;exitDy=0;" parent="1" source="7fuNwRUUf65aUAYO2YvY-117" target="7fuNwRUUf65aUAYO2YvY-117" edge="1">
          <mxGeometry width="50" height="50" relative="1" as="geometry">
            <mxPoint x="1157.6599999999999" y="1341" as="sourcePoint" />
            <mxPoint x="1257.6599999999999" y="1335.76" as="targetPoint" />
            <Array as="points" />
          </mxGeometry>
        </mxCell>
        <mxCell id="7fuNwRUUf65aUAYO2YvY-119" style="edgeStyle=orthogonalEdgeStyle;rounded=0;orthogonalLoop=1;jettySize=auto;html=1;exitX=0.75;exitY=0;exitDx=0;exitDy=0;entryX=0.25;entryY=0;entryDx=0;entryDy=0;" parent="1" source="7fuNwRUUf65aUAYO2YvY-20" target="7fuNwRUUf65aUAYO2YvY-20" edge="1">
          <mxGeometry relative="1" as="geometry">
            <Array as="points">
              <mxPoint x="-422.00000000000006" y="544.99" />
              <mxPoint x="-507.00000000000006" y="544.99" />
            </Array>
          </mxGeometry>
        </mxCell>
        <mxCell id="7fuNwRUUf65aUAYO2YvY-120" value="Введите личную информацию&lt;br&gt;[несоответствующий формат]" style="text;html=1;align=center;verticalAlign=middle;resizable=0;points=[];autosize=1;strokeColor=none;fillColor=none;" parent="1" vertex="1">
          <mxGeometry x="-550.0000000000001" y="514.99" width="180" height="30" as="geometry" />
        </mxCell>
        <mxCell id="7fuNwRUUf65aUAYO2YvY-121" value="&lt;span&gt;Проверяем состояние &lt;br&gt;счета клиента&lt;/span&gt;" style="text;html=1;align=center;verticalAlign=middle;resizable=0;points=[];autosize=1;strokeColor=none;fillColor=none;fontSize=12;" parent="1" vertex="1">
          <mxGeometry x="1144.08" y="499.39" width="140" height="30" as="geometry" />
        </mxCell>
        <mxCell id="7fuNwRUUf65aUAYO2YvY-122" style="edgeStyle=orthogonalEdgeStyle;rounded=0;orthogonalLoop=1;jettySize=auto;html=1;exitX=1;exitY=0.5;exitDx=0;exitDy=0;entryX=0;entryY=0.5;entryDx=0;entryDy=0;entryPerimeter=0;" parent="1" source="7fuNwRUUf65aUAYO2YvY-61" target="7fuNwRUUf65aUAYO2YvY-123" edge="1">
          <mxGeometry relative="1" as="geometry">
            <mxPoint x="2533.08" y="534.3899999999999" as="sourcePoint" />
          </mxGeometry>
        </mxCell>
        <mxCell id="7fuNwRUUf65aUAYO2YvY-123" value="" style="points=[[0.145,0.145,0],[0.5,0,0],[0.855,0.145,0],[1,0.5,0],[0.855,0.855,0],[0.5,1,0],[0.145,0.855,0],[0,0.5,0]];shape=mxgraph.bpmn.event;html=1;verticalLabelPosition=bottom;labelBackgroundColor=#ffffff;verticalAlign=top;align=center;perimeter=ellipsePerimeter;outlineConnect=0;aspect=fixed;outline=end;symbol=terminate2;" parent="1" vertex="1">
          <mxGeometry x="1930" y="509.38" width="50" height="50" as="geometry" />
        </mxCell>
        <mxCell id="7fuNwRUUf65aUAYO2YvY-124" value="Возможность аутентифицированного пользователя" style="text;html=1;align=center;verticalAlign=middle;resizable=0;points=[];autosize=1;strokeColor=none;fillColor=none;" parent="1" vertex="1">
          <mxGeometry x="15.499999999999943" y="1371" width="300" height="20" as="geometry" />
        </mxCell>
        <mxCell id="7fuNwRUUf65aUAYO2YvY-125" value="заявка составлена" style="text;html=1;align=center;verticalAlign=middle;resizable=0;points=[];autosize=1;strokeColor=none;fillColor=none;" parent="1" vertex="1">
          <mxGeometry x="1265.1499999999999" y="1411" width="120" height="20" as="geometry" />
        </mxCell>
        <mxCell id="7fuNwRUUf65aUAYO2YvY-126" value="Составить заявку&lt;br&gt;[пользователь]" style="text;html=1;align=center;verticalAlign=middle;resizable=0;points=[];autosize=1;strokeColor=none;fillColor=none;" parent="1" vertex="1">
          <mxGeometry x="630.0799999999999" y="1087.89" width="110" height="30" as="geometry" />
        </mxCell>
        <mxCell id="7fuNwRUUf65aUAYO2YvY-127" value="Войти в профиль" style="text;html=1;align=center;verticalAlign=middle;resizable=0;points=[];autosize=1;strokeColor=none;fillColor=none;" parent="1" vertex="1">
          <mxGeometry x="315.49999999999994" y="809.99" width="110" height="20" as="geometry" />
        </mxCell>
        <mxCell id="7fuNwRUUf65aUAYO2YvY-128" value="Пользователь аутентифицирован" style="text;html=1;align=center;verticalAlign=middle;resizable=0;points=[];autosize=1;strokeColor=none;fillColor=none;" parent="1" vertex="1">
          <mxGeometry x="270.49999999999994" y="879.99" width="200" height="20" as="geometry" />
        </mxCell>
        <mxCell id="7fuNwRUUf65aUAYO2YvY-129" value="Проверить состояние &lt;br&gt;счета&lt;br&gt;&amp;nbsp;[служба поддержки]" style="text;html=1;align=center;verticalAlign=middle;resizable=0;points=[];autosize=1;strokeColor=none;fillColor=none;" parent="1" vertex="1">
          <mxGeometry x="609.9999999999999" y="425" width="140" height="50" as="geometry" />
        </mxCell>
        <mxCell id="7fuNwRUUf65aUAYO2YvY-130" value="Помощь клиенту &lt;br&gt;оказана&lt;br&gt;[служба поддержки]" style="text;html=1;align=center;verticalAlign=middle;resizable=0;points=[];autosize=1;strokeColor=none;fillColor=none;" parent="1" vertex="1">
          <mxGeometry x="620.0799999999999" y="710" width="130" height="50" as="geometry" />
        </mxCell>
        <mxCell id="7fuNwRUUf65aUAYO2YvY-131" value="История операций &lt;br&gt;изучена" style="text;html=1;align=center;verticalAlign=middle;resizable=0;points=[];autosize=1;strokeColor=none;fillColor=none;" parent="1" vertex="1">
          <mxGeometry x="1810" y="500" width="120" height="30" as="geometry" />
        </mxCell>
        <mxCell id="7fuNwRUUf65aUAYO2YvY-132" style="edgeStyle=orthogonalEdgeStyle;rounded=0;orthogonalLoop=1;jettySize=auto;html=1;exitX=1;exitY=0.5;exitDx=0;exitDy=0;entryX=0;entryY=0.5;entryDx=0;entryDy=0;" parent="1" source="7fuNwRUUf65aUAYO2YvY-133" target="7fuNwRUUf65aUAYO2YvY-138" edge="1">
          <mxGeometry relative="1" as="geometry">
            <mxPoint x="1356.08" y="825" as="targetPoint" />
            <Array as="points" />
          </mxGeometry>
        </mxCell>
        <mxCell id="7fuNwRUUf65aUAYO2YvY-133" value="Проверить состояние счета клиента&lt;span&gt;&lt;br&gt;&lt;/span&gt;" style="rounded=1;whiteSpace=wrap;html=1;" parent="1" vertex="1">
          <mxGeometry x="1273.08" y="650" width="174" height="40" as="geometry" />
        </mxCell>
        <mxCell id="7fuNwRUUf65aUAYO2YvY-134" style="edgeStyle=orthogonalEdgeStyle;rounded=0;orthogonalLoop=1;jettySize=auto;html=1;exitX=1;exitY=0.5;exitDx=0;exitDy=0;entryX=0;entryY=0.5;entryDx=0;entryDy=0;" parent="1" source="7fuNwRUUf65aUAYO2YvY-135" target="7fuNwRUUf65aUAYO2YvY-133" edge="1">
          <mxGeometry relative="1" as="geometry">
            <mxPoint x="1265.08" y="675" as="sourcePoint" />
            <Array as="points">
              <mxPoint x="1154.08" y="670" />
            </Array>
          </mxGeometry>
        </mxCell>
        <mxCell id="7fuNwRUUf65aUAYO2YvY-135" value="Ответить на сообщение&lt;span&gt;&lt;br&gt;do/отвечаем на сообщение в чате поддержки&lt;br&gt;&lt;/span&gt;" style="rounded=1;whiteSpace=wrap;html=1;" parent="1" vertex="1">
          <mxGeometry x="1001.0799999999999" y="645" width="153" height="60" as="geometry" />
        </mxCell>
        <mxCell id="7fuNwRUUf65aUAYO2YvY-136" style="edgeStyle=orthogonalEdgeStyle;rounded=0;orthogonalLoop=1;jettySize=auto;html=1;exitX=1;exitY=0.5;exitDx=0;exitDy=0;exitPerimeter=0;entryX=0;entryY=0.5;entryDx=0;entryDy=0;" parent="1" source="7fuNwRUUf65aUAYO2YvY-137" target="7fuNwRUUf65aUAYO2YvY-135" edge="1">
          <mxGeometry relative="1" as="geometry" />
        </mxCell>
        <mxCell id="7fuNwRUUf65aUAYO2YvY-137" value="" style="points=[[0.145,0.145,0],[0.5,0,0],[0.855,0.145,0],[1,0.5,0],[0.855,0.855,0],[0.5,1,0],[0.145,0.855,0],[0,0.5,0]];shape=mxgraph.bpmn.event;html=1;verticalLabelPosition=bottom;labelBackgroundColor=#ffffff;verticalAlign=top;align=center;perimeter=ellipsePerimeter;outlineConnect=0;aspect=fixed;outline=standard;symbol=general;fillColor=#000000;" parent="1" vertex="1">
          <mxGeometry x="760.0799999999999" y="650" width="50" height="50" as="geometry" />
        </mxCell>
        <mxCell id="7fuNwRUUf65aUAYO2YvY-138" value="Узнать баланс карт&lt;span&gt;&lt;br&gt;&lt;/span&gt;do/открываем поле счета клиента&lt;span&gt;&lt;br&gt;&lt;/span&gt;" style="rounded=1;whiteSpace=wrap;html=1;" parent="1" vertex="1">
          <mxGeometry x="1577.08" y="647.19" width="172.92" height="45.61" as="geometry" />
        </mxCell>
        <mxCell id="7fuNwRUUf65aUAYO2YvY-139" value="&lt;span&gt;Отвечаем на сообщение&lt;/span&gt;" style="text;html=1;align=center;verticalAlign=middle;resizable=0;points=[];autosize=1;strokeColor=none;fillColor=none;" parent="1" vertex="1">
          <mxGeometry x="833.0799999999999" y="650" width="150" height="20" as="geometry" />
        </mxCell>
        <mxCell id="7fuNwRUUf65aUAYO2YvY-140" value="Узнаем баланс&lt;br&gt;карт" style="text;html=1;align=center;verticalAlign=middle;resizable=0;points=[];autosize=1;strokeColor=none;fillColor=none;" parent="1" vertex="1">
          <mxGeometry x="1457.08" y="635.61" width="100" height="30" as="geometry" />
        </mxCell>
        <mxCell id="7fuNwRUUf65aUAYO2YvY-141" value="" style="endArrow=none;html=1;rounded=0;fontSize=12;curved=1;entryX=1;entryY=0.25;entryDx=0;entryDy=0;exitX=0;exitY=0.25;exitDx=0;exitDy=0;" parent="1" source="7fuNwRUUf65aUAYO2YvY-135" target="7fuNwRUUf65aUAYO2YvY-135" edge="1">
          <mxGeometry width="50" height="50" relative="1" as="geometry">
            <mxPoint x="1003.5799999999999" y="685" as="sourcePoint" />
            <mxPoint x="1123.58" y="685" as="targetPoint" />
          </mxGeometry>
        </mxCell>
        <mxCell id="7fuNwRUUf65aUAYO2YvY-142" value="" style="endArrow=none;html=1;rounded=0;fontSize=12;curved=1;exitX=-0.001;exitY=0.332;exitDx=0;exitDy=0;exitPerimeter=0;" parent="1" source="7fuNwRUUf65aUAYO2YvY-138" edge="1">
          <mxGeometry width="50" height="50" relative="1" as="geometry">
            <mxPoint x="1623.0800000000008" y="654.5799999999998" as="sourcePoint" />
            <mxPoint x="1750" y="663" as="targetPoint" />
          </mxGeometry>
        </mxCell>
        <mxCell id="7fuNwRUUf65aUAYO2YvY-143" value="Проверяем состояние&lt;br&gt;счета клиента" style="text;html=1;align=center;verticalAlign=middle;resizable=0;points=[];autosize=1;strokeColor=none;fillColor=none;fontSize=12;" parent="1" vertex="1">
          <mxGeometry x="1144.08" y="635" width="140" height="30" as="geometry" />
        </mxCell>
        <mxCell id="7fuNwRUUf65aUAYO2YvY-144" style="edgeStyle=orthogonalEdgeStyle;rounded=0;orthogonalLoop=1;jettySize=auto;html=1;exitX=1;exitY=0.5;exitDx=0;exitDy=0;entryX=0;entryY=0.5;entryDx=0;entryDy=0;entryPerimeter=0;" parent="1" source="7fuNwRUUf65aUAYO2YvY-138" target="7fuNwRUUf65aUAYO2YvY-145" edge="1">
          <mxGeometry relative="1" as="geometry">
            <mxPoint x="2533.08" y="669.9999999999999" as="sourcePoint" />
          </mxGeometry>
        </mxCell>
        <mxCell id="7fuNwRUUf65aUAYO2YvY-145" value="" style="points=[[0.145,0.145,0],[0.5,0,0],[0.855,0.145,0],[1,0.5,0],[0.855,0.855,0],[0.5,1,0],[0.145,0.855,0],[0,0.5,0]];shape=mxgraph.bpmn.event;html=1;verticalLabelPosition=bottom;labelBackgroundColor=#ffffff;verticalAlign=top;align=center;perimeter=ellipsePerimeter;outlineConnect=0;aspect=fixed;outline=end;symbol=terminate2;" parent="1" vertex="1">
          <mxGeometry x="1930" y="644.99" width="50" height="50" as="geometry" />
        </mxCell>
        <mxCell id="7fuNwRUUf65aUAYO2YvY-146" value="Баланс карты&lt;br&gt;изучен" style="text;html=1;align=center;verticalAlign=middle;resizable=0;points=[];autosize=1;strokeColor=none;fillColor=none;" parent="1" vertex="1">
          <mxGeometry x="1825" y="635.61" width="90" height="30" as="geometry" />
        </mxCell>
        <mxCell id="7fuNwRUUf65aUAYO2YvY-147" style="edgeStyle=orthogonalEdgeStyle;rounded=0;orthogonalLoop=1;jettySize=auto;html=1;exitX=1;exitY=0.5;exitDx=0;exitDy=0;entryX=0;entryY=0.5;entryDx=0;entryDy=0;" parent="1" source="7fuNwRUUf65aUAYO2YvY-148" target="7fuNwRUUf65aUAYO2YvY-153" edge="1">
          <mxGeometry relative="1" as="geometry">
            <mxPoint x="1356.08" y="960" as="targetPoint" />
            <Array as="points" />
          </mxGeometry>
        </mxCell>
        <mxCell id="7fuNwRUUf65aUAYO2YvY-148" value="Проверить состояние счета клиента&lt;span&gt;&lt;br&gt;&lt;/span&gt;" style="rounded=1;whiteSpace=wrap;html=1;" parent="1" vertex="1">
          <mxGeometry x="1273.08" y="785" width="174" height="40" as="geometry" />
        </mxCell>
        <mxCell id="7fuNwRUUf65aUAYO2YvY-149" style="edgeStyle=orthogonalEdgeStyle;rounded=0;orthogonalLoop=1;jettySize=auto;html=1;exitX=1;exitY=0.5;exitDx=0;exitDy=0;entryX=0;entryY=0.5;entryDx=0;entryDy=0;" parent="1" source="7fuNwRUUf65aUAYO2YvY-150" target="7fuNwRUUf65aUAYO2YvY-148" edge="1">
          <mxGeometry relative="1" as="geometry">
            <mxPoint x="1265.08" y="810" as="sourcePoint" />
            <Array as="points">
              <mxPoint x="1154.08" y="805" />
            </Array>
          </mxGeometry>
        </mxCell>
        <mxCell id="7fuNwRUUf65aUAYO2YvY-150" value="Ответить на сообщение&lt;span&gt;&lt;br&gt;do/отвечаем на сообщение в чате поддержки&lt;br&gt;&lt;/span&gt;" style="rounded=1;whiteSpace=wrap;html=1;" parent="1" vertex="1">
          <mxGeometry x="1001.0799999999999" y="780" width="153" height="60" as="geometry" />
        </mxCell>
        <mxCell id="7fuNwRUUf65aUAYO2YvY-151" style="edgeStyle=orthogonalEdgeStyle;rounded=0;orthogonalLoop=1;jettySize=auto;html=1;exitX=1;exitY=0.5;exitDx=0;exitDy=0;exitPerimeter=0;entryX=0;entryY=0.5;entryDx=0;entryDy=0;" parent="1" source="7fuNwRUUf65aUAYO2YvY-152" target="7fuNwRUUf65aUAYO2YvY-150" edge="1">
          <mxGeometry relative="1" as="geometry" />
        </mxCell>
        <mxCell id="7fuNwRUUf65aUAYO2YvY-152" value="" style="points=[[0.145,0.145,0],[0.5,0,0],[0.855,0.145,0],[1,0.5,0],[0.855,0.855,0],[0.5,1,0],[0.145,0.855,0],[0,0.5,0]];shape=mxgraph.bpmn.event;html=1;verticalLabelPosition=bottom;labelBackgroundColor=#ffffff;verticalAlign=top;align=center;perimeter=ellipsePerimeter;outlineConnect=0;aspect=fixed;outline=standard;symbol=general;fillColor=#000000;" parent="1" vertex="1">
          <mxGeometry x="760.0799999999999" y="785" width="50" height="50" as="geometry" />
        </mxCell>
        <mxCell id="7fuNwRUUf65aUAYO2YvY-153" value="Рассказать о состоянии кредита&lt;span&gt;&lt;br&gt;&lt;/span&gt;do/открываем поле кредитной истории клиента&lt;span&gt;&lt;br&gt;&lt;/span&gt;" style="rounded=1;whiteSpace=wrap;html=1;" parent="1" vertex="1">
          <mxGeometry x="1577.08" y="782.1899999999999" width="212" height="45.61" as="geometry" />
        </mxCell>
        <mxCell id="7fuNwRUUf65aUAYO2YvY-154" value="&lt;span&gt;Отвечаем на сообщение&lt;/span&gt;" style="text;html=1;align=center;verticalAlign=middle;resizable=0;points=[];autosize=1;strokeColor=none;fillColor=none;" parent="1" vertex="1">
          <mxGeometry x="833.0799999999999" y="785" width="150" height="20" as="geometry" />
        </mxCell>
        <mxCell id="7fuNwRUUf65aUAYO2YvY-155" value="Узнаем кредитную&lt;br&gt;историю" style="text;html=1;align=center;verticalAlign=middle;resizable=0;points=[];autosize=1;strokeColor=none;fillColor=none;" parent="1" vertex="1">
          <mxGeometry x="1447.08" y="770.61" width="120" height="30" as="geometry" />
        </mxCell>
        <mxCell id="7fuNwRUUf65aUAYO2YvY-156" value="" style="endArrow=none;html=1;rounded=0;fontSize=12;curved=1;entryX=1;entryY=0.25;entryDx=0;entryDy=0;exitX=0;exitY=0.25;exitDx=0;exitDy=0;" parent="1" source="7fuNwRUUf65aUAYO2YvY-150" target="7fuNwRUUf65aUAYO2YvY-150" edge="1">
          <mxGeometry width="50" height="50" relative="1" as="geometry">
            <mxPoint x="1003.5799999999999" y="820" as="sourcePoint" />
            <mxPoint x="1123.58" y="820" as="targetPoint" />
          </mxGeometry>
        </mxCell>
        <mxCell id="7fuNwRUUf65aUAYO2YvY-157" value="" style="endArrow=none;html=1;rounded=0;fontSize=12;curved=1;exitX=-0.001;exitY=0.332;exitDx=0;exitDy=0;exitPerimeter=0;" parent="1" source="7fuNwRUUf65aUAYO2YvY-153" edge="1">
          <mxGeometry width="50" height="50" relative="1" as="geometry">
            <mxPoint x="1623.0800000000008" y="789.5799999999998" as="sourcePoint" />
            <mxPoint x="1790" y="797.61" as="targetPoint" />
          </mxGeometry>
        </mxCell>
        <mxCell id="7fuNwRUUf65aUAYO2YvY-158" value="Проверяем состояние&lt;br&gt;счета клиента" style="text;html=1;align=center;verticalAlign=middle;resizable=0;points=[];autosize=1;strokeColor=none;fillColor=none;fontSize=12;" parent="1" vertex="1">
          <mxGeometry x="1144.08" y="770" width="140" height="30" as="geometry" />
        </mxCell>
        <mxCell id="7fuNwRUUf65aUAYO2YvY-159" style="edgeStyle=orthogonalEdgeStyle;rounded=0;orthogonalLoop=1;jettySize=auto;html=1;exitX=1;exitY=0.5;exitDx=0;exitDy=0;entryX=0;entryY=0.5;entryDx=0;entryDy=0;entryPerimeter=0;" parent="1" source="7fuNwRUUf65aUAYO2YvY-153" target="7fuNwRUUf65aUAYO2YvY-160" edge="1">
          <mxGeometry relative="1" as="geometry">
            <mxPoint x="2533.08" y="804.9999999999999" as="sourcePoint" />
          </mxGeometry>
        </mxCell>
        <mxCell id="7fuNwRUUf65aUAYO2YvY-160" value="" style="points=[[0.145,0.145,0],[0.5,0,0],[0.855,0.145,0],[1,0.5,0],[0.855,0.855,0],[0.5,1,0],[0.145,0.855,0],[0,0.5,0]];shape=mxgraph.bpmn.event;html=1;verticalLabelPosition=bottom;labelBackgroundColor=#ffffff;verticalAlign=top;align=center;perimeter=ellipsePerimeter;outlineConnect=0;aspect=fixed;outline=end;symbol=terminate2;" parent="1" vertex="1">
          <mxGeometry x="1930" y="779.99" width="50" height="50" as="geometry" />
        </mxCell>
        <mxCell id="7fuNwRUUf65aUAYO2YvY-161" value="Кредитная история&lt;br&gt;изучена" style="text;html=1;align=center;verticalAlign=middle;resizable=0;points=[];autosize=1;strokeColor=none;fillColor=none;" parent="1" vertex="1">
          <mxGeometry x="1810" y="770.61" width="120" height="30" as="geometry" />
        </mxCell>
        <mxCell id="7fuNwRUUf65aUAYO2YvY-162" value="Заявка составлена" style="text;html=1;align=center;verticalAlign=middle;resizable=0;points=[];autosize=1;strokeColor=none;fillColor=none;" parent="1" vertex="1">
          <mxGeometry x="594.9999999999999" y="1306" width="120" height="20" as="geometry" />
        </mxCell>
        <mxCell id="7fuNwRUUf65aUAYO2YvY-163" value="" style="endArrow=none;dashed=1;html=1;rounded=0;curved=1;exitX=0;exitY=0.424;exitDx=0;exitDy=0;exitPerimeter=0;" parent="1" edge="1">
          <mxGeometry width="50" height="50" relative="1" as="geometry">
            <mxPoint x="750.0799999999999" y="601.78" as="sourcePoint" />
            <mxPoint x="2070" y="598" as="targetPoint" />
          </mxGeometry>
        </mxCell>
        <mxCell id="7fuNwRUUf65aUAYO2YvY-164" value="" style="endArrow=none;dashed=1;html=1;rounded=0;curved=1;exitX=0;exitY=0.424;exitDx=0;exitDy=0;exitPerimeter=0;" parent="1" edge="1">
          <mxGeometry width="50" height="50" relative="1" as="geometry">
            <mxPoint x="748.9099999999995" y="743.88" as="sourcePoint" />
            <mxPoint x="2068.83" y="740.1" as="targetPoint" />
          </mxGeometry>
        </mxCell>
      </root>
    </mxGraphModel>
  </diagram>
  <diagram id="zoZJyUoyREIMNN8wMbUZ" name="Страница — 4">
    <mxGraphModel dx="1115" dy="725" grid="1" gridSize="10" guides="1" tooltips="1" connect="1" arrows="1" fold="1" page="1" pageScale="1" pageWidth="827" pageHeight="1169" math="0" shadow="0">
      <root>
        <mxCell id="0" />
        <mxCell id="1" parent="0" />
        <mxCell id="z9jJJr1QuuOx36FKF8ej-1" value="&lt;span style=&quot;font-family: &amp;#34;roboto&amp;#34; , &amp;#34;robotodraft&amp;#34; , &amp;#34;helvetica&amp;#34; , &amp;#34;arial&amp;#34; , sans-serif ; font-size: 13px ; background-color: rgb(255 , 255 , 255)&quot;&gt;29. Проектирование интернет-системы подачи заявок на оформление кредита.&lt;/span&gt;" style="text;html=1;strokeColor=none;fillColor=none;align=center;verticalAlign=middle;whiteSpace=wrap;rounded=0;" parent="1" vertex="1">
          <mxGeometry x="184" y="40" width="510" height="30" as="geometry" />
        </mxCell>
        <mxCell id="z9jJJr1QuuOx36FKF8ej-2" value="Клиент" style="shape=umlActor;verticalLabelPosition=bottom;verticalAlign=top;html=1;outlineConnect=0;" parent="1" vertex="1">
          <mxGeometry x="473.5" y="334" width="30" height="60" as="geometry" />
        </mxCell>
        <mxCell id="z9jJJr1QuuOx36FKF8ej-3" value="менеджер" style="shape=umlActor;verticalLabelPosition=bottom;verticalAlign=top;html=1;outlineConnect=0;" parent="1" vertex="1">
          <mxGeometry x="546.5" y="654" width="30" height="56" as="geometry" />
        </mxCell>
        <mxCell id="z9jJJr1QuuOx36FKF8ej-4" value="Зарегистрироваться в системе" style="ellipse;whiteSpace=wrap;html=1;" parent="1" vertex="1">
          <mxGeometry x="569.5" y="340" width="90" height="60" as="geometry" />
        </mxCell>
        <mxCell id="z9jJJr1QuuOx36FKF8ej-5" value="Войти в аккаунт" style="ellipse;whiteSpace=wrap;html=1;" parent="1" vertex="1">
          <mxGeometry x="531.5" y="239" width="90" height="60" as="geometry" />
        </mxCell>
        <mxCell id="z9jJJr1QuuOx36FKF8ej-6" value="Оформить заявку на кредитование" style="ellipse;whiteSpace=wrap;html=1;" parent="1" vertex="1">
          <mxGeometry x="198" y="306" width="90" height="60" as="geometry" />
        </mxCell>
        <mxCell id="z9jJJr1QuuOx36FKF8ej-7" value="Ввести личную информацию" style="ellipse;whiteSpace=wrap;html=1;" parent="1" vertex="1">
          <mxGeometry x="729.5" y="334" width="90" height="60" as="geometry" />
        </mxCell>
        <mxCell id="z9jJJr1QuuOx36FKF8ej-8" value="Добавить документы идентификации личности" style="ellipse;whiteSpace=wrap;html=1;" parent="1" vertex="1">
          <mxGeometry x="713.5" y="400" width="100" height="60" as="geometry" />
        </mxCell>
        <mxCell id="z9jJJr1QuuOx36FKF8ej-9" value="Выбрать сумму" style="ellipse;whiteSpace=wrap;html=1;" parent="1" vertex="1">
          <mxGeometry x="147" y="450" width="90" height="60" as="geometry" />
        </mxCell>
        <mxCell id="z9jJJr1QuuOx36FKF8ej-10" value="Выбрать вид займа" style="ellipse;whiteSpace=wrap;html=1;" parent="1" vertex="1">
          <mxGeometry x="244" y="450" width="90" height="60" as="geometry" />
        </mxCell>
        <mxCell id="z9jJJr1QuuOx36FKF8ej-11" value="Предоставить документы соответствующие выбранному виду займа" style="ellipse;whiteSpace=wrap;html=1;" parent="1" vertex="1">
          <mxGeometry x="8" y="350" width="100" height="60" as="geometry" />
        </mxCell>
        <mxCell id="z9jJJr1QuuOx36FKF8ej-12" value="Отправить запрос на подтверждение&amp;nbsp;" style="ellipse;whiteSpace=wrap;html=1;" parent="1" vertex="1">
          <mxGeometry x="48" y="280" width="110" height="60" as="geometry" />
        </mxCell>
        <mxCell id="z9jJJr1QuuOx36FKF8ej-13" value="" style="endArrow=none;html=1;rounded=0;entryX=0;entryY=0.5;entryDx=0;entryDy=0;exitX=0.5;exitY=0.5;exitDx=0;exitDy=0;exitPerimeter=0;" parent="1" source="z9jJJr1QuuOx36FKF8ej-2" target="z9jJJr1QuuOx36FKF8ej-4" edge="1">
          <mxGeometry width="50" height="50" relative="1" as="geometry">
            <mxPoint x="343.5" y="424" as="sourcePoint" />
            <mxPoint x="393.5" y="374" as="targetPoint" />
          </mxGeometry>
        </mxCell>
        <mxCell id="z9jJJr1QuuOx36FKF8ej-14" value="" style="html=1;verticalAlign=bottom;labelBackgroundColor=none;endArrow=block;endFill=1;dashed=1;rounded=0;entryX=0.5;entryY=0;entryDx=0;entryDy=0;exitX=0.5;exitY=1;exitDx=0;exitDy=0;" parent="1" source="z9jJJr1QuuOx36FKF8ej-6" target="z9jJJr1QuuOx36FKF8ej-9" edge="1">
          <mxGeometry width="160" relative="1" as="geometry">
            <mxPoint x="238" y="360" as="sourcePoint" />
            <mxPoint x="148" y="636" as="targetPoint" />
          </mxGeometry>
        </mxCell>
        <mxCell id="z9jJJr1QuuOx36FKF8ej-15" value="" style="html=1;verticalAlign=bottom;labelBackgroundColor=none;endArrow=block;endFill=1;dashed=1;rounded=0;exitX=1;exitY=1;exitDx=0;exitDy=0;entryX=0;entryY=0;entryDx=0;entryDy=0;" parent="1" source="z9jJJr1QuuOx36FKF8ej-4" target="z9jJJr1QuuOx36FKF8ej-8" edge="1">
          <mxGeometry width="160" relative="1" as="geometry">
            <mxPoint x="291.5" y="472" as="sourcePoint" />
            <mxPoint x="451.5" y="472" as="targetPoint" />
          </mxGeometry>
        </mxCell>
        <mxCell id="z9jJJr1QuuOx36FKF8ej-16" value="" style="endArrow=none;html=1;rounded=0;entryX=0.5;entryY=0.5;entryDx=0;entryDy=0;entryPerimeter=0;exitX=1;exitY=0.5;exitDx=0;exitDy=0;" parent="1" source="z9jJJr1QuuOx36FKF8ej-6" target="z9jJJr1QuuOx36FKF8ej-2" edge="1">
          <mxGeometry width="50" height="50" relative="1" as="geometry">
            <mxPoint x="323.5" y="444" as="sourcePoint" />
            <mxPoint x="373.5" y="394" as="targetPoint" />
          </mxGeometry>
        </mxCell>
        <mxCell id="z9jJJr1QuuOx36FKF8ej-17" value="" style="html=1;verticalAlign=bottom;labelBackgroundColor=none;endArrow=block;endFill=1;dashed=1;rounded=0;exitX=0.5;exitY=1;exitDx=0;exitDy=0;entryX=0.5;entryY=0;entryDx=0;entryDy=0;" parent="1" source="z9jJJr1QuuOx36FKF8ej-6" target="z9jJJr1QuuOx36FKF8ej-10" edge="1">
          <mxGeometry width="160" relative="1" as="geometry">
            <mxPoint x="108" y="446" as="sourcePoint" />
            <mxPoint x="268" y="446" as="targetPoint" />
            <Array as="points" />
          </mxGeometry>
        </mxCell>
        <mxCell id="z9jJJr1QuuOx36FKF8ej-18" value="" style="html=1;verticalAlign=bottom;labelBackgroundColor=none;endArrow=block;endFill=1;dashed=1;rounded=0;exitX=0;exitY=0.5;exitDx=0;exitDy=0;entryX=1;entryY=0.5;entryDx=0;entryDy=0;" parent="1" source="z9jJJr1QuuOx36FKF8ej-6" target="z9jJJr1QuuOx36FKF8ej-12" edge="1">
          <mxGeometry width="160" relative="1" as="geometry">
            <mxPoint x="108" y="446" as="sourcePoint" />
            <mxPoint x="268" y="446" as="targetPoint" />
          </mxGeometry>
        </mxCell>
        <mxCell id="z9jJJr1QuuOx36FKF8ej-19" value="" style="html=1;verticalAlign=bottom;labelBackgroundColor=none;endArrow=block;endFill=1;dashed=1;rounded=0;exitX=0;exitY=1;exitDx=0;exitDy=0;entryX=1;entryY=0.5;entryDx=0;entryDy=0;" parent="1" source="z9jJJr1QuuOx36FKF8ej-6" target="z9jJJr1QuuOx36FKF8ej-11" edge="1">
          <mxGeometry width="160" relative="1" as="geometry">
            <mxPoint x="207.5" y="377.5" as="sourcePoint" />
            <mxPoint x="268" y="446" as="targetPoint" />
          </mxGeometry>
        </mxCell>
        <mxCell id="z9jJJr1QuuOx36FKF8ej-20" value="" style="html=1;verticalAlign=bottom;labelBackgroundColor=none;endArrow=block;endFill=1;dashed=1;rounded=0;exitX=1;exitY=0.5;exitDx=0;exitDy=0;entryX=0;entryY=0.5;entryDx=0;entryDy=0;" parent="1" source="z9jJJr1QuuOx36FKF8ej-4" target="z9jJJr1QuuOx36FKF8ej-7" edge="1">
          <mxGeometry width="160" relative="1" as="geometry">
            <mxPoint x="717.4974746830583" y="275.21320343559637" as="sourcePoint" />
            <mxPoint x="458" y="384" as="targetPoint" />
          </mxGeometry>
        </mxCell>
        <mxCell id="z9jJJr1QuuOx36FKF8ej-21" value="Выбрать тип лица, которому будут оказана услуга" style="ellipse;whiteSpace=wrap;html=1;" parent="1" vertex="1">
          <mxGeometry x="58" y="405" width="100" height="60" as="geometry" />
        </mxCell>
        <mxCell id="z9jJJr1QuuOx36FKF8ej-22" value="" style="html=1;verticalAlign=bottom;labelBackgroundColor=none;endArrow=block;endFill=1;dashed=1;rounded=0;exitX=0.5;exitY=1;exitDx=0;exitDy=0;entryX=1;entryY=0.5;entryDx=0;entryDy=0;" parent="1" source="z9jJJr1QuuOx36FKF8ej-6" target="z9jJJr1QuuOx36FKF8ej-21" edge="1">
          <mxGeometry width="160" relative="1" as="geometry">
            <mxPoint x="188" y="486" as="sourcePoint" />
            <mxPoint x="348" y="486" as="targetPoint" />
          </mxGeometry>
        </mxCell>
        <mxCell id="z9jJJr1QuuOx36FKF8ej-23" value="Оформить договор займа" style="ellipse;whiteSpace=wrap;html=1;" parent="1" vertex="1">
          <mxGeometry x="676.5" y="584" width="90" height="60" as="geometry" />
        </mxCell>
        <mxCell id="z9jJJr1QuuOx36FKF8ej-24" value="" style="endArrow=none;html=1;rounded=0;exitX=0.5;exitY=0.5;exitDx=0;exitDy=0;exitPerimeter=0;entryX=0;entryY=0.5;entryDx=0;entryDy=0;" parent="1" source="z9jJJr1QuuOx36FKF8ej-3" target="z9jJJr1QuuOx36FKF8ej-23" edge="1">
          <mxGeometry width="50" height="50" relative="1" as="geometry">
            <mxPoint x="746.5" y="654" as="sourcePoint" />
            <mxPoint x="796.5" y="604" as="targetPoint" />
          </mxGeometry>
        </mxCell>
        <mxCell id="z9jJJr1QuuOx36FKF8ej-25" value="" style="endArrow=none;html=1;rounded=0;exitX=0.5;exitY=0.5;exitDx=0;exitDy=0;exitPerimeter=0;entryX=0;entryY=0;entryDx=0;entryDy=0;" parent="1" source="z9jJJr1QuuOx36FKF8ej-2" target="z9jJJr1QuuOx36FKF8ej-49" edge="1">
          <mxGeometry width="50" height="50" relative="1" as="geometry">
            <mxPoint x="463.5" y="574" as="sourcePoint" />
            <mxPoint x="536.6801948466054" y="442.78679656440363" as="targetPoint" />
          </mxGeometry>
        </mxCell>
        <mxCell id="z9jJJr1QuuOx36FKF8ej-26" value="Известить об отказе в займе" style="ellipse;whiteSpace=wrap;html=1;" parent="1" vertex="1">
          <mxGeometry x="696.5" y="644" width="90" height="60" as="geometry" />
        </mxCell>
        <mxCell id="z9jJJr1QuuOx36FKF8ej-27" value="" style="endArrow=none;html=1;rounded=0;exitX=0.5;exitY=0.5;exitDx=0;exitDy=0;exitPerimeter=0;entryX=0;entryY=0.5;entryDx=0;entryDy=0;" parent="1" source="z9jJJr1QuuOx36FKF8ej-3" target="z9jJJr1QuuOx36FKF8ej-26" edge="1">
          <mxGeometry width="50" height="50" relative="1" as="geometry">
            <mxPoint x="746.5" y="644" as="sourcePoint" />
            <mxPoint x="796.5" y="594" as="targetPoint" />
          </mxGeometry>
        </mxCell>
        <mxCell id="z9jJJr1QuuOx36FKF8ej-28" value="include" style="text;html=1;strokeColor=none;fillColor=none;align=center;verticalAlign=middle;whiteSpace=wrap;rounded=0;fontSize=10;" parent="1" vertex="1">
          <mxGeometry x="671.5" y="312" width="40" height="20" as="geometry" />
        </mxCell>
        <mxCell id="z9jJJr1QuuOx36FKF8ej-29" value="include" style="text;html=1;strokeColor=none;fillColor=none;align=center;verticalAlign=middle;whiteSpace=wrap;rounded=0;fontSize=10;" parent="1" vertex="1">
          <mxGeometry x="687.5" y="380" width="40" height="20" as="geometry" />
        </mxCell>
        <mxCell id="z9jJJr1QuuOx36FKF8ej-30" value="Помочь с оформлением заявки на кредитование" style="ellipse;whiteSpace=wrap;html=1;" parent="1" vertex="1">
          <mxGeometry x="546.5" y="550" width="90" height="60" as="geometry" />
        </mxCell>
        <mxCell id="z9jJJr1QuuOx36FKF8ej-31" value="" style="endArrow=none;html=1;rounded=0;fontSize=12;exitX=0.5;exitY=0.5;exitDx=0;exitDy=0;exitPerimeter=0;entryX=0.5;entryY=1;entryDx=0;entryDy=0;" parent="1" source="z9jJJr1QuuOx36FKF8ej-3" target="z9jJJr1QuuOx36FKF8ej-30" edge="1">
          <mxGeometry width="50" height="50" relative="1" as="geometry">
            <mxPoint x="896.5" y="590" as="sourcePoint" />
            <mxPoint x="946.5" y="540" as="targetPoint" />
          </mxGeometry>
        </mxCell>
        <mxCell id="z9jJJr1QuuOx36FKF8ej-32" value="&quot;include&quot;" style="text;html=1;strokeColor=none;fillColor=none;align=center;verticalAlign=middle;whiteSpace=wrap;rounded=0;fontSize=12;" parent="1" vertex="1">
          <mxGeometry x="253" y="395" width="51" height="15" as="geometry" />
        </mxCell>
        <mxCell id="z9jJJr1QuuOx36FKF8ej-33" value="&quot;include&quot;" style="text;html=1;strokeColor=none;fillColor=none;align=center;verticalAlign=middle;whiteSpace=wrap;rounded=0;fontSize=12;" parent="1" vertex="1">
          <mxGeometry x="198.5" y="410" width="51" height="15" as="geometry" />
        </mxCell>
        <mxCell id="z9jJJr1QuuOx36FKF8ej-34" value="&quot;include&quot;" style="text;html=1;strokeColor=none;fillColor=none;align=center;verticalAlign=middle;whiteSpace=wrap;rounded=0;fontSize=12;" parent="1" vertex="1">
          <mxGeometry x="133" y="351" width="51" height="15" as="geometry" />
        </mxCell>
        <mxCell id="z9jJJr1QuuOx36FKF8ej-35" value="&quot;include&quot;" style="text;html=1;strokeColor=none;fillColor=none;align=center;verticalAlign=middle;whiteSpace=wrap;rounded=0;fontSize=12;" parent="1" vertex="1">
          <mxGeometry x="147" y="327" width="51" height="15" as="geometry" />
        </mxCell>
        <mxCell id="z9jJJr1QuuOx36FKF8ej-36" value="Ввести логин" style="ellipse;whiteSpace=wrap;html=1;" parent="1" vertex="1">
          <mxGeometry x="491.5" y="149" width="90" height="60" as="geometry" />
        </mxCell>
        <mxCell id="z9jJJr1QuuOx36FKF8ej-37" value="Ввести контактную информацию" style="ellipse;whiteSpace=wrap;html=1;" parent="1" vertex="1">
          <mxGeometry x="709.5" y="263" width="90" height="60" as="geometry" />
        </mxCell>
        <mxCell id="z9jJJr1QuuOx36FKF8ej-38" value="Ввести пароль" style="ellipse;whiteSpace=wrap;html=1;" parent="1" vertex="1">
          <mxGeometry x="589.5" y="149" width="90" height="60" as="geometry" />
        </mxCell>
        <mxCell id="z9jJJr1QuuOx36FKF8ej-39" value="Восстановить аккаунт" style="ellipse;whiteSpace=wrap;html=1;" parent="1" vertex="1">
          <mxGeometry x="646.5" y="200" width="90" height="60" as="geometry" />
        </mxCell>
        <mxCell id="z9jJJr1QuuOx36FKF8ej-40" value="Выйти из аккаунта" style="ellipse;whiteSpace=wrap;html=1;" parent="1" vertex="1">
          <mxGeometry x="383.5" y="185" width="90" height="60" as="geometry" />
        </mxCell>
        <mxCell id="z9jJJr1QuuOx36FKF8ej-41" value="Узнать информацию счета" style="ellipse;whiteSpace=wrap;html=1;" parent="1" vertex="1">
          <mxGeometry x="263.5" y="220" width="90" height="60" as="geometry" />
        </mxCell>
        <mxCell id="z9jJJr1QuuOx36FKF8ej-42" value="Узнать баланс карт" style="ellipse;whiteSpace=wrap;html=1;" parent="1" vertex="1">
          <mxGeometry x="299.5" y="140" width="90" height="60" as="geometry" />
        </mxCell>
        <mxCell id="z9jJJr1QuuOx36FKF8ej-43" value="Узнать историю операций" style="ellipse;whiteSpace=wrap;html=1;" parent="1" vertex="1">
          <mxGeometry x="183.5" y="140" width="90" height="60" as="geometry" />
        </mxCell>
        <mxCell id="z9jJJr1QuuOx36FKF8ej-44" value="Узнать реквизиты" style="ellipse;whiteSpace=wrap;html=1;" parent="1" vertex="1">
          <mxGeometry x="133" y="209" width="90" height="60" as="geometry" />
        </mxCell>
        <mxCell id="z9jJJr1QuuOx36FKF8ej-45" value="" style="endArrow=none;html=1;rounded=0;entryX=0.5;entryY=0.5;entryDx=0;entryDy=0;entryPerimeter=0;exitX=1;exitY=1;exitDx=0;exitDy=0;" parent="1" source="z9jJJr1QuuOx36FKF8ej-41" target="z9jJJr1QuuOx36FKF8ej-2" edge="1">
          <mxGeometry width="50" height="50" relative="1" as="geometry">
            <mxPoint x="270.31980515339455" y="317.78679656440363" as="sourcePoint" />
            <mxPoint x="498.5" y="374" as="targetPoint" />
          </mxGeometry>
        </mxCell>
        <mxCell id="z9jJJr1QuuOx36FKF8ej-46" value="" style="endArrow=none;html=1;rounded=0;entryX=0.5;entryY=0.5;entryDx=0;entryDy=0;entryPerimeter=0;exitX=0.5;exitY=1;exitDx=0;exitDy=0;" parent="1" source="z9jJJr1QuuOx36FKF8ej-40" target="z9jJJr1QuuOx36FKF8ej-2" edge="1">
          <mxGeometry width="50" height="50" relative="1" as="geometry">
            <mxPoint x="350.31980515339455" y="291.21320343559637" as="sourcePoint" />
            <mxPoint x="498.5" y="374" as="targetPoint" />
          </mxGeometry>
        </mxCell>
        <mxCell id="z9jJJr1QuuOx36FKF8ej-47" value="" style="endArrow=none;html=1;rounded=0;exitX=0;exitY=1;exitDx=0;exitDy=0;entryX=0.5;entryY=0.5;entryDx=0;entryDy=0;entryPerimeter=0;" parent="1" source="z9jJJr1QuuOx36FKF8ej-5" target="z9jJJr1QuuOx36FKF8ej-2" edge="1">
          <mxGeometry width="50" height="50" relative="1" as="geometry">
            <mxPoint x="360.31980515339455" y="301.21320343559637" as="sourcePoint" />
            <mxPoint x="539.5" y="350" as="targetPoint" />
          </mxGeometry>
        </mxCell>
        <mxCell id="z9jJJr1QuuOx36FKF8ej-48" value="" style="endArrow=none;html=1;rounded=0;entryX=0;entryY=0;entryDx=0;entryDy=0;exitX=0.5;exitY=0.5;exitDx=0;exitDy=0;exitPerimeter=0;" parent="1" source="z9jJJr1QuuOx36FKF8ej-2" target="z9jJJr1QuuOx36FKF8ej-50" edge="1">
          <mxGeometry width="50" height="50" relative="1" as="geometry">
            <mxPoint x="646.4998051533946" y="510.00320343559633" as="sourcePoint" />
            <mxPoint x="794.6800000000001" y="592.79" as="targetPoint" />
          </mxGeometry>
        </mxCell>
        <mxCell id="z9jJJr1QuuOx36FKF8ej-49" value="Оставить заявку на закрытие счета" style="ellipse;whiteSpace=wrap;html=1;" parent="1" vertex="1">
          <mxGeometry x="621.5" y="420" width="90" height="60" as="geometry" />
        </mxCell>
        <mxCell id="z9jJJr1QuuOx36FKF8ej-50" value="Оставить заявку на оформение карты" style="ellipse;whiteSpace=wrap;html=1;" parent="1" vertex="1">
          <mxGeometry x="531.5" y="440" width="90" height="60" as="geometry" />
        </mxCell>
        <mxCell id="z9jJJr1QuuOx36FKF8ej-51" value="Перевыпуск карты" style="ellipse;whiteSpace=wrap;html=1;" parent="1" vertex="1">
          <mxGeometry x="441.5" y="450" width="90" height="60" as="geometry" />
        </mxCell>
        <mxCell id="z9jJJr1QuuOx36FKF8ej-52" value="&quot;include&quot;" style="text;html=1;strokeColor=none;fillColor=none;align=center;verticalAlign=middle;whiteSpace=wrap;rounded=0;fontSize=12;" parent="1" vertex="1">
          <mxGeometry x="172" y="380" width="51" height="15" as="geometry" />
        </mxCell>
        <mxCell id="z9jJJr1QuuOx36FKF8ej-53" value="" style="endArrow=none;html=1;rounded=0;entryX=0.5;entryY=0;entryDx=0;entryDy=0;exitX=0.5;exitY=0.5;exitDx=0;exitDy=0;exitPerimeter=0;" parent="1" source="z9jJJr1QuuOx36FKF8ej-2" target="z9jJJr1QuuOx36FKF8ej-51" edge="1">
          <mxGeometry width="50" height="50" relative="1" as="geometry">
            <mxPoint x="519.5" y="390" as="sourcePoint" />
            <mxPoint x="554.6801948466054" y="458.78679656440363" as="targetPoint" />
          </mxGeometry>
        </mxCell>
        <mxCell id="z9jJJr1QuuOx36FKF8ej-54" value="Обратиться в поддержку" style="ellipse;whiteSpace=wrap;html=1;" parent="1" vertex="1">
          <mxGeometry x="351.5" y="387.5" width="90" height="60" as="geometry" />
        </mxCell>
        <mxCell id="z9jJJr1QuuOx36FKF8ej-55" value="" style="endArrow=none;html=1;rounded=0;entryX=1;entryY=0;entryDx=0;entryDy=0;exitX=0.5;exitY=0.5;exitDx=0;exitDy=0;exitPerimeter=0;" parent="1" source="z9jJJr1QuuOx36FKF8ej-2" target="z9jJJr1QuuOx36FKF8ej-54" edge="1">
          <mxGeometry width="50" height="50" relative="1" as="geometry">
            <mxPoint x="519.5" y="340" as="sourcePoint" />
            <mxPoint x="496.5" y="460" as="targetPoint" />
          </mxGeometry>
        </mxCell>
        <mxCell id="z9jJJr1QuuOx36FKF8ej-56" value="" style="html=1;verticalAlign=bottom;labelBackgroundColor=none;endArrow=block;endFill=1;dashed=1;rounded=0;exitX=1;exitY=0;exitDx=0;exitDy=0;entryX=0;entryY=1;entryDx=0;entryDy=0;" parent="1" source="z9jJJr1QuuOx36FKF8ej-4" target="z9jJJr1QuuOx36FKF8ej-37" edge="1">
          <mxGeometry width="160" relative="1" as="geometry">
            <mxPoint x="669.4999999999905" y="380" as="sourcePoint" />
            <mxPoint x="739.4999999999995" y="374" as="targetPoint" />
          </mxGeometry>
        </mxCell>
        <mxCell id="z9jJJr1QuuOx36FKF8ej-57" value="" style="html=1;verticalAlign=bottom;labelBackgroundColor=none;endArrow=block;endFill=1;dashed=1;rounded=0;exitX=1;exitY=0.5;exitDx=0;exitDy=0;entryX=0;entryY=1;entryDx=0;entryDy=0;" parent="1" source="z9jJJr1QuuOx36FKF8ej-5" target="z9jJJr1QuuOx36FKF8ej-39" edge="1">
          <mxGeometry width="160" relative="1" as="geometry">
            <mxPoint x="656.5298299698156" y="358.9277434409104" as="sourcePoint" />
            <mxPoint x="732.4701700301962" y="324.072256559081" as="targetPoint" />
          </mxGeometry>
        </mxCell>
        <mxCell id="z9jJJr1QuuOx36FKF8ej-58" value="" style="html=1;verticalAlign=bottom;labelBackgroundColor=none;endArrow=block;endFill=1;dashed=1;rounded=0;exitX=1;exitY=0;exitDx=0;exitDy=0;entryX=0.349;entryY=0.971;entryDx=0;entryDy=0;entryPerimeter=0;" parent="1" source="z9jJJr1QuuOx36FKF8ej-5" target="z9jJJr1QuuOx36FKF8ej-38" edge="1">
          <mxGeometry width="160" relative="1" as="geometry">
            <mxPoint x="631.5" y="279" as="sourcePoint" />
            <mxPoint x="669.4701700301966" y="261.0722565590813" as="targetPoint" />
          </mxGeometry>
        </mxCell>
        <mxCell id="z9jJJr1QuuOx36FKF8ej-59" value="" style="html=1;verticalAlign=bottom;labelBackgroundColor=none;endArrow=block;endFill=1;dashed=1;rounded=0;exitX=0.5;exitY=0;exitDx=0;exitDy=0;entryX=0.716;entryY=0.955;entryDx=0;entryDy=0;entryPerimeter=0;" parent="1" source="z9jJJr1QuuOx36FKF8ej-5" target="z9jJJr1QuuOx36FKF8ej-36" edge="1">
          <mxGeometry width="160" relative="1" as="geometry">
            <mxPoint x="618.5298299698029" y="257.92774344091936" as="sourcePoint" />
            <mxPoint x="630.9099999999999" y="217.25999999999988" as="targetPoint" />
          </mxGeometry>
        </mxCell>
        <mxCell id="z9jJJr1QuuOx36FKF8ej-60" value="" style="html=1;verticalAlign=bottom;labelBackgroundColor=none;endArrow=block;endFill=1;dashed=1;rounded=0;exitX=1;exitY=0;exitDx=0;exitDy=0;entryX=0.5;entryY=1;entryDx=0;entryDy=0;" parent="1" source="z9jJJr1QuuOx36FKF8ej-41" target="z9jJJr1QuuOx36FKF8ej-42" edge="1">
          <mxGeometry width="160" relative="1" as="geometry">
            <mxPoint x="586.5" y="249" as="sourcePoint" />
            <mxPoint x="565.94" y="216.30000000000007" as="targetPoint" />
          </mxGeometry>
        </mxCell>
        <mxCell id="z9jJJr1QuuOx36FKF8ej-61" value="" style="html=1;verticalAlign=bottom;labelBackgroundColor=none;endArrow=block;endFill=1;dashed=1;rounded=0;exitX=0;exitY=0;exitDx=0;exitDy=0;entryX=0.75;entryY=0.979;entryDx=0;entryDy=0;entryPerimeter=0;" parent="1" source="z9jJJr1QuuOx36FKF8ej-41" target="z9jJJr1QuuOx36FKF8ej-43" edge="1">
          <mxGeometry width="160" relative="1" as="geometry">
            <mxPoint x="350.5298299698161" y="238.92774344091038" as="sourcePoint" />
            <mxPoint x="354.5" y="210" as="targetPoint" />
          </mxGeometry>
        </mxCell>
        <mxCell id="z9jJJr1QuuOx36FKF8ej-62" value="" style="html=1;verticalAlign=bottom;labelBackgroundColor=none;endArrow=block;endFill=1;dashed=1;rounded=0;exitX=0;exitY=0.5;exitDx=0;exitDy=0;entryX=1;entryY=0.5;entryDx=0;entryDy=0;" parent="1" source="z9jJJr1QuuOx36FKF8ej-41" target="z9jJJr1QuuOx36FKF8ej-44" edge="1">
          <mxGeometry width="160" relative="1" as="geometry">
            <mxPoint x="286.47017003018436" y="238.9277434409105" as="sourcePoint" />
            <mxPoint x="261" y="208.74" as="targetPoint" />
          </mxGeometry>
        </mxCell>
        <mxCell id="z9jJJr1QuuOx36FKF8ej-63" value="include" style="text;html=1;strokeColor=none;fillColor=none;align=center;verticalAlign=middle;whiteSpace=wrap;rounded=0;fontSize=10;" parent="1" vertex="1">
          <mxGeometry x="599.5" y="219" width="40" height="20" as="geometry" />
        </mxCell>
        <mxCell id="z9jJJr1QuuOx36FKF8ej-64" value="include" style="text;html=1;strokeColor=none;fillColor=none;align=center;verticalAlign=middle;whiteSpace=wrap;rounded=0;fontSize=10;" parent="1" vertex="1">
          <mxGeometry x="541.5" y="219" width="40" height="20" as="geometry" />
        </mxCell>
        <mxCell id="z9jJJr1QuuOx36FKF8ej-65" value="extend" style="text;html=1;strokeColor=none;fillColor=none;align=center;verticalAlign=middle;whiteSpace=wrap;rounded=0;fontSize=10;" parent="1" vertex="1">
          <mxGeometry x="259.5" y="209" width="40" height="20" as="geometry" />
        </mxCell>
        <mxCell id="z9jJJr1QuuOx36FKF8ej-66" value="extend" style="text;html=1;strokeColor=none;fillColor=none;align=center;verticalAlign=middle;whiteSpace=wrap;rounded=0;fontSize=10;" parent="1" vertex="1">
          <mxGeometry x="223.5" y="243" width="40" height="20" as="geometry" />
        </mxCell>
        <mxCell id="z9jJJr1QuuOx36FKF8ej-67" value="extend" style="text;html=1;strokeColor=none;fillColor=none;align=center;verticalAlign=middle;whiteSpace=wrap;rounded=0;fontSize=10;" parent="1" vertex="1">
          <mxGeometry x="304" y="205" width="40" height="20" as="geometry" />
        </mxCell>
        <mxCell id="z9jJJr1QuuOx36FKF8ej-68" value="Служба поддержки" style="shape=umlActor;verticalLabelPosition=bottom;verticalAlign=top;html=1;outlineConnect=0;" parent="1" vertex="1">
          <mxGeometry x="210" y="894" width="30" height="60" as="geometry" />
        </mxCell>
        <mxCell id="z9jJJr1QuuOx36FKF8ej-69" value="Ответить на сообщение" style="ellipse;whiteSpace=wrap;html=1;" parent="1" vertex="1">
          <mxGeometry x="340" y="824" width="90" height="60" as="geometry" />
        </mxCell>
        <mxCell id="z9jJJr1QuuOx36FKF8ej-70" value="" style="endArrow=none;html=1;rounded=0;exitX=0.5;exitY=0.5;exitDx=0;exitDy=0;exitPerimeter=0;entryX=0;entryY=0.5;entryDx=0;entryDy=0;" parent="1" source="z9jJJr1QuuOx36FKF8ej-68" target="z9jJJr1QuuOx36FKF8ej-69" edge="1">
          <mxGeometry width="50" height="50" relative="1" as="geometry">
            <mxPoint x="410" y="894" as="sourcePoint" />
            <mxPoint x="460" y="844" as="targetPoint" />
          </mxGeometry>
        </mxCell>
        <mxCell id="z9jJJr1QuuOx36FKF8ej-71" value="Помочь с настройкой приложения" style="ellipse;whiteSpace=wrap;html=1;" parent="1" vertex="1">
          <mxGeometry x="350" y="904" width="90" height="60" as="geometry" />
        </mxCell>
        <mxCell id="z9jJJr1QuuOx36FKF8ej-72" value="" style="endArrow=none;html=1;rounded=0;exitX=0.5;exitY=0.5;exitDx=0;exitDy=0;exitPerimeter=0;entryX=0;entryY=0.5;entryDx=0;entryDy=0;" parent="1" source="z9jJJr1QuuOx36FKF8ej-68" target="z9jJJr1QuuOx36FKF8ej-71" edge="1">
          <mxGeometry width="50" height="50" relative="1" as="geometry">
            <mxPoint x="410" y="884" as="sourcePoint" />
            <mxPoint x="460" y="834" as="targetPoint" />
          </mxGeometry>
        </mxCell>
        <mxCell id="z9jJJr1QuuOx36FKF8ej-73" value="Проверить состояние счета клиента" style="ellipse;whiteSpace=wrap;html=1;" parent="1" vertex="1">
          <mxGeometry x="210" y="790" width="90" height="60" as="geometry" />
        </mxCell>
        <mxCell id="z9jJJr1QuuOx36FKF8ej-74" value="" style="endArrow=none;html=1;rounded=0;fontSize=12;exitX=0.5;exitY=0.5;exitDx=0;exitDy=0;exitPerimeter=0;entryX=0.5;entryY=1;entryDx=0;entryDy=0;" parent="1" source="z9jJJr1QuuOx36FKF8ej-68" target="z9jJJr1QuuOx36FKF8ej-73" edge="1">
          <mxGeometry width="50" height="50" relative="1" as="geometry">
            <mxPoint x="560" y="830" as="sourcePoint" />
            <mxPoint x="610" y="780" as="targetPoint" />
          </mxGeometry>
        </mxCell>
        <mxCell id="z9jJJr1QuuOx36FKF8ej-75" value="Рассказать о состоянии кредита" style="ellipse;whiteSpace=wrap;html=1;" parent="1" vertex="1">
          <mxGeometry x="82" y="730" width="90" height="60" as="geometry" />
        </mxCell>
        <mxCell id="z9jJJr1QuuOx36FKF8ej-76" value="Узнать баланс карт" style="ellipse;whiteSpace=wrap;html=1;" parent="1" vertex="1">
          <mxGeometry x="293.5" y="700" width="90" height="60" as="geometry" />
        </mxCell>
        <mxCell id="z9jJJr1QuuOx36FKF8ej-77" value="Узнать историю операций" style="ellipse;whiteSpace=wrap;html=1;" parent="1" vertex="1">
          <mxGeometry x="184" y="694" width="90" height="60" as="geometry" />
        </mxCell>
        <mxCell id="z9jJJr1QuuOx36FKF8ej-78" value="Рассказать о ближайших банкоматах и отделениях" style="ellipse;whiteSpace=wrap;html=1;" parent="1" vertex="1">
          <mxGeometry x="30" y="870" width="90" height="60" as="geometry" />
        </mxCell>
        <mxCell id="z9jJJr1QuuOx36FKF8ej-79" value="" style="endArrow=none;html=1;rounded=0;exitX=1;exitY=0.5;exitDx=0;exitDy=0;entryX=0.5;entryY=0.5;entryDx=0;entryDy=0;entryPerimeter=0;" parent="1" source="z9jJJr1QuuOx36FKF8ej-78" target="z9jJJr1QuuOx36FKF8ej-68" edge="1">
          <mxGeometry width="50" height="50" relative="1" as="geometry">
            <mxPoint x="235" y="934" as="sourcePoint" />
            <mxPoint x="350" y="864" as="targetPoint" />
          </mxGeometry>
        </mxCell>
        <mxCell id="z9jJJr1QuuOx36FKF8ej-80" value="" style="html=1;verticalAlign=bottom;labelBackgroundColor=none;endArrow=block;endFill=1;dashed=1;rounded=0;exitX=0;exitY=1;exitDx=0;exitDy=0;entryX=1;entryY=0;entryDx=0;entryDy=0;" parent="1" source="z9jJJr1QuuOx36FKF8ej-76" target="z9jJJr1QuuOx36FKF8ej-73" edge="1">
          <mxGeometry width="160" relative="1" as="geometry">
            <mxPoint x="364.3601948465991" y="770.0032034356007" as="sourcePoint" />
            <mxPoint x="287.99980515339456" y="804.5767965644036" as="targetPoint" />
          </mxGeometry>
        </mxCell>
        <mxCell id="z9jJJr1QuuOx36FKF8ej-81" value="" style="html=1;verticalAlign=bottom;labelBackgroundColor=none;endArrow=block;endFill=1;dashed=1;rounded=0;entryX=0.5;entryY=0;entryDx=0;entryDy=0;" parent="1" source="z9jJJr1QuuOx36FKF8ej-77" target="z9jJJr1QuuOx36FKF8ej-73" edge="1">
          <mxGeometry width="160" relative="1" as="geometry">
            <mxPoint x="316.6801948466084" y="761.2132034355943" as="sourcePoint" />
            <mxPoint x="296.8198051533948" y="808.7867965644036" as="targetPoint" />
          </mxGeometry>
        </mxCell>
        <mxCell id="z9jJJr1QuuOx36FKF8ej-82" value="" style="html=1;verticalAlign=bottom;labelBackgroundColor=none;endArrow=block;endFill=1;dashed=1;rounded=0;entryX=0;entryY=0;entryDx=0;entryDy=0;exitX=1;exitY=0.5;exitDx=0;exitDy=0;" parent="1" source="z9jJJr1QuuOx36FKF8ej-75" target="z9jJJr1QuuOx36FKF8ej-73" edge="1">
          <mxGeometry width="160" relative="1" as="geometry">
            <mxPoint x="250.38889357394532" y="763.0233094303767" as="sourcePoint" />
            <mxPoint x="265" y="800" as="targetPoint" />
          </mxGeometry>
        </mxCell>
        <mxCell id="z9jJJr1QuuOx36FKF8ej-83" value="Помочь закрыть счет" style="ellipse;whiteSpace=wrap;html=1;" parent="1" vertex="1">
          <mxGeometry x="430" y="580" width="90" height="60" as="geometry" />
        </mxCell>
        <mxCell id="z9jJJr1QuuOx36FKF8ej-84" value="Выдать карту" style="ellipse;whiteSpace=wrap;html=1;" parent="1" vertex="1">
          <mxGeometry x="420" y="654" width="90" height="60" as="geometry" />
        </mxCell>
        <mxCell id="z9jJJr1QuuOx36FKF8ej-85" value="" style="endArrow=none;html=1;rounded=0;exitX=0.987;exitY=0.413;exitDx=0;exitDy=0;exitPerimeter=0;entryX=0.5;entryY=0.5;entryDx=0;entryDy=0;entryPerimeter=0;" parent="1" source="z9jJJr1QuuOx36FKF8ej-84" target="z9jJJr1QuuOx36FKF8ej-3" edge="1">
          <mxGeometry width="50" height="50" relative="1" as="geometry">
            <mxPoint x="571.5" y="694" as="sourcePoint" />
            <mxPoint x="706.5" y="684" as="targetPoint" />
          </mxGeometry>
        </mxCell>
        <mxCell id="z9jJJr1QuuOx36FKF8ej-86" value="" style="endArrow=none;html=1;rounded=0;exitX=0.954;exitY=0.719;exitDx=0;exitDy=0;exitPerimeter=0;entryX=0.5;entryY=0.5;entryDx=0;entryDy=0;entryPerimeter=0;" parent="1" source="z9jJJr1QuuOx36FKF8ej-83" target="z9jJJr1QuuOx36FKF8ej-3" edge="1">
          <mxGeometry width="50" height="50" relative="1" as="geometry">
            <mxPoint x="571.5" y="694" as="sourcePoint" />
            <mxPoint x="706.5" y="684" as="targetPoint" />
          </mxGeometry>
        </mxCell>
      </root>
    </mxGraphModel>
  </diagram>
</mxfile>
